;TYPE=PLATED
;Layer: PTH_Through
;EasyEDA Pro v2.2.38.8, 2025-05-13 16:51:06
;Gerber Generator version 0.3
M48
METRIC,LZ,0000.00000
;Hole size 1 = 0.30500 METRIC
T01C0.30500
;Hole size 2 = 0.60960 METRIC
T02C0.60960
;Hole size 3 = 1.60000 METRIC
T03C1.60000
%
G05
G90
T01
X32.55725Y-57.23239
X31.84734Y-57.10986
X28.55429Y-50.5942
X32.22867Y-52.13306
X28.82036Y-51.99273
X33.25543Y-57.93057
X30.734Y-50.61102
X35.814Y-62.23
X34.42877Y-56.73369
X35.687Y-51.054
X39.243Y-44.11396
X40.132Y-49.784
X40.767Y-57.277
X28.67914Y-62.79397
X28.67914Y-60.25397
X28.67914Y-47.55397
X28.67914Y-39.93397
X28.67914Y-37.39397
X28.67914Y-34.85397
X28.67914Y-32.31397
X28.67914Y-29.77397
X28.67914Y-24.69397
X28.67914Y-22.15397
X28.67914Y-19.61397
X28.67914Y-17.07397
X28.67914Y-14.53397
X28.67914Y-11.99397
X28.67914Y-9.45397
X28.67914Y-6.91397
X28.67914Y-4.37397
X28.67914Y-1.83397
X28.67914Y0.70603
X28.67914Y3.24603
X28.67914Y5.78603
X31.21914Y-62.79397
X31.21914Y-39.93397
X31.21914Y-37.39397
X31.21914Y-34.85397
X31.21914Y-32.31397
X31.21914Y-29.77397
X31.21914Y-24.69397
X31.21914Y-22.15397
X31.21914Y-19.61397
X31.21914Y-17.07397
X33.75914Y-39.93397
X33.75914Y-37.39397
X33.75914Y-34.85397
X33.75914Y-32.31397
X33.75914Y-29.77397
X33.75914Y-22.15397
X33.75914Y-1.83397
X36.29914Y-47.55397
X36.29914Y-39.93397
X36.29914Y-37.39397
X36.29914Y-34.85397
X36.29914Y-32.31397
X36.29914Y-29.77397
X36.29914Y-24.69397
X36.29914Y0.70603
X36.29914Y3.24603
X38.83914Y-60.25397
X38.83914Y-55.17397
X38.83914Y-52.63397
X38.83914Y-47.55397
X38.83914Y-39.93397
X38.83914Y-37.39397
X38.83914Y-34.85397
X38.83914Y-32.31397
X38.83914Y-29.77397
X38.83914Y-22.15397
X38.83914Y-6.91397
X38.83914Y0.70603
X38.83914Y3.24603
X41.37914Y-60.25397
X43.91914Y-62.79397
X43.91914Y-60.25397
X43.91914Y-57.71397
X43.91914Y-39.93397
X43.91914Y-37.39397
X43.91914Y-34.85397
X43.91914Y-32.31397
X43.91914Y-29.77397
X43.91914Y-11.99397
X43.91914Y-9.45397
X43.91914Y-6.91397
X43.91914Y-4.37397
X43.91914Y-1.83397
X43.91914Y0.70603
X43.91914Y3.24603
X46.45914Y-62.79397
X46.45914Y-60.25397
X46.45914Y-57.71397
X46.45914Y-55.17397
X46.45914Y-52.63397
X46.45914Y-50.09397
X46.45914Y-45.01397
X46.45914Y-42.47397
X46.45914Y-39.93397
X46.45914Y-37.39397
X46.45914Y-34.85397
X46.45914Y-32.31397
X46.45914Y-29.77397
X46.45914Y-27.23397
X46.45914Y-24.69397
X46.45914Y-22.15397
X46.45914Y-19.61397
X46.45914Y-17.07397
X46.45914Y-14.53397
X46.45914Y-11.99397
X46.45914Y-9.45397
X46.45914Y-6.91397
X46.45914Y-4.37397
X46.45914Y-1.83397
X46.45914Y0.70603
X46.45914Y3.24603
X46.45914Y5.78603
X33.75052Y-10.61317
X36.29052Y-8.07317
X36.29052Y-15.69317
X38.83052Y-15.69317
X33.84702Y-49.149
X33.84702Y-50.927
X33.14705Y-53.47408
X32.12049Y-53.47408
X32.19052Y-54.22484
X33.15481Y-54.2249
X33.15481Y-54.99997
X43.434Y-48.514
X43.434Y-49.33324
X42.67594Y-48.82474
X27.31364Y-54.991
X27.27199Y-56.64199
X35.941Y-55.55203
X35.941Y-54.61729
X35.40269Y-55.05246
T02
X33.61106Y-61.37773G85X33.61106Y-61.86815
X40.81094Y-61.37773G85X40.81094Y-61.86815
X41.63593Y-64.77786G85X41.63593Y-65.46826
X32.78607Y-64.77786G85X32.78607Y-65.46826
X32.78607Y-63.02779G85X32.78607Y-63.71821
X41.63604Y-63.02771G85X41.63604Y-63.71814
T03
X43.18828Y5.35357
X36.88582Y5.35357
X33.83477Y5.35357
X39.95635Y5.35357
X30.69998Y5.35357
M30