G04 Layer: BottomLayer*
G04 EasyEDA Pro v2.2.38.8, 2025-05-13 16:51:06*
G04 Gerber Generator version 0.3*
G04 Scale: 100 percent, Rotated: No, Reflected: No*
G04 Dimensions in millimeters*
G04 Leading zeros omitted, absolute positions, 4 integers and 5 decimals*
%FSLAX45Y45*%
%MOMM*%
%ADD10C,0.2032*%
%ADD11C,0.254*%
%ADD12R,2.5X2.5*%
%ADD13O,1.2X1.5*%
%ADD14O,1.2X1.9*%
%ADD15C,0.61*%
%ADD16C,0.508*%
%ADD17C,0.381*%
%ADD18C,0.7673*%
%ADD19C,0.762*%
G75*


G04 Copper Start*
G36*
G01X3182793Y-6547306D02*
G01X2862400Y-6547529D01*
G01X2877804Y-6532014D01*
G01X2890285Y-6514063D01*
G01X2899465Y-6494220D01*
G01X2905065Y-6473086D01*
G01X2906916Y-6451302D01*
G01X2904962Y-6429526D01*
G01X2899261Y-6408419D01*
G01X2889987Y-6388620D01*
G01X2877421Y-6370728D01*
G01X2861943Y-6355287D01*
G01X2844022Y-6342763D01*
G01X2824201Y-6333536D01*
G01X2803080Y-6327886D01*
G01X2781300Y-6325984D01*
G01X2759520Y-6327886D01*
G01X2738399Y-6333536D01*
G01X2718578Y-6342763D01*
G01X2700657Y-6355287D01*
G01X2685179Y-6370728D01*
G01X2672613Y-6388620D01*
G01X2663339Y-6408419D01*
G01X2657638Y-6429526D01*
G01X2655684Y-6451302D01*
G01X2657535Y-6473086D01*
G01X2663135Y-6494220D01*
G01X2672315Y-6514063D01*
G01X2684796Y-6532014D01*
G01X2700200Y-6547529D01*
G01X2616074Y-6547529D01*
G01X2614456Y-6537723D01*
G01X2613914Y-6527800D01*
G01X2613914Y-4405494D01*
G01X3858249Y-4405494D01*
G01X3858663Y-4420845D01*
G01X3862596Y-4435690D01*
G01X3869839Y-4449231D01*
G01X3880002Y-4460744D01*
G01X3892541Y-4469610D01*
G01X3906782Y-4475354D01*
G01X3921964Y-4477669D01*
G01X3964686Y-4520391D01*
G01X3964686Y-4933190D01*
G01X3955588Y-4945561D01*
G01X3949579Y-4959694D01*
G01X3946982Y-4974829D01*
G01X3947936Y-4990156D01*
G01X3952390Y-5004853D01*
G01X3960106Y-5018131D01*
G01X3970668Y-5029278D01*
G01X3983511Y-5037697D01*
G01X3997947Y-5042936D01*
G01X4013200Y-5044714D01*
G01X4013200Y-5044714D01*
G01X4028453Y-5042936D01*
G01X4042889Y-5037697D01*
G01X4055732Y-5029278D01*
G01X4066294Y-5018131D01*
G01X4074010Y-5004853D01*
G01X4078464Y-4990156D01*
G01X4079418Y-4974829D01*
G01X4076821Y-4959694D01*
G01X4070812Y-4945561D01*
G01X4061714Y-4933190D01*
G01X4061714Y-4500296D01*
G01X4060061Y-4487739D01*
G01X4055214Y-4476039D01*
G01X4047505Y-4465991D01*
G01X3990573Y-4409060D01*
G01X3988259Y-4393878D01*
G01X3982514Y-4379636D01*
G01X3973648Y-4367098D01*
G01X3962136Y-4356935D01*
G01X3948594Y-4349692D01*
G01X3933750Y-4345758D01*
G01X3918399Y-4345345D01*
G01X3903364Y-4348473D01*
G01X3889452Y-4354976D01*
G01X3877409Y-4364505D01*
G01X3867880Y-4376548D01*
G01X3861378Y-4390460D01*
G01X3858249Y-4405494D01*
G01X2613914Y-4405494D01*
G01X2613914Y660357D01*
G01X2909184Y660357D01*
G01X2909184Y410357D01*
G01X2910937Y399290D01*
G01X2916024Y389306D01*
G01X2923947Y381383D01*
G01X2933931Y376296D01*
G01X2944998Y374543D01*
G01X3194998Y374543D01*
G01X3204630Y375862D01*
G01X3213552Y379723D01*
G01X3221107Y385842D01*
G01X3226738Y393767D01*
G01X3232369Y385842D01*
G01X3239924Y379723D01*
G01X3248846Y375862D01*
G01X3258477Y374543D01*
G01X3508477Y374543D01*
G01X3518807Y376065D01*
G01X3528259Y380502D01*
G01X3536030Y387477D01*
G01X3543800Y380502D01*
G01X3553252Y376065D01*
G01X3563582Y374543D01*
G01X3813582Y374543D01*
G01X3824411Y376219D01*
G01X3834226Y381091D01*
G01X3842109Y388703D01*
G01X3849991Y381091D01*
G01X3859806Y376219D01*
G01X3870635Y374543D01*
G01X4100021Y374543D01*
G01X4100021Y-5599849D01*
G01X4024435Y-5675435D01*
G01X4014115Y-5688375D01*
G01X4006934Y-5703288D01*
G01X4003251Y-5719424D01*
G01X4003251Y-5735976D01*
G01X4006934Y-5752112D01*
G01X4014115Y-5767025D01*
G01X4024435Y-5779965D01*
G01X4037375Y-5790285D01*
G01X4052288Y-5797466D01*
G01X4068424Y-5801149D01*
G01X4084976Y-5801149D01*
G01X4101112Y-5797466D01*
G01X4116025Y-5790285D01*
G01X4128965Y-5779965D01*
G01X4226200Y-5682730D01*
G01X4235393Y-5671529D01*
G01X4242223Y-5658750D01*
G01X4246429Y-5644885D01*
G01X4247849Y-5630465D01*
G01X4247849Y359848D01*
G01X4262544Y374543D01*
G01X4443828Y374543D01*
G01X4454895Y376296D01*
G01X4464879Y381383D01*
G01X4472802Y389306D01*
G01X4477889Y399290D01*
G01X4479642Y410357D01*
G01X4479642Y660357D01*
G01X4477889Y671424D01*
G01X4472802Y681408D01*
G01X4464879Y689331D01*
G01X4454895Y694418D01*
G01X4443828Y696171D01*
G01X4193828Y696171D01*
G01X4182761Y694418D01*
G01X4172777Y689331D01*
G01X4164854Y681408D01*
G01X4159767Y671424D01*
G01X4158014Y660357D01*
G01X4158014Y479073D01*
G01X4156449Y477508D01*
G01X4156449Y660357D01*
G01X4154696Y671424D01*
G01X4149609Y681408D01*
G01X4141686Y689331D01*
G01X4131702Y694418D01*
G01X4120635Y696171D01*
G01X3870635Y696171D01*
G01X3859806Y694494D01*
G01X3849991Y689622D01*
G01X3842109Y682011D01*
G01X3834226Y689622D01*
G01X3824411Y694494D01*
G01X3813582Y696171D01*
G01X3563582Y696171D01*
G01X3553252Y694649D01*
G01X3543800Y690212D01*
G01X3536030Y683237D01*
G01X3528259Y690212D01*
G01X3518807Y694649D01*
G01X3508477Y696171D01*
G01X3508477Y696171D01*
G01X3258477Y696171D01*
G01X3248846Y694851D01*
G01X3239924Y690990D01*
G01X3232369Y684872D01*
G01X3226738Y676947D01*
G01X3221107Y684872D01*
G01X3213552Y690990D01*
G01X3204630Y694851D01*
G01X3194998Y696171D01*
G01X2944998Y696171D01*
G01X2933931Y694418D01*
G01X2923947Y689331D01*
G01X2916024Y681408D01*
G01X2910937Y671424D01*
G01X2909184Y660357D01*
G01X2613914Y660357D01*
G01X2613914Y725008D01*
G01X4739386Y725008D01*
G01X4739386Y-6527800D01*
G01X4738844Y-6537723D01*
G01X4737226Y-6547529D01*
G01X4627700Y-6547529D01*
G01X4643104Y-6532014D01*
G01X4655585Y-6514063D01*
G01X4664765Y-6494220D01*
G01X4670365Y-6473086D01*
G01X4672216Y-6451302D01*
G01X4670262Y-6429526D01*
G01X4664561Y-6408419D01*
G01X4655287Y-6388620D01*
G01X4642721Y-6370728D01*
G01X4627243Y-6355287D01*
G01X4609322Y-6342763D01*
G01X4589501Y-6333536D01*
G01X4568380Y-6327886D01*
G01X4546600Y-6325984D01*
G01X4524820Y-6327886D01*
G01X4503699Y-6333536D01*
G01X4483878Y-6342763D01*
G01X4465957Y-6355287D01*
G01X4450479Y-6370728D01*
G01X4437913Y-6388620D01*
G01X4428639Y-6408419D01*
G01X4422938Y-6429526D01*
G01X4420984Y-6451302D01*
G01X4422835Y-6473086D01*
G01X4428435Y-6494220D01*
G01X4437615Y-6514063D01*
G01X4450096Y-6532014D01*
G01X4465500Y-6547529D01*
G01X4259407Y-6547529D01*
G01X4259407Y-6477306D01*
G01X4257623Y-6458899D01*
G01X4252335Y-6441178D01*
G01X4243742Y-6424803D01*
G01X4252335Y-6408428D01*
G01X4257623Y-6390707D01*
G01X4259407Y-6372300D01*
G01X4259407Y-6302300D01*
G01X4257771Y-6284669D01*
G01X4252918Y-6267640D01*
G01X4245015Y-6251794D01*
G01X4234331Y-6237674D01*
G01X4221230Y-6225761D01*
G01X4206162Y-6216462D01*
G01X4189639Y-6210094D01*
G01X4172227Y-6206876D01*
G01X4175731Y-6192269D01*
G01X4176908Y-6177294D01*
G01X4176908Y-6147294D01*
G01X4175067Y-6128602D01*
G01X4169615Y-6110628D01*
G01X4160761Y-6094063D01*
G01X4148845Y-6079543D01*
G01X4134326Y-6067628D01*
G01X4117761Y-6058774D01*
G01X4099787Y-6053321D01*
G01X4081094Y-6051480D01*
G01X4062402Y-6053321D01*
G01X4044428Y-6058774D01*
G01X4027863Y-6067628D01*
G01X4013344Y-6079543D01*
G01X4001428Y-6094063D01*
G01X3992574Y-6110628D01*
G01X3987121Y-6128602D01*
G01X3985280Y-6147294D01*
G01X3985280Y-6177294D01*
G01X3986917Y-6194925D01*
G01X3991769Y-6211954D01*
G01X3999673Y-6227800D01*
G01X4010357Y-6241920D01*
G01X4023457Y-6253833D01*
G01X4038526Y-6263132D01*
G01X4055048Y-6269500D01*
G01X4072461Y-6272718D01*
G01X4068957Y-6287325D01*
G01X4067780Y-6302300D01*
G01X4067780Y-6372300D01*
G01X4069564Y-6390707D01*
G01X4074852Y-6408428D01*
G01X4083445Y-6424803D01*
G01X4074852Y-6441178D01*
G01X4069564Y-6458899D01*
G01X4067780Y-6477306D01*
G01X4067780Y-6547306D01*
G01X3374420Y-6547529D01*
G01X3374420Y-6477306D01*
G01X3372636Y-6458899D01*
G01X3367348Y-6441178D01*
G01X3358755Y-6424803D01*
G01X3367348Y-6408428D01*
G01X3372636Y-6390707D01*
G01X3374420Y-6372300D01*
G01X3374420Y-6302300D01*
G01X3373243Y-6287325D01*
G01X3369739Y-6272718D01*
G01X3387062Y-6269525D01*
G01X3403508Y-6263215D01*
G01X3418520Y-6254000D01*
G01X3431592Y-6242194D01*
G01X3442282Y-6228194D01*
G01X3450228Y-6212473D01*
G01X3455162Y-6195564D01*
G01X3456917Y-6178037D01*
G01X3459088Y-6190890D01*
G01X3463483Y-6203162D01*
G01X3469966Y-6214471D01*
G01X3478335Y-6224465D01*
G01X3529135Y-6275265D01*
G01X3542075Y-6285585D01*
G01X3556988Y-6292766D01*
G01X3573124Y-6296449D01*
G01X3589676Y-6296449D01*
G01X3605812Y-6292766D01*
G01X3620725Y-6285585D01*
G01X3633665Y-6275265D01*
G01X3643985Y-6262325D01*
G01X3651166Y-6247412D01*
G01X3654849Y-6231276D01*
G01X3654849Y-6214724D01*
G01X3651166Y-6198588D01*
G01X3643985Y-6183675D01*
G01X3633665Y-6170735D01*
G01X3604514Y-6141584D01*
G01X3604514Y-5981203D01*
G01X3603094Y-5966783D01*
G01X3598888Y-5952917D01*
G01X3592057Y-5940139D01*
G01X3582865Y-5928938D01*
G01X3483257Y-5829330D01*
G01X3483257Y-5758346D01*
G01X3481819Y-5743836D01*
G01X3477560Y-5729890D01*
G01X3480125Y-5728233D01*
G01X3595276Y-5728233D01*
G01X3609476Y-5726364D01*
G01X3622708Y-5720883D01*
G01X3634071Y-5712164D01*
G01X3734495Y-5611740D01*
G01X3743214Y-5600377D01*
G01X3748695Y-5587145D01*
G01X3750564Y-5572945D01*
G01X3750564Y-5232400D01*
G01X3748695Y-5218200D01*
G01X3743214Y-5204968D01*
G01X3734495Y-5193605D01*
G01X3633834Y-5092944D01*
G01X3628984Y-5077770D01*
G01X3620655Y-5064191D01*
G01X3609328Y-5052989D01*
G01X3595657Y-5044812D01*
G01X3580430Y-5040132D01*
G01X3564526Y-5039217D01*
G01X3548863Y-5042122D01*
G01X3534345Y-5048679D01*
G01X3521809Y-5058509D01*
G01X3511979Y-5071045D01*
G01X3505422Y-5085563D01*
G01X3502517Y-5101226D01*
G01X3503432Y-5117130D01*
G01X3508112Y-5132357D01*
G01X3516289Y-5146028D01*
G01X3527491Y-5157355D01*
G01X3541070Y-5165684D01*
G01X3556244Y-5170534D01*
G01X3640836Y-5255125D01*
G01X3640836Y-5550220D01*
G01X3572551Y-5618505D01*
G01X3480127Y-5618505D01*
G01X3467331Y-5611728D01*
G01X3453370Y-5607890D01*
G01X3438908Y-5607174D01*
G01X3424635Y-5609613D01*
G01X3411232Y-5615092D01*
G01X3399338Y-5623350D01*
G01X3389519Y-5633992D01*
G01X3147314Y-5391787D01*
G01X3147314Y-5213306D01*
G01X3156553Y-5213306D01*
G01X3158480Y-5229176D01*
G01X3164149Y-5244123D01*
G01X3173230Y-5257280D01*
G01X3185196Y-5267881D01*
G01X3199352Y-5275311D01*
G01X3214874Y-5279136D01*
G01X3230860Y-5279136D01*
G01X3246382Y-5275311D01*
G01X3260538Y-5267881D01*
G01X3272504Y-5257280D01*
G01X3281585Y-5244123D01*
G01X3287254Y-5229176D01*
G01X3289181Y-5213306D01*
G01X3287254Y-5197436D01*
G01X3281585Y-5182488D01*
G01X3272504Y-5169331D01*
G01X3260538Y-5158730D01*
G01X3246382Y-5151301D01*
G01X3230860Y-5147475D01*
G01X3214874Y-5147475D01*
G01X3199352Y-5151301D01*
G01X3185196Y-5158730D01*
G01X3173230Y-5169331D01*
G01X3164149Y-5182488D01*
G01X3158480Y-5197436D01*
G01X3156553Y-5213306D01*
G01X3156553Y-5213306D01*
G01X3147314Y-5213306D01*
G01X3147314Y-5061102D01*
G01X3145461Y-5044655D01*
G01X3139994Y-5029032D01*
G01X3131188Y-5015018D01*
G01X3119485Y-5003314D01*
G01X3105470Y-4994508D01*
G01X3089847Y-4989042D01*
G01X3073400Y-4987188D01*
G01X3056953Y-4989042D01*
G01X3041330Y-4994508D01*
G01X3027315Y-5003314D01*
G01X3015612Y-5015018D01*
G01X3006806Y-5029032D01*
G01X3001339Y-5044655D01*
G01X2999486Y-5061102D01*
G01X2999486Y-5070234D01*
G01X2996421Y-5066935D01*
G01X2945621Y-5016135D01*
G01X2936345Y-5008522D01*
G01X2925762Y-5002866D01*
G01X2914279Y-4999382D01*
G01X2902337Y-4998206D01*
G01X2880932Y-4998206D01*
G01X2865466Y-4993870D01*
G01X2849411Y-4993380D01*
G01X2833708Y-4996764D01*
G01X2819281Y-5003824D01*
G01X2806974Y-5014147D01*
G01X2797510Y-5027125D01*
G01X2791444Y-5041999D01*
G01X2789133Y-5057894D01*
G01X2790711Y-5073879D01*
G01X2796086Y-5089016D01*
G01X2804943Y-5102416D01*
G01X2816762Y-5113294D01*
G01X2830849Y-5121010D01*
G01X2846379Y-5125114D01*
G01X2862440Y-5125362D01*
G01X2878089Y-5121742D01*
G01X2889757Y-5133410D01*
G01X2873983Y-5133450D01*
G01X2858664Y-5137214D01*
G01X2844668Y-5144490D01*
G01X2832787Y-5154866D01*
G01X2823692Y-5167754D01*
G01X2817898Y-5182426D01*
G01X2815734Y-5198051D01*
G01X2817321Y-5213746D01*
G01X2822570Y-5228621D01*
G01X2822569Y-5633333D01*
G01X2824439Y-5647533D01*
G01X2829920Y-5660765D01*
G01X2838639Y-5672128D01*
G01X2998363Y-5831852D01*
G01X3009725Y-5840571D01*
G01X3022957Y-5846052D01*
G01X3037157Y-5847921D01*
G01X3288294Y-5847921D01*
G01X3299114Y-5853877D01*
G01X3310851Y-5857723D01*
G01X3323097Y-5859326D01*
G01X3335429Y-5858630D01*
G01X3335429Y-5859946D01*
G01X3336849Y-5874366D01*
G01X3341055Y-5888232D01*
G01X3347886Y-5901010D01*
G01X3357078Y-5912211D01*
G01X3456686Y-6011819D01*
G01X3456686Y-6140606D01*
G01X3453329Y-6121309D01*
G01X3446118Y-6103098D01*
G01X3435354Y-6086734D01*
G01X3421488Y-6072901D01*
G01X3405098Y-6062177D01*
G01X3386870Y-6055009D01*
G01X3367565Y-6051698D01*
G01X3347990Y-6052382D01*
G01X3328963Y-6057032D01*
G01X3311280Y-6065455D01*
G01X3295679Y-6077297D01*
G01X3282812Y-6092064D01*
G01X3273216Y-6109140D01*
G01X3267294Y-6127810D01*
G01X3265292Y-6147294D01*
G01X3265292Y-6177294D01*
G01X3266469Y-6192269D01*
G01X3269973Y-6206876D01*
G01X3252561Y-6210094D01*
G01X3236038Y-6216462D01*
G01X3220970Y-6225761D01*
G01X3207869Y-6237674D01*
G01X3197185Y-6251794D01*
G01X3189282Y-6267640D01*
G01X3184429Y-6284669D01*
G01X3182793Y-6302300D01*
G01X3182793Y-6372300D01*
G01X3184577Y-6390707D01*
G01X3189865Y-6408428D01*
G01X3198458Y-6424803D01*
G01X3189865Y-6441178D01*
G01X3184577Y-6458899D01*
G01X3182793Y-6477306D01*
G01X3182793Y-6547306D01*
G37*
G54D10*
G01X3182793Y-6547306D02*
G01X2862400Y-6547529D01*
G03X2781300Y-6325984I-81100J95929D01*
G03X2700200Y-6547529I0J-125616D01*
G01X2616074Y-6547529D01*
G02X2613914Y-6527800I89026J19729D01*
G01X2613914Y725008D01*
G01X4739386Y725008D01*
G01X4739386Y-6527800D01*
G02X4737226Y-6547529I-91186J0D01*
G01X4627700Y-6547529D01*
G03X4546600Y-6325984I-81100J95929D01*
G03X4465500Y-6547529I0J-125616D01*
G01X4259407Y-6547529D01*
G01X4259407Y-6477306D01*
G03X4243742Y-6424803I-95814J0D01*
G03X4259407Y-6372300I-80148J52503D01*
G01X4259407Y-6302300D01*
G03X4172227Y-6206876I-95814J0D01*
G03X4176908Y-6177294I-91133J29582D01*
G01X4176908Y-6147294D01*
G03X3985280Y-6147294I-95814J0D01*
G01X3985280Y-6177294D01*
G03X4072461Y-6272718I95814J0D01*
G03X4067780Y-6302300I91133J-29582D01*
G01X4067780Y-6372300D01*
G03X4083445Y-6424803I95814J0D01*
G03X4067780Y-6477306I80148J-52503D01*
G01X4067780Y-6547306D01*
G01X3374420Y-6547529D01*
G01X3374420Y-6477306D01*
G03X3358755Y-6424803I-95814J0D01*
G03X3374420Y-6372300I-80148J52503D01*
G01X3374420Y-6302300D01*
G03X3369739Y-6272718I-95814J0D01*
G03X3456917Y-6178037I-8634J95424D01*
G03X3478335Y-6224465I73683J5837D01*
G01X3529135Y-6275265D01*
G03X3633665Y-6170735I52265J52265D01*
G01X3604514Y-6141584D01*
G01X3604514Y-5981203D01*
G03X3582865Y-5928938I-73914J0D01*
G01X3483257Y-5829330D01*
G01X3483257Y-5758346D01*
G03X3477560Y-5729890I-73914J0D01*
G03X3480125Y-5728233I-34683J56521D01*
G01X3595276Y-5728233D01*
G03X3634071Y-5712164I0J54864D01*
G01X3734495Y-5611740D01*
G03X3750564Y-5572945I-38795J38795D01*
G01X3750564Y-5232400D01*
G03X3734495Y-5193605I-54864J0D01*
G01X3633834Y-5092944D01*
G03X3521809Y-5058509I-65134J-12456D01*
G03X3556244Y-5170534I46891J-46891D01*
G01X3640836Y-5255125D01*
G01X3640836Y-5550220D01*
G01X3572551Y-5618505D01*
G01X3480127Y-5618505D01*
G03X3389519Y-5633992I-37250J-54863D01*
G01X3147314Y-5391787D01*
G01X3147314Y-5061102D01*
G03X2999486Y-5061102I-73914J0D01*
G01X2999486Y-5070234D01*
G03X2996421Y-5066935I-46349J-39986D01*
G01X2945621Y-5016135D01*
G03X2902337Y-4998206I-43285J-43285D01*
G01X2880932Y-4998206D01*
G03X2789133Y-5057894I-25503J-61214D01*
G03X2878089Y-5121742I66297J-1526D01*
G01X2889757Y-5133410D01*
G03X2822570Y-5228621I-7721J-65863D01*
G01X2822569Y-5633333D01*
G03X2838639Y-5672128I54864J0D01*
G01X2998363Y-5831852D01*
G03X3037157Y-5847921I38795J38795D01*
G01X3288294Y-5847921D01*
G03X3335429Y-5858630I37249J54864D01*
G01X3335429Y-5859946D01*
G03X3357078Y-5912211I73914J0D01*
G01X3456686Y-6011819D01*
G01X3456686Y-6140606D01*
G03X3265292Y-6147294I-95580J-6688D01*
G01X3265292Y-6177294D01*
G03X3269973Y-6206876I95814J0D01*
G03X3182793Y-6302300I8634J-95424D01*
G01X3182793Y-6372300D01*
G03X3198458Y-6424803I95814J0D01*
G03X3182793Y-6477306I80148J-52503D01*
G01X3182793Y-6547306D01*
G01X3508477Y696171D02*
G01X3258477Y696171D01*
G03X3226738Y676947I0J-35814D01*
G03X3194998Y696171I-31740J-16590D01*
G01X2944998Y696171D01*
G03X2909184Y660357I0J-35814D01*
G01X2909184Y410357D01*
G03X2944998Y374543I35814J0D01*
G01X3194998Y374543D01*
G03X3226738Y393767I0J35814D01*
G03X3258477Y374543I31740J16590D01*
G01X3508477Y374543D01*
G03X3536030Y387477I0J35814D01*
G03X3563582Y374543I27553J22880D01*
G01X3813582Y374543D01*
G03X3842109Y388703I0J35814D01*
G03X3870635Y374543I28526J21654D01*
G01X4100021Y374543D01*
G01X4100021Y-5599849D01*
G01X4024435Y-5675435D01*
G03X4128965Y-5779965I52265J-52265D01*
G01X4226200Y-5682730D01*
G03X4247849Y-5630465I-52265J52265D01*
G01X4247849Y359848D01*
G01X4262544Y374543D01*
G01X4443828Y374543D01*
G03X4479642Y410357I0J35814D01*
G01X4479642Y660357D01*
G03X4443828Y696171I-35814J0D01*
G01X4193828Y696171D01*
G03X4158014Y660357I0J-35814D01*
G01X4158014Y479073D01*
G01X4156449Y477508D01*
G01X4156449Y660357D01*
G03X4120635Y696171I-35814J0D01*
G01X3870635Y696171D01*
G03X3842109Y682011I0J-35814D01*
G03X3813582Y696171I-28526J-21654D01*
G01X3563582Y696171D01*
G03X3536030Y683237I0J-35814D01*
G03X3508477Y696171I-27553J-22880D01*
G01X3156553Y-5213306D02*
G03X3289181Y-5213306I66314J0D01*
G03X3156553Y-5213306I-66314J0D01*
G01X4013200Y-5044714D02*
G03X4061714Y-4933190I0J66314D01*
G01X4061714Y-4500296D01*
G03X4047505Y-4465991I-48514J0D01*
G01X3990573Y-4409060D01*
G03X3877409Y-4364505I-66273J-2336D01*
G03X3921964Y-4477669I46891J-46891D01*
G01X3964686Y-4520391D01*
G01X3964686Y-4933190D01*
G03X4013200Y-5044714I48514J-45210D01*
G54D11*
G01X4120381Y535357D02*
G01X4146289Y535357D01*
G01X3995635Y660103D02*
G01X3995635Y686011D01*
G01X3995635Y410611D02*
G01X3995635Y384703D01*
G04 Copper End*

G04 Pad Start*
G54D12*
G01X4318828Y535357D03*
G01X3688582Y535357D03*
G01X3383477Y535357D03*
G01X3995635Y535357D03*
G01X3069998Y535357D03*
G54D13*
G01X3361106Y-6162294D03*
G01X4081094Y-6162294D03*
G54D14*
G01X4163593Y-6512306D03*
G01X3278607Y-6512306D03*
G01X3278607Y-6337300D03*
G01X4163593Y-6337300D03*
G04 Pad End*

G04 Via Start*
G54D15*
G01X3255725Y-5723239D03*
G54D16*
G01X3184734Y-5710986D03*
G54D15*
G01X2855429Y-5059420D03*
G01X3222867Y-5213306D03*
G01X2882036Y-5199273D03*
G01X3325543Y-5793057D03*
G01X3073400Y-5061102D03*
G01X3581400Y-6223000D03*
G01X3442877Y-5673369D03*
G01X3568700Y-5105400D03*
G01X3924300Y-4411396D03*
G01X4013200Y-4978400D03*
G01X4076700Y-5727700D03*
G01X2867914Y-6279397D03*
G01X2867914Y-6025397D03*
G01X2867914Y-4755397D03*
G01X2867914Y-3993397D03*
G01X2867914Y-3739397D03*
G01X2867914Y-3485397D03*
G01X2867914Y-3231397D03*
G01X2867914Y-2977397D03*
G01X2867914Y-2469397D03*
G01X2867914Y-2215397D03*
G01X2867914Y-1961397D03*
G01X2867914Y-1707397D03*
G01X2867914Y-1453397D03*
G01X2867914Y-1199397D03*
G01X2867914Y-945397D03*
G01X2867914Y-691397D03*
G01X2867914Y-437397D03*
G01X2867914Y-183397D03*
G01X2867914Y70603D03*
G01X2867914Y324603D03*
G01X2867914Y578603D03*
G01X3121914Y-6279397D03*
G01X3121914Y-3993397D03*
G01X3121914Y-3739397D03*
G01X3121914Y-3485397D03*
G01X3121914Y-3231397D03*
G01X3121914Y-2977397D03*
G01X3121914Y-2469397D03*
G01X3121914Y-2215397D03*
G01X3121914Y-1961397D03*
G01X3121914Y-1707397D03*
G01X3375914Y-3993397D03*
G01X3375914Y-3739397D03*
G01X3375914Y-3485397D03*
G01X3375914Y-3231397D03*
G01X3375914Y-2977397D03*
G01X3375914Y-2215397D03*
G01X3375914Y-183397D03*
G01X3629914Y-4755397D03*
G01X3629914Y-3993397D03*
G01X3629914Y-3739397D03*
G01X3629914Y-3485397D03*
G01X3629914Y-3231397D03*
G01X3629914Y-2977397D03*
G01X3629914Y-2469397D03*
G01X3629914Y70603D03*
G01X3629914Y324603D03*
G01X3883914Y-6025397D03*
G01X3883914Y-5517397D03*
G01X3883914Y-5263397D03*
G01X3883914Y-4755397D03*
G01X3883914Y-3993397D03*
G01X3883914Y-3739397D03*
G01X3883914Y-3485397D03*
G01X3883914Y-3231397D03*
G01X3883914Y-2977397D03*
G01X3883914Y-2215397D03*
G01X3883914Y-691397D03*
G01X3883914Y70603D03*
G01X3883914Y324603D03*
G01X4137914Y-6025397D03*
G01X4391914Y-6279397D03*
G01X4391914Y-6025397D03*
G01X4391914Y-5771397D03*
G01X4391914Y-3993397D03*
G01X4391914Y-3739397D03*
G01X4391914Y-3485397D03*
G01X4391914Y-3231397D03*
G01X4391914Y-2977397D03*
G01X4391914Y-1199397D03*
G01X4391914Y-945397D03*
G01X4391914Y-691397D03*
G01X4391914Y-437397D03*
G01X4391914Y-183397D03*
G01X4391914Y70603D03*
G01X4391914Y324603D03*
G01X4645914Y-6279397D03*
G01X4645914Y-6025397D03*
G01X4645914Y-5771397D03*
G01X4645914Y-5517397D03*
G01X4645914Y-5263397D03*
G01X4645914Y-5009397D03*
G01X4645914Y-4501397D03*
G01X4645914Y-4247397D03*
G01X4645914Y-3993397D03*
G01X4645914Y-3739397D03*
G01X4645914Y-3485397D03*
G01X4645914Y-3231397D03*
G01X4645914Y-2977397D03*
G01X4645914Y-2723397D03*
G01X4645914Y-2469397D03*
G01X4645914Y-2215397D03*
G01X4645914Y-1961397D03*
G01X4645914Y-1707397D03*
G01X4645914Y-1453397D03*
G01X4645914Y-1199397D03*
G01X4645914Y-945397D03*
G01X4645914Y-691397D03*
G01X4645914Y-437397D03*
G01X4645914Y-183397D03*
G01X4645914Y70603D03*
G01X4645914Y324603D03*
G01X4645914Y578603D03*
G01X3375052Y-1061317D03*
G01X3629052Y-807317D03*
G01X3629052Y-1569317D03*
G01X3883052Y-1569317D03*
G01X3384702Y-4914900D03*
G01X3384702Y-5092700D03*
G01X3314705Y-5347408D03*
G01X3212049Y-5347408D03*
G01X3219052Y-5422484D03*
G01X3315481Y-5422490D03*
G01X3315481Y-5499997D03*
G01X4343400Y-4851400D03*
G01X4343400Y-4933324D03*
G01X4267594Y-4882474D03*
G01X2731364Y-5499100D03*
G01X2727199Y-5664199D03*
G01X3594100Y-5555203D03*
G01X3594100Y-5461729D03*
G01X3540269Y-5505246D03*
G04 Via End*

G04 Track Start*
G54D17*
G01X2882036Y-5199273D02*
G01X2877434Y-5203876D01*
G01X2877433Y-5633333D01*
G54D16*
G01X2953137Y-5110220D02*
G01X2902337Y-5059420D01*
G01X2855429Y-5059420D01*
G01X3184734Y-5710986D02*
G01X2953137Y-5479389D01*
G01X2953137Y-5110220D01*
G54D17*
G01X2877433Y-5633333D02*
G01X3037157Y-5793057D01*
G01X3325543Y-5793057D01*
G54D19*
G01X3409343Y-5758346D02*
G01X3409343Y-5859946D01*
G01X3530600Y-5981203D01*
G01X3530600Y-6172200D01*
G01X3581400Y-6223000D01*
G01X3073400Y-5061102D02*
G01X3073400Y-5422403D01*
G01X3409343Y-5758346D01*
G54D11*
G01X4013200Y-4500296D02*
G01X3924300Y-4411396D01*
G01X4013200Y-4978400D02*
G01X4013200Y-4500296D01*
G54D19*
G01X4173935Y390464D02*
G01X4318828Y535357D01*
G01X4173935Y-5630465D02*
G01X4173935Y390464D01*
G01X4076700Y-5727700D02*
G01X4173935Y-5630465D01*
G54D17*
G01X3595276Y-5673369D02*
G01X3695700Y-5572945D01*
G01X3695700Y-5232400D01*
G01X3442876Y-5673369D02*
G01X3595276Y-5673369D01*
G01X3695700Y-5232400D02*
G01X3568700Y-5105400D01*
G04 Track End*

M02*

