G04 Layer: TopSilkscreenLayer*
G04 EasyEDA Pro v2.2.38.8, 2025-05-13 16:51:06*
G04 Gerber Generator version 0.3*
G04 Scale: 100 percent, Rotated: No, Reflected: No*
G04 Dimensions in millimeters*
G04 Leading zeros omitted, absolute positions, 4 integers and 5 decimals*
%FSLAX45Y45*%
%MOMM*%
%ADD10C,0.1524*%
%ADD11C,0.254*%
%ADD12C,0.2*%
%ADD13C,0.3*%
%ADD14C,0.15001*%
%ADD15C,0.1512*%
%ADD16C,0.14986*%
G75*


G04 Text Start*
G54D10*
G01X4201448Y767291D02*
G01X4201448Y702267D01*
G01X4201448Y767291D02*
G01X4229388Y767291D01*
G01X4238532Y764243D01*
G01X4241580Y761195D01*
G01X4244882Y754845D01*
G01X4244882Y748749D01*
G01X4241580Y742653D01*
G01X4238532Y739605D01*
G01X4229388Y736303D01*
G01X4201448Y736303D02*
G01X4229388Y736303D01*
G01X4238532Y733255D01*
G01X4241580Y730207D01*
G01X4244882Y724111D01*
G01X4244882Y714713D01*
G01X4241580Y708617D01*
G01X4238532Y705315D01*
G01X4229388Y702267D01*
G01X4201448Y702267D01*
G01X4299746Y767291D02*
G01X4275108Y702267D01*
G01X4299746Y767291D02*
G01X4324638Y702267D01*
G01X4284252Y724111D02*
G01X4315240Y724111D01*
G01X4376454Y767291D02*
G01X4376454Y702267D01*
G01X4354864Y767291D02*
G01X4398044Y767291D01*
G01X4449860Y767291D02*
G01X4449860Y702267D01*
G01X4428270Y767291D02*
G01X4471450Y767291D01*
G01X4048760Y-5330698D02*
G01X4042410Y-5333746D01*
G01X4036314Y-5340096D01*
G01X4033266Y-5346192D01*
G01X4033266Y-5358638D01*
G01X4036314Y-5364734D01*
G01X4042410Y-5371084D01*
G01X4048760Y-5374132D01*
G01X4057904Y-5377180D01*
G01X4073398Y-5377180D01*
G01X4082796Y-5374132D01*
G01X4088892Y-5371084D01*
G01X4095242Y-5364734D01*
G01X4098290Y-5358638D01*
G01X4098290Y-5346192D01*
G01X4095242Y-5340096D01*
G01X4088892Y-5333746D01*
G01X4082796Y-5330698D01*
G01X4033266Y-5294376D02*
G01X4033266Y-5260340D01*
G01X4057904Y-5278882D01*
G01X4057904Y-5269738D01*
G01X4060952Y-5263388D01*
G01X4064254Y-5260340D01*
G01X4073398Y-5257292D01*
G01X4079748Y-5257292D01*
G01X4088892Y-5260340D01*
G01X4095242Y-5266436D01*
G01X4098290Y-5275834D01*
G01X4098290Y-5285232D01*
G01X4095242Y-5294376D01*
G01X4091940Y-5297424D01*
G01X4085844Y-5300472D01*
G01X3045460Y-5013198D02*
G01X3039110Y-5016246D01*
G01X3033014Y-5022596D01*
G01X3029966Y-5028692D01*
G01X3029966Y-5041138D01*
G01X3033014Y-5047234D01*
G01X3039110Y-5053584D01*
G01X3045460Y-5056632D01*
G01X3054604Y-5059680D01*
G01X3070098Y-5059680D01*
G01X3079496Y-5056632D01*
G01X3085592Y-5053584D01*
G01X3091942Y-5047234D01*
G01X3094990Y-5041138D01*
G01X3094990Y-5028692D01*
G01X3091942Y-5022596D01*
G01X3085592Y-5016246D01*
G01X3079496Y-5013198D01*
G01X3029966Y-4952238D02*
G01X3073146Y-4982972D01*
G01X3073146Y-4936744D01*
G01X3029966Y-4952238D02*
G01X3094990Y-4952238D01*
G01X3355340Y-5858002D02*
G01X3361690Y-5854954D01*
G01X3367786Y-5848604D01*
G01X3370834Y-5842508D01*
G01X3370834Y-5830062D01*
G01X3367786Y-5823966D01*
G01X3361690Y-5817616D01*
G01X3355340Y-5814568D01*
G01X3346196Y-5811520D01*
G01X3330702Y-5811520D01*
G01X3321304Y-5814568D01*
G01X3315208Y-5817616D01*
G01X3308858Y-5823966D01*
G01X3305810Y-5830062D01*
G01X3305810Y-5842508D01*
G01X3308858Y-5848604D01*
G01X3315208Y-5854954D01*
G01X3321304Y-5858002D01*
G01X3370834Y-5931408D02*
G01X3305810Y-5900420D01*
G01X3370834Y-5888228D02*
G01X3370834Y-5931408D01*
G01X3627120Y767334D02*
G01X3627120Y702310D01*
G01X3627120Y767334D02*
G01X3648710Y767334D01*
G01X3658108Y764286D01*
G01X3664204Y758190D01*
G01X3667252Y751840D01*
G01X3670554Y742696D01*
G01X3670554Y727202D01*
G01X3667252Y717804D01*
G01X3664204Y711708D01*
G01X3658108Y705358D01*
G01X3648710Y702310D01*
G01X3627120Y702310D01*
G01X3728466Y758190D02*
G01X3728466Y702310D01*
G01X3700780Y730250D02*
G01X3756406Y730250D01*
G01X3322320Y767334D02*
G01X3322320Y702310D01*
G01X3322320Y767334D02*
G01X3343910Y767334D01*
G01X3353308Y764286D01*
G01X3359404Y758190D01*
G01X3362452Y751840D01*
G01X3365754Y742696D01*
G01X3365754Y727202D01*
G01X3362452Y717804D01*
G01X3359404Y711708D01*
G01X3353308Y705358D01*
G01X3343910Y702310D01*
G01X3322320Y702310D01*
G01X3395980Y730250D02*
G01X3451606Y730250D01*
G01X3924737Y751797D02*
G01X3921689Y758147D01*
G01X3915339Y764243D01*
G01X3909243Y767291D01*
G01X3896797Y767291D01*
G01X3890701Y764243D01*
G01X3884351Y758147D01*
G01X3881303Y751797D01*
G01X3878255Y742653D01*
G01X3878255Y727159D01*
G01X3881303Y717761D01*
G01X3884351Y711665D01*
G01X3890701Y705315D01*
G01X3896797Y702267D01*
G01X3909243Y702267D01*
G01X3915339Y705315D01*
G01X3921689Y711665D01*
G01X3924737Y717761D01*
G01X3924737Y727159D01*
G01X3909243Y727159D02*
G01X3924737Y727159D01*
G01X3954963Y767291D02*
G01X3954963Y702267D01*
G01X3954963Y767291D02*
G01X3998143Y702267D01*
G01X3998143Y767291D02*
G01X3998143Y702267D01*
G01X4028369Y767291D02*
G01X4028369Y702267D01*
G01X4028369Y767291D02*
G01X4049959Y767291D01*
G01X4059103Y764243D01*
G01X4065453Y758147D01*
G01X4068501Y751797D01*
G01X4071549Y742653D01*
G01X4071549Y727159D01*
G01X4068501Y717761D01*
G01X4065453Y711665D01*
G01X4059103Y705315D01*
G01X4049959Y702267D01*
G01X4028369Y702267D01*
G01X2941320Y767334D02*
G01X2941320Y702310D01*
G01X2941320Y767334D02*
G01X2966212Y702310D01*
G01X2990850Y767334D02*
G01X2966212Y702310D01*
G01X2990850Y767334D02*
G01X2990850Y702310D01*
G01X3039618Y767334D02*
G01X3033268Y764286D01*
G01X3027172Y758190D01*
G01X3024124Y751840D01*
G01X3021076Y742696D01*
G01X3021076Y727202D01*
G01X3024124Y717804D01*
G01X3027172Y711708D01*
G01X3033268Y705358D01*
G01X3039618Y702310D01*
G01X3051810Y702310D01*
G01X3058160Y705358D01*
G01X3064256Y711708D01*
G01X3067304Y717804D01*
G01X3070606Y727202D01*
G01X3070606Y742696D01*
G01X3067304Y751840D01*
G01X3064256Y758190D01*
G01X3058160Y764286D01*
G01X3051810Y767334D01*
G01X3039618Y767334D01*
G01X3100832Y767334D02*
G01X3100832Y702310D01*
G01X3100832Y767334D02*
G01X3122422Y767334D01*
G01X3131566Y764286D01*
G01X3137916Y758190D01*
G01X3140964Y751840D01*
G01X3144012Y742696D01*
G01X3144012Y727202D01*
G01X3140964Y717804D01*
G01X3137916Y711708D01*
G01X3131566Y705358D01*
G01X3122422Y702310D01*
G01X3100832Y702310D01*
G01X3174238Y767334D02*
G01X3174238Y702310D01*
G01X3174238Y767334D02*
G01X3214370Y767334D01*
G01X3174238Y736346D02*
G01X3198876Y736346D01*
G01X3174238Y702310D02*
G01X3214370Y702310D01*
G01X3836162Y-299466D02*
G01X3830066Y-302514D01*
G01X3823716Y-308610D01*
G01X3820668Y-314960D01*
G01X3817620Y-324104D01*
G01X3817620Y-339598D01*
G01X3820668Y-348996D01*
G01X3823716Y-355092D01*
G01X3830066Y-361442D01*
G01X3836162Y-364490D01*
G01X3848608Y-364490D01*
G01X3854704Y-361442D01*
G01X3861054Y-355092D01*
G01X3864102Y-348996D01*
G01X3867150Y-339598D01*
G01X3867150Y-324104D01*
G01X3864102Y-314960D01*
G01X3861054Y-308610D01*
G01X3854704Y-302514D01*
G01X3848608Y-299466D01*
G01X3836162Y-299466D01*
G01X3845560Y-352044D02*
G01X3864102Y-370586D01*
G01X3897376Y-311912D02*
G01X3903472Y-308610D01*
G01X3912616Y-299466D01*
G01X3912616Y-364490D01*
G01X3784600Y-1113028D02*
G01X3778504Y-1116076D01*
G01X3772154Y-1122172D01*
G01X3769106Y-1128522D01*
G01X3766058Y-1137666D01*
G01X3766058Y-1153160D01*
G01X3769106Y-1162558D01*
G01X3772154Y-1168654D01*
G01X3778504Y-1175004D01*
G01X3784600Y-1178052D01*
G01X3797046Y-1178052D01*
G01X3803142Y-1175004D01*
G01X3809492Y-1168654D01*
G01X3812540Y-1162558D01*
G01X3815588Y-1153160D01*
G01X3815588Y-1137666D01*
G01X3812540Y-1128522D01*
G01X3809492Y-1122172D01*
G01X3803142Y-1116076D01*
G01X3797046Y-1113028D01*
G01X3784600Y-1113028D01*
G01X3793998Y-1165606D02*
G01X3812540Y-1184148D01*
G01X3876548Y-1113028D02*
G01X3845814Y-1156208D01*
G01X3892042Y-1156208D01*
G01X3876548Y-1113028D02*
G01X3876548Y-1178052D01*
G01X3786124Y-1937004D02*
G01X3780028Y-1940052D01*
G01X3773678Y-1946148D01*
G01X3770630Y-1952498D01*
G01X3767582Y-1961642D01*
G01X3767582Y-1977136D01*
G01X3770630Y-1986534D01*
G01X3773678Y-1992630D01*
G01X3780028Y-1998980D01*
G01X3786124Y-2002028D01*
G01X3798570Y-2002028D01*
G01X3804666Y-1998980D01*
G01X3811016Y-1992630D01*
G01X3814064Y-1986534D01*
G01X3817112Y-1977136D01*
G01X3817112Y-1961642D01*
G01X3814064Y-1952498D01*
G01X3811016Y-1946148D01*
G01X3804666Y-1940052D01*
G01X3798570Y-1937004D01*
G01X3786124Y-1937004D01*
G01X3795522Y-1989582D02*
G01X3814064Y-2008124D01*
G01X3884422Y-1937004D02*
G01X3853434Y-1937004D01*
G01X3850386Y-1964690D01*
G01X3853434Y-1961642D01*
G01X3862578Y-1958594D01*
G01X3871976Y-1958594D01*
G01X3881374Y-1961642D01*
G01X3887470Y-1967992D01*
G01X3890518Y-1977136D01*
G01X3890518Y-1983486D01*
G01X3887470Y-1992630D01*
G01X3881374Y-1998980D01*
G01X3871976Y-2002028D01*
G01X3862578Y-2002028D01*
G01X3853434Y-1998980D01*
G01X3850386Y-1995678D01*
G01X3847338Y-1989582D01*
G01X4373880Y-5618734D02*
G01X4373880Y-5553710D01*
G01X4373880Y-5618734D02*
G01X4345940Y-5618734D01*
G01X4336796Y-5615686D01*
G01X4333748Y-5612638D01*
G01X4330446Y-5606288D01*
G01X4330446Y-5600192D01*
G01X4333748Y-5594096D01*
G01X4336796Y-5591048D01*
G01X4345940Y-5587746D01*
G01X4373880Y-5587746D01*
G01X4352290Y-5587746D02*
G01X4330446Y-5553710D01*
G01X4300220Y-5606288D02*
G01X4294124Y-5609590D01*
G01X4284980Y-5618734D01*
G01X4284980Y-5553710D01*
G01X2738120Y-4863739D02*
G01X2738120Y-4928763D01*
G01X2738120Y-4863739D02*
G01X2766060Y-4863739D01*
G01X2775204Y-4866787D01*
G01X2778252Y-4869835D01*
G01X2781554Y-4876185D01*
G01X2781554Y-4882281D01*
G01X2778252Y-4888377D01*
G01X2775204Y-4891425D01*
G01X2766060Y-4894727D01*
G01X2738120Y-4894727D01*
G01X2759710Y-4894727D02*
G01X2781554Y-4928763D01*
G01X2848864Y-4863739D02*
G01X2817876Y-4863739D01*
G01X2814828Y-4891425D01*
G01X2817876Y-4888377D01*
G01X2827020Y-4885329D01*
G01X2836418Y-4885329D01*
G01X2845816Y-4888377D01*
G01X2851912Y-4894727D01*
G01X2854960Y-4903871D01*
G01X2854960Y-4910221D01*
G01X2851912Y-4919365D01*
G01X2845816Y-4925715D01*
G01X2836418Y-4928763D01*
G01X2827020Y-4928763D01*
G01X2817876Y-4925715D01*
G01X2814828Y-4922413D01*
G01X2811780Y-4916317D01*
G01X2750820Y-5160813D02*
G01X2750820Y-5225837D01*
G01X2750820Y-5160813D02*
G01X2778760Y-5160813D01*
G01X2787904Y-5163861D01*
G01X2790952Y-5166909D01*
G01X2794254Y-5173259D01*
G01X2794254Y-5179355D01*
G01X2790952Y-5185451D01*
G01X2787904Y-5188499D01*
G01X2778760Y-5191801D01*
G01X2750820Y-5191801D01*
G01X2772410Y-5191801D02*
G01X2794254Y-5225837D01*
G01X2861564Y-5169957D02*
G01X2858516Y-5163861D01*
G01X2849118Y-5160813D01*
G01X2843022Y-5160813D01*
G01X2833624Y-5163861D01*
G01X2827528Y-5173259D01*
G01X2824480Y-5188499D01*
G01X2824480Y-5203993D01*
G01X2827528Y-5216439D01*
G01X2833624Y-5222789D01*
G01X2843022Y-5225837D01*
G01X2846070Y-5225837D01*
G01X2855214Y-5222789D01*
G01X2861564Y-5216439D01*
G01X2864612Y-5207295D01*
G01X2864612Y-5203993D01*
G01X2861564Y-5194849D01*
G01X2855214Y-5188499D01*
G01X2846070Y-5185451D01*
G01X2843022Y-5185451D01*
G01X2833624Y-5188499D01*
G01X2827528Y-5194849D01*
G01X2824480Y-5203993D01*
G01X3599180Y-449834D02*
G01X3599180Y-384810D01*
G01X3599180Y-449834D02*
G01X3571240Y-449834D01*
G01X3562096Y-446786D01*
G01X3559048Y-443738D01*
G01X3555746Y-437388D01*
G01X3555746Y-431292D01*
G01X3559048Y-425196D01*
G01X3562096Y-422148D01*
G01X3571240Y-418846D01*
G01X3599180Y-418846D01*
G01X3577590Y-418846D02*
G01X3555746Y-384810D01*
G01X3525520Y-437388D02*
G01X3519424Y-440690D01*
G01X3510280Y-449834D01*
G01X3510280Y-384810D01*
G01X3461512Y-449834D02*
G01X3470910Y-446786D01*
G01X3477006Y-437388D01*
G01X3480054Y-422148D01*
G01X3480054Y-412750D01*
G01X3477006Y-397256D01*
G01X3470910Y-387858D01*
G01X3461512Y-384810D01*
G01X3455416Y-384810D01*
G01X3446018Y-387858D01*
G01X3439922Y-397256D01*
G01X3436874Y-412750D01*
G01X3436874Y-422148D01*
G01X3439922Y-437388D01*
G01X3446018Y-446786D01*
G01X3455416Y-449834D01*
G01X3461512Y-449834D01*
G01X3573780Y-1199134D02*
G01X3573780Y-1134110D01*
G01X3573780Y-1199134D02*
G01X3545840Y-1199134D01*
G01X3536696Y-1196086D01*
G01X3533648Y-1193038D01*
G01X3530346Y-1186688D01*
G01X3530346Y-1180592D01*
G01X3533648Y-1174496D01*
G01X3536696Y-1171448D01*
G01X3545840Y-1168146D01*
G01X3573780Y-1168146D01*
G01X3552190Y-1168146D02*
G01X3530346Y-1134110D01*
G01X3500120Y-1186688D02*
G01X3494024Y-1189990D01*
G01X3484880Y-1199134D01*
G01X3484880Y-1134110D01*
G01X3454654Y-1186688D02*
G01X3448558Y-1189990D01*
G01X3439414Y-1199134D01*
G01X3439414Y-1134110D01*
G01X3561080Y-2088134D02*
G01X3561080Y-2023110D01*
G01X3561080Y-2088134D02*
G01X3533140Y-2088134D01*
G01X3523996Y-2085086D01*
G01X3520948Y-2082038D01*
G01X3517646Y-2075688D01*
G01X3517646Y-2069592D01*
G01X3520948Y-2063496D01*
G01X3523996Y-2060448D01*
G01X3533140Y-2057146D01*
G01X3561080Y-2057146D01*
G01X3539490Y-2057146D02*
G01X3517646Y-2023110D01*
G01X3487420Y-2075688D02*
G01X3481324Y-2078990D01*
G01X3472180Y-2088134D01*
G01X3472180Y-2023110D01*
G01X3438906Y-2072640D02*
G01X3438906Y-2075688D01*
G01X3435858Y-2082038D01*
G01X3432810Y-2085086D01*
G01X3426714Y-2088134D01*
G01X3414268Y-2088134D01*
G01X3407918Y-2085086D01*
G01X3404870Y-2082038D01*
G01X3401822Y-2075688D01*
G01X3401822Y-2069592D01*
G01X3404870Y-2063496D01*
G01X3411220Y-2054098D01*
G01X3441954Y-2023110D01*
G01X3398774Y-2023110D01*
G01X3526790Y101346D02*
G01X3532886Y107696D01*
G01X3535934Y116840D01*
G01X3535934Y129286D01*
G01X3532886Y138684D01*
G01X3526790Y144780D01*
G01X3520440Y144780D01*
G01X3514344Y141732D01*
G01X3511296Y138684D01*
G01X3508248Y132334D01*
G01X3501898Y113792D01*
G01X3498850Y107696D01*
G01X3495802Y104648D01*
G01X3489452Y101346D01*
G01X3480308Y101346D01*
G01X3473958Y107696D01*
G01X3470910Y116840D01*
G01X3470910Y129286D01*
G01X3473958Y138684D01*
G01X3480308Y144780D01*
G01X3535934Y71120D02*
G01X3470910Y55880D01*
G01X3535934Y40386D02*
G01X3470910Y55880D01*
G01X3535934Y40386D02*
G01X3470910Y24892D01*
G01X3535934Y9398D02*
G01X3470910Y24892D01*
G01X3523488Y-20828D02*
G01X3526790Y-26924D01*
G01X3535934Y-36068D01*
G01X3470910Y-36068D01*
G01X3546602Y-2318766D02*
G01X3552698Y-2312416D01*
G01X3555746Y-2303272D01*
G01X3555746Y-2290826D01*
G01X3552698Y-2281428D01*
G01X3546602Y-2275332D01*
G01X3540252Y-2275332D01*
G01X3534156Y-2278380D01*
G01X3531108Y-2281428D01*
G01X3528060Y-2287778D01*
G01X3521710Y-2306320D01*
G01X3518662Y-2312416D01*
G01X3515614Y-2315464D01*
G01X3509264Y-2318766D01*
G01X3500120Y-2318766D01*
G01X3493770Y-2312416D01*
G01X3490722Y-2303272D01*
G01X3490722Y-2290826D01*
G01X3493770Y-2281428D01*
G01X3500120Y-2275332D01*
G01X3555746Y-2348992D02*
G01X3490722Y-2364232D01*
G01X3555746Y-2379726D02*
G01X3490722Y-2364232D01*
G01X3555746Y-2379726D02*
G01X3490722Y-2395220D01*
G01X3555746Y-2410714D02*
G01X3490722Y-2395220D01*
G01X3555746Y-2471674D02*
G01X3512566Y-2440940D01*
G01X3512566Y-2487168D01*
G01X3555746Y-2471674D02*
G01X3490722Y-2471674D01*
G01X3522726Y-681990D02*
G01X3528822Y-675640D01*
G01X3531870Y-666496D01*
G01X3531870Y-654050D01*
G01X3528822Y-644652D01*
G01X3522726Y-638556D01*
G01X3516376Y-638556D01*
G01X3510280Y-641604D01*
G01X3507232Y-644652D01*
G01X3504184Y-651002D01*
G01X3497834Y-669544D01*
G01X3494786Y-675640D01*
G01X3491738Y-678688D01*
G01X3485388Y-681990D01*
G01X3476244Y-681990D01*
G01X3469894Y-675640D01*
G01X3466846Y-666496D01*
G01X3466846Y-654050D01*
G01X3469894Y-644652D01*
G01X3476244Y-638556D01*
G01X3531870Y-712216D02*
G01X3466846Y-727456D01*
G01X3531870Y-742950D02*
G01X3466846Y-727456D01*
G01X3531870Y-742950D02*
G01X3466846Y-758444D01*
G01X3531870Y-773938D02*
G01X3466846Y-758444D01*
G01X3531870Y-841248D02*
G01X3531870Y-810260D01*
G01X3504184Y-807212D01*
G01X3507232Y-810260D01*
G01X3510280Y-819404D01*
G01X3510280Y-828802D01*
G01X3507232Y-838200D01*
G01X3500882Y-844296D01*
G01X3491738Y-847344D01*
G01X3485388Y-847344D01*
G01X3476244Y-844296D01*
G01X3469894Y-838200D01*
G01X3466846Y-828802D01*
G01X3466846Y-819404D01*
G01X3469894Y-810260D01*
G01X3473196Y-807212D01*
G01X3479292Y-804164D01*
G01X3524250Y-1521714D02*
G01X3530346Y-1515364D01*
G01X3533394Y-1506220D01*
G01X3533394Y-1493774D01*
G01X3530346Y-1484376D01*
G01X3524250Y-1478280D01*
G01X3517900Y-1478280D01*
G01X3511804Y-1481328D01*
G01X3508756Y-1484376D01*
G01X3505708Y-1490726D01*
G01X3499358Y-1509268D01*
G01X3496310Y-1515364D01*
G01X3493262Y-1518412D01*
G01X3486912Y-1521714D01*
G01X3477768Y-1521714D01*
G01X3471418Y-1515364D01*
G01X3468370Y-1506220D01*
G01X3468370Y-1493774D01*
G01X3471418Y-1484376D01*
G01X3477768Y-1478280D01*
G01X3533394Y-1551940D02*
G01X3468370Y-1567180D01*
G01X3533394Y-1582674D02*
G01X3468370Y-1567180D01*
G01X3533394Y-1582674D02*
G01X3468370Y-1598168D01*
G01X3533394Y-1613662D02*
G01X3468370Y-1598168D01*
G01X3524250Y-1680972D02*
G01X3530346Y-1677924D01*
G01X3533394Y-1668526D01*
G01X3533394Y-1662430D01*
G01X3530346Y-1653032D01*
G01X3520948Y-1646936D01*
G01X3505708Y-1643888D01*
G01X3490214Y-1643888D01*
G01X3477768Y-1646936D01*
G01X3471418Y-1653032D01*
G01X3468370Y-1662430D01*
G01X3468370Y-1665478D01*
G01X3471418Y-1674622D01*
G01X3477768Y-1680972D01*
G01X3486912Y-1684020D01*
G01X3490214Y-1684020D01*
G01X3499358Y-1680972D01*
G01X3505708Y-1674622D01*
G01X3508756Y-1665478D01*
G01X3508756Y-1662430D01*
G01X3505708Y-1653032D01*
G01X3499358Y-1646936D01*
G01X3490214Y-1643888D01*
G01X2849880Y-5090307D02*
G01X2849880Y-5043825D01*
G01X2846832Y-5034681D01*
G01X2840482Y-5028331D01*
G01X2831338Y-5025283D01*
G01X2824988Y-5025283D01*
G01X2815844Y-5028331D01*
G01X2809748Y-5034681D01*
G01X2806446Y-5043825D01*
G01X2806446Y-5090307D01*
G01X2739136Y-5081163D02*
G01X2742184Y-5087259D01*
G01X2751582Y-5090307D01*
G01X2757678Y-5090307D01*
G01X2767076Y-5087259D01*
G01X2773172Y-5077861D01*
G01X2776220Y-5062621D01*
G01X2776220Y-5047127D01*
G01X2773172Y-5034681D01*
G01X2767076Y-5028331D01*
G01X2757678Y-5025283D01*
G01X2754630Y-5025283D01*
G01X2745486Y-5028331D01*
G01X2739136Y-5034681D01*
G01X2736088Y-5043825D01*
G01X2736088Y-5047127D01*
G01X2739136Y-5056271D01*
G01X2745486Y-5062621D01*
G01X2754630Y-5065669D01*
G01X2757678Y-5065669D01*
G01X2767076Y-5062621D01*
G01X2773172Y-5056271D01*
G01X2776220Y-5047127D01*
G01X2862580Y-5377434D02*
G01X2862580Y-5330952D01*
G01X2859532Y-5321808D01*
G01X2853182Y-5315458D01*
G01X2844038Y-5312410D01*
G01X2837688Y-5312410D01*
G01X2828544Y-5315458D01*
G01X2822448Y-5321808D01*
G01X2819146Y-5330952D01*
G01X2819146Y-5377434D01*
G01X2745740Y-5377434D02*
G01X2776728Y-5312410D01*
G01X2788920Y-5377434D02*
G01X2745740Y-5377434D01*
G01X3246120Y-4668266D02*
G01X3246120Y-4733290D01*
G01X3246120Y-4733290D02*
G01X3283204Y-4733290D01*
G01X3316478Y-4683760D02*
G01X3316478Y-4680712D01*
G01X3319526Y-4674362D01*
G01X3322574Y-4671314D01*
G01X3328670Y-4668266D01*
G01X3341116Y-4668266D01*
G01X3347466Y-4671314D01*
G01X3350514Y-4674362D01*
G01X3353562Y-4680712D01*
G01X3353562Y-4686808D01*
G01X3350514Y-4692904D01*
G01X3344164Y-4702302D01*
G01X3313430Y-4733290D01*
G01X3356610Y-4733290D01*
G01X4556760Y-4848098D02*
G01X4550410Y-4851146D01*
G01X4544314Y-4857496D01*
G01X4541266Y-4863592D01*
G01X4541266Y-4876038D01*
G01X4544314Y-4882134D01*
G01X4550410Y-4888484D01*
G01X4556760Y-4891532D01*
G01X4565904Y-4894580D01*
G01X4581398Y-4894580D01*
G01X4590796Y-4891532D01*
G01X4596892Y-4888484D01*
G01X4603242Y-4882134D01*
G01X4606290Y-4876038D01*
G01X4606290Y-4863592D01*
G01X4603242Y-4857496D01*
G01X4596892Y-4851146D01*
G01X4590796Y-4848098D01*
G01X4556760Y-4814824D02*
G01X4553712Y-4814824D01*
G01X4547362Y-4811776D01*
G01X4544314Y-4808728D01*
G01X4541266Y-4802632D01*
G01X4541266Y-4790186D01*
G01X4544314Y-4783836D01*
G01X4547362Y-4780788D01*
G01X4553712Y-4777740D01*
G01X4559808Y-4777740D01*
G01X4565904Y-4780788D01*
G01X4575302Y-4787138D01*
G01X4606290Y-4817872D01*
G01X4606290Y-4774692D01*
G01X3254502Y-4899660D02*
G01X3251454Y-4893310D01*
G01X3245104Y-4887214D01*
G01X3239008Y-4884166D01*
G01X3226562Y-4884166D01*
G01X3220466Y-4887214D01*
G01X3214116Y-4893310D01*
G01X3211068Y-4899660D01*
G01X3208020Y-4908804D01*
G01X3208020Y-4924298D01*
G01X3211068Y-4933696D01*
G01X3214116Y-4939792D01*
G01X3220466Y-4946142D01*
G01X3226562Y-4949190D01*
G01X3239008Y-4949190D01*
G01X3245104Y-4946142D01*
G01X3251454Y-4939792D01*
G01X3254502Y-4933696D01*
G01X3321812Y-4884166D02*
G01X3290824Y-4884166D01*
G01X3287776Y-4911852D01*
G01X3290824Y-4908804D01*
G01X3299968Y-4905756D01*
G01X3309366Y-4905756D01*
G01X3318764Y-4908804D01*
G01X3324860Y-4915154D01*
G01X3327908Y-4924298D01*
G01X3327908Y-4930648D01*
G01X3324860Y-4939792D01*
G01X3318764Y-4946142D01*
G01X3309366Y-4949190D01*
G01X3299968Y-4949190D01*
G01X3290824Y-4946142D01*
G01X3287776Y-4942840D01*
G01X3284728Y-4936744D01*
G01X3583940Y-5019802D02*
G01X3590290Y-5016754D01*
G01X3596386Y-5010404D01*
G01X3599434Y-5004308D01*
G01X3599434Y-4991862D01*
G01X3596386Y-4985766D01*
G01X3590290Y-4979416D01*
G01X3583940Y-4976368D01*
G01X3574796Y-4973320D01*
G01X3559302Y-4973320D01*
G01X3549904Y-4976368D01*
G01X3543808Y-4979416D01*
G01X3537458Y-4985766D01*
G01X3534410Y-4991862D01*
G01X3534410Y-5004308D01*
G01X3537458Y-5010404D01*
G01X3543808Y-5016754D01*
G01X3549904Y-5019802D01*
G01X3590290Y-5087112D02*
G01X3596386Y-5084064D01*
G01X3599434Y-5074666D01*
G01X3599434Y-5068570D01*
G01X3596386Y-5059172D01*
G01X3586988Y-5053076D01*
G01X3571748Y-5050028D01*
G01X3556254Y-5050028D01*
G01X3543808Y-5053076D01*
G01X3537458Y-5059172D01*
G01X3534410Y-5068570D01*
G01X3534410Y-5071618D01*
G01X3537458Y-5080762D01*
G01X3543808Y-5087112D01*
G01X3552952Y-5090160D01*
G01X3556254Y-5090160D01*
G01X3565398Y-5087112D01*
G01X3571748Y-5080762D01*
G01X3574796Y-5071618D01*
G01X3574796Y-5068570D01*
G01X3571748Y-5059172D01*
G01X3565398Y-5053076D01*
G01X3556254Y-5050028D01*
G01X3254502Y-5077460D02*
G01X3251454Y-5071110D01*
G01X3245104Y-5065014D01*
G01X3239008Y-5061966D01*
G01X3226562Y-5061966D01*
G01X3220466Y-5065014D01*
G01X3214116Y-5071110D01*
G01X3211068Y-5077460D01*
G01X3208020Y-5086604D01*
G01X3208020Y-5102098D01*
G01X3211068Y-5111496D01*
G01X3214116Y-5117592D01*
G01X3220466Y-5123942D01*
G01X3226562Y-5126990D01*
G01X3239008Y-5126990D01*
G01X3245104Y-5123942D01*
G01X3251454Y-5117592D01*
G01X3254502Y-5111496D01*
G01X3284728Y-5074412D02*
G01X3290824Y-5071110D01*
G01X3299968Y-5061966D01*
G01X3299968Y-5126990D01*
G01X3348736Y-5061966D02*
G01X3339338Y-5065014D01*
G01X3333242Y-5074412D01*
G01X3330194Y-5089652D01*
G01X3330194Y-5099050D01*
G01X3333242Y-5114544D01*
G01X3339338Y-5123942D01*
G01X3348736Y-5126990D01*
G01X3354832Y-5126990D01*
G01X3364230Y-5123942D01*
G01X3370326Y-5114544D01*
G01X3373374Y-5099050D01*
G01X3373374Y-5089652D01*
G01X3370326Y-5074412D01*
G01X3364230Y-5065014D01*
G01X3354832Y-5061966D01*
G01X3348736Y-5061966D01*
G01X3053334Y-5811520D02*
G01X2988310Y-5811520D01*
G01X3053334Y-5811520D02*
G01X3053334Y-5839460D01*
G01X3050286Y-5848604D01*
G01X3047238Y-5851652D01*
G01X3040888Y-5854954D01*
G01X3034792Y-5854954D01*
G01X3028696Y-5851652D01*
G01X3025648Y-5848604D01*
G01X3022346Y-5839460D01*
G01X3022346Y-5811520D01*
G01X3022346Y-5833110D02*
G01X2988310Y-5854954D01*
G01X3037840Y-5888228D02*
G01X3040888Y-5888228D01*
G01X3047238Y-5891276D01*
G01X3050286Y-5894324D01*
G01X3053334Y-5900420D01*
G01X3053334Y-5912866D01*
G01X3050286Y-5919216D01*
G01X3047238Y-5922264D01*
G01X3040888Y-5925312D01*
G01X3034792Y-5925312D01*
G01X3028696Y-5922264D01*
G01X3019298Y-5915914D01*
G01X2988310Y-5885180D01*
G01X2988310Y-5928360D01*
G01X3205734Y-5811520D02*
G01X3140710Y-5811520D01*
G01X3205734Y-5811520D02*
G01X3205734Y-5839460D01*
G01X3202686Y-5848604D01*
G01X3199638Y-5851652D01*
G01X3193288Y-5854954D01*
G01X3187192Y-5854954D01*
G01X3181096Y-5851652D01*
G01X3178048Y-5848604D01*
G01X3174746Y-5839460D01*
G01X3174746Y-5811520D01*
G01X3174746Y-5833110D02*
G01X3140710Y-5854954D01*
G01X3205734Y-5891276D02*
G01X3205734Y-5925312D01*
G01X3181096Y-5906770D01*
G01X3181096Y-5915914D01*
G01X3178048Y-5922264D01*
G01X3174746Y-5925312D01*
G01X3165602Y-5928360D01*
G01X3159252Y-5928360D01*
G01X3150108Y-5925312D01*
G01X3143758Y-5919216D01*
G01X3140710Y-5909818D01*
G01X3140710Y-5900420D01*
G01X3143758Y-5891276D01*
G01X3147060Y-5888228D01*
G01X3153156Y-5885180D01*
G01X2862580Y-5529834D02*
G01X2862580Y-5464810D01*
G01X2862580Y-5529834D02*
G01X2834640Y-5529834D01*
G01X2825496Y-5526786D01*
G01X2822448Y-5523738D01*
G01X2819146Y-5517388D01*
G01X2819146Y-5511292D01*
G01X2822448Y-5505196D01*
G01X2825496Y-5502148D01*
G01X2834640Y-5498846D01*
G01X2862580Y-5498846D01*
G01X2840990Y-5498846D02*
G01X2819146Y-5464810D01*
G01X2758186Y-5529834D02*
G01X2788920Y-5486654D01*
G01X2742692Y-5486654D01*
G01X2758186Y-5529834D02*
G01X2758186Y-5464810D01*
G01X2862580Y-5694934D02*
G01X2862580Y-5629910D01*
G01X2862580Y-5694934D02*
G01X2834640Y-5694934D01*
G01X2825496Y-5691886D01*
G01X2822448Y-5688838D01*
G01X2819146Y-5682488D01*
G01X2819146Y-5676392D01*
G01X2822448Y-5670296D01*
G01X2825496Y-5667248D01*
G01X2834640Y-5663946D01*
G01X2862580Y-5663946D01*
G01X2840990Y-5663946D02*
G01X2819146Y-5629910D01*
G01X2773680Y-5694934D02*
G01X2782824Y-5691886D01*
G01X2785872Y-5685790D01*
G01X2785872Y-5679440D01*
G01X2782824Y-5673344D01*
G01X2776728Y-5670296D01*
G01X2764282Y-5667248D01*
G01X2754884Y-5663946D01*
G01X2748788Y-5657850D01*
G01X2745740Y-5651754D01*
G01X2745740Y-5642356D01*
G01X2748788Y-5636260D01*
G01X2751836Y-5632958D01*
G01X2761234Y-5629910D01*
G01X2773680Y-5629910D01*
G01X2782824Y-5632958D01*
G01X2785872Y-5636260D01*
G01X2788920Y-5642356D01*
G01X2788920Y-5651754D01*
G01X2785872Y-5657850D01*
G01X2779776Y-5663946D01*
G01X2770378Y-5667248D01*
G01X2758186Y-5670296D01*
G01X2751836Y-5673344D01*
G01X2748788Y-5679440D01*
G01X2748788Y-5685790D01*
G01X2751836Y-5691886D01*
G01X2761234Y-5694934D01*
G01X2773680Y-5694934D01*
G01X3535934Y-5811520D02*
G01X3470910Y-5811520D01*
G01X3535934Y-5811520D02*
G01X3535934Y-5839460D01*
G01X3532886Y-5848604D01*
G01X3529838Y-5851652D01*
G01X3523488Y-5854954D01*
G01X3517392Y-5854954D01*
G01X3511296Y-5851652D01*
G01X3508248Y-5848604D01*
G01X3504946Y-5839460D01*
G01X3504946Y-5811520D01*
G01X3504946Y-5833110D02*
G01X3470910Y-5854954D01*
G01X3514344Y-5925312D02*
G01X3504946Y-5922264D01*
G01X3498850Y-5915914D01*
G01X3495802Y-5906770D01*
G01X3495802Y-5903722D01*
G01X3498850Y-5894324D01*
G01X3504946Y-5888228D01*
G01X3514344Y-5885180D01*
G01X3517392Y-5885180D01*
G01X3526790Y-5888228D01*
G01X3532886Y-5894324D01*
G01X3535934Y-5903722D01*
G01X3535934Y-5906770D01*
G01X3532886Y-5915914D01*
G01X3526790Y-5922264D01*
G01X3514344Y-5925312D01*
G01X3498850Y-5925312D01*
G01X3483356Y-5922264D01*
G01X3473958Y-5915914D01*
G01X3470910Y-5906770D01*
G01X3470910Y-5900420D01*
G01X3473958Y-5891276D01*
G01X3480308Y-5888228D01*
G01X4274820Y-5277866D02*
G01X4274820Y-5342890D01*
G01X4274820Y-5342890D02*
G01X4311904Y-5342890D01*
G01X4342130Y-5290312D02*
G01X4348226Y-5287010D01*
G01X4357370Y-5277866D01*
G01X4357370Y-5342890D01*
G01X3093720Y-5290566D02*
G01X3093720Y-5337048D01*
G01X3096768Y-5346192D01*
G01X3103118Y-5352542D01*
G01X3112262Y-5355590D01*
G01X3118612Y-5355590D01*
G01X3127756Y-5352542D01*
G01X3133852Y-5346192D01*
G01X3137154Y-5337048D01*
G01X3137154Y-5290566D01*
G01X3204464Y-5290566D02*
G01X3173476Y-5290566D01*
G01X3170428Y-5318252D01*
G01X3173476Y-5315204D01*
G01X3182620Y-5312156D01*
G01X3192018Y-5312156D01*
G01X3201416Y-5315204D01*
G01X3207512Y-5321554D01*
G01X3210560Y-5330698D01*
G01X3210560Y-5337048D01*
G01X3207512Y-5346192D01*
G01X3201416Y-5352542D01*
G01X3192018Y-5355590D01*
G01X3182620Y-5355590D01*
G01X3173476Y-5352542D01*
G01X3170428Y-5349240D01*
G01X3167380Y-5343144D01*
G01X4261169Y-4958528D02*
G01X4307651Y-4958528D01*
G01X4316795Y-4955480D01*
G01X4323145Y-4949130D01*
G01X4326193Y-4939986D01*
G01X4326193Y-4933636D01*
G01X4323145Y-4924492D01*
G01X4316795Y-4918396D01*
G01X4307651Y-4915094D01*
G01X4261169Y-4915094D01*
G01X4261169Y-4878772D02*
G01X4261169Y-4844736D01*
G01X4285807Y-4863278D01*
G01X4285807Y-4854134D01*
G01X4288855Y-4847784D01*
G01X4292157Y-4844736D01*
G01X4301301Y-4841688D01*
G01X4307651Y-4841688D01*
G01X4316795Y-4844736D01*
G01X4323145Y-4850832D01*
G01X4326193Y-4860230D01*
G01X4326193Y-4869628D01*
G01X4323145Y-4878772D01*
G01X4319843Y-4881820D01*
G01X4313747Y-4884868D01*
G01X3601720Y-6357366D02*
G01X3601720Y-6403848D01*
G01X3604768Y-6412992D01*
G01X3611118Y-6419342D01*
G01X3620262Y-6422390D01*
G01X3626612Y-6422390D01*
G01X3635756Y-6419342D01*
G01X3641852Y-6412992D01*
G01X3645154Y-6403848D01*
G01X3645154Y-6357366D01*
G01X3718560Y-6366510D02*
G01X3712464Y-6360414D01*
G01X3703066Y-6357366D01*
G01X3690620Y-6357366D01*
G01X3681476Y-6360414D01*
G01X3675380Y-6366510D01*
G01X3675380Y-6372860D01*
G01X3678428Y-6378956D01*
G01X3681476Y-6382004D01*
G01X3687572Y-6385052D01*
G01X3706114Y-6391402D01*
G01X3712464Y-6394450D01*
G01X3715512Y-6397498D01*
G01X3718560Y-6403848D01*
G01X3718560Y-6412992D01*
G01X3712464Y-6419342D01*
G01X3703066Y-6422390D01*
G01X3690620Y-6422390D01*
G01X3681476Y-6419342D01*
G01X3675380Y-6412992D01*
G01X3748786Y-6357366D02*
G01X3748786Y-6422390D01*
G01X3748786Y-6357366D02*
G01X3776472Y-6357366D01*
G01X3785870Y-6360414D01*
G01X3788918Y-6363462D01*
G01X3791966Y-6369812D01*
G01X3791966Y-6375908D01*
G01X3788918Y-6382004D01*
G01X3785870Y-6385052D01*
G01X3776472Y-6388354D01*
G01X3748786Y-6388354D02*
G01X3776472Y-6388354D01*
G01X3785870Y-6391402D01*
G01X3788918Y-6394450D01*
G01X3791966Y-6400546D01*
G01X3791966Y-6409944D01*
G01X3788918Y-6416040D01*
G01X3785870Y-6419342D01*
G01X3776472Y-6422390D01*
G01X3748786Y-6422390D01*
G01X3822192Y-6369812D02*
G01X3828288Y-6366510D01*
G01X3837432Y-6357366D01*
G01X3837432Y-6422390D01*
G01X3700780Y-3612134D02*
G01X3700780Y-3565652D01*
G01X3697732Y-3556508D01*
G01X3691382Y-3550158D01*
G01X3682238Y-3547110D01*
G01X3675888Y-3547110D01*
G01X3666744Y-3550158D01*
G01X3660648Y-3556508D01*
G01X3657346Y-3565652D01*
G01X3657346Y-3612134D01*
G01X3596386Y-3612134D02*
G01X3627120Y-3568954D01*
G01X3580892Y-3568954D01*
G01X3596386Y-3612134D02*
G01X3596386Y-3547110D01*
G01X3622040Y-5375402D02*
G01X3628390Y-5372354D01*
G01X3634486Y-5366004D01*
G01X3637534Y-5359908D01*
G01X3637534Y-5347462D01*
G01X3634486Y-5341366D01*
G01X3628390Y-5335016D01*
G01X3622040Y-5331968D01*
G01X3612896Y-5328920D01*
G01X3597402Y-5328920D01*
G01X3588004Y-5331968D01*
G01X3581908Y-5335016D01*
G01X3575558Y-5341366D01*
G01X3572510Y-5347462D01*
G01X3572510Y-5359908D01*
G01X3575558Y-5366004D01*
G01X3581908Y-5372354D01*
G01X3588004Y-5375402D01*
G01X3625088Y-5405628D02*
G01X3628390Y-5411724D01*
G01X3637534Y-5420868D01*
G01X3572510Y-5420868D01*
G36*
G01X2693554Y85206D02*
G01X2695402Y84282D01*
G01X2700020Y82434D01*
G01X2705562Y80587D01*
G01X2710180Y78740D01*
G01X2714336Y77354D01*
G01X2721726Y74584D01*
G01X2725882Y73198D01*
G01X2730500Y71351D01*
G01X2736042Y69504D01*
G01X2740660Y67656D01*
G01X2744816Y66271D01*
G01X2759594Y60729D01*
G01X2763751Y59344D01*
G01X2768369Y57496D01*
G01X2773911Y55649D01*
G01X2778529Y53802D01*
G01X2782686Y52416D01*
G01X2790074Y49646D01*
G01X2794231Y48260D01*
G01X2798849Y46413D01*
G01X2804391Y44566D01*
G01X2809009Y42718D01*
G01X2813166Y41333D01*
G01X2820554Y38562D01*
G01X2824711Y37176D01*
G01X2829329Y35329D01*
G01X2834871Y33482D01*
G01X2839489Y31634D01*
G01X2843646Y30249D01*
G01X2851034Y27478D01*
G01X2855191Y26093D01*
G01X2859809Y24246D01*
G01X2865351Y22398D01*
G01X2869969Y20551D01*
G01X2874126Y19166D01*
G01X2881514Y16394D01*
G01X2885671Y15009D01*
G01X2890289Y13162D01*
G01X2895831Y11314D01*
G01X2900449Y9467D01*
G01X2904606Y8082D01*
G01X2911994Y5311D01*
G01X2914304Y4849D01*
G01X2914304Y-13624D01*
G01X2913842Y-33482D01*
G01X2910609Y-35791D01*
G01X2905991Y-37638D01*
G01X2901834Y-39024D01*
G01X2894446Y-41794D01*
G01X2890289Y-43180D01*
G01X2885671Y-45027D01*
G01X2880129Y-46874D01*
G01X2875511Y-48722D01*
G01X2871354Y-50107D01*
G01X2863966Y-52878D01*
G01X2859809Y-54264D01*
G01X2855191Y-56111D01*
G01X2849649Y-57958D01*
G01X2845031Y-59806D01*
G01X2840874Y-61191D01*
G01X2833486Y-63962D01*
G01X2829329Y-65347D01*
G01X2821940Y-68118D01*
G01X2817322Y-69966D01*
G01X2811780Y-71813D01*
G01X2807162Y-73660D01*
G01X2803006Y-75046D01*
G01X2795616Y-77816D01*
G01X2791460Y-79202D01*
G01X2786842Y-81049D01*
G01X2781300Y-82896D01*
G01X2776682Y-84744D01*
G01X2772526Y-86129D01*
G01X2765136Y-88900D01*
G01X2760980Y-90286D01*
G01X2756362Y-92133D01*
G01X2750820Y-93980D01*
G01X2746202Y-95827D01*
G01X2742046Y-97213D01*
G01X2734656Y-99984D01*
G01X2730500Y-101369D01*
G01X2725882Y-103216D01*
G01X2720340Y-105064D01*
G01X2715722Y-106911D01*
G01X2711566Y-108296D01*
G01X2704176Y-111067D01*
G01X2695864Y-113838D01*
G01X2693554Y-114300D01*
G01X2693554Y-100907D01*
G01X2694016Y-85206D01*
G01X2694940Y-83358D01*
G01X2696787Y-82434D01*
G01X2704176Y-79664D01*
G01X2712489Y-76893D01*
G01X2719878Y-74122D01*
G01X2732347Y-69966D01*
G01X2739736Y-67194D01*
G01X2752206Y-63038D01*
G01X2754514Y-62576D01*
G01X2754514Y-15471D01*
G01X2754506Y-14547D01*
G01X2780376Y-14547D01*
G01X2780376Y-52416D01*
G01X2782686Y-51954D01*
G01X2786842Y-50569D01*
G01X2791460Y-48722D01*
G01X2797002Y-46874D01*
G01X2807162Y-43180D01*
G01X2812704Y-41333D01*
G01X2817322Y-39486D01*
G01X2825634Y-36714D01*
G01X2830253Y-34867D01*
G01X2835794Y-33020D01*
G01X2845954Y-29326D01*
G01X2851496Y-27478D01*
G01X2856114Y-25631D01*
G01X2864427Y-22860D01*
G01X2871816Y-20089D01*
G01X2875973Y-18704D01*
G01X2883362Y-15933D01*
G01X2886133Y-14086D01*
G01X2886017Y-12931D01*
G01X2884747Y-12238D01*
G01X2881053Y-10853D01*
G01X2876896Y-9467D01*
G01X2869507Y-6696D01*
G01X2865351Y-5311D01*
G01X2860733Y-3464D01*
G01X2855191Y-1616D01*
G01X2845031Y2078D01*
G01X2839489Y3926D01*
G01X2834871Y5773D01*
G01X2826558Y8544D01*
G01X2819169Y11314D01*
G01X2815013Y12700D01*
G01X2807624Y15471D01*
G01X2803467Y16856D01*
G01X2796078Y19627D01*
G01X2791922Y21013D01*
G01X2788227Y22398D01*
G01X2784071Y23784D01*
G01X2784071Y23784D01*
G01X2780838Y23784D01*
G01X2780376Y-14547D01*
G01X2754506Y-14547D01*
G01X2754053Y33020D01*
G01X2751744Y35329D01*
G01X2743431Y38100D01*
G01X2736042Y40871D01*
G01X2727729Y43642D01*
G01X2720340Y46413D01*
G01X2712027Y49184D01*
G01X2707409Y51031D01*
G01X2693554Y55649D01*
G01X2693554Y85206D01*
G37*
G36*
G01X2688936Y-198813D02*
G01X2689398Y-186806D01*
G01X2690784Y-182187D01*
G01X2692631Y-176184D01*
G01X2694478Y-172027D01*
G01X2696326Y-168794D01*
G01X2698173Y-166024D01*
G01X2700482Y-162791D01*
G01X2704176Y-158634D01*
G01X2707871Y-155864D01*
G01X2711104Y-153554D01*
G01X2714336Y-151707D01*
G01X2717107Y-150322D01*
G01X2720340Y-148936D01*
G01X2724034Y-147551D01*
G01X2728653Y-146166D01*
G01X2732809Y-145242D01*
G01X2741122Y-144318D01*
G01X2800696Y-143856D01*
G01X2858886Y-143856D01*
G01X2858886Y-171566D01*
G01X2807624Y-171566D01*
G01X2754976Y-172027D01*
G01X2749896Y-172489D01*
G01X2743893Y-172951D01*
G01X2739274Y-173874D01*
G01X2735580Y-174798D01*
G01X2731424Y-176184D01*
G01X2726806Y-178493D01*
G01X2723573Y-180802D01*
G01X2721264Y-183111D01*
G01X2719416Y-185420D01*
G01X2718031Y-188191D01*
G01X2716646Y-191886D01*
G01X2715722Y-195580D01*
G01X2715260Y-198813D01*
G01X2714798Y-202969D01*
G01X2715260Y-208973D01*
G01X2716184Y-215438D01*
G01X2717569Y-221904D01*
G01X2719416Y-227446D01*
G01X2721264Y-232064D01*
G01X2725882Y-240376D01*
G01X2727729Y-244071D01*
G01X2729576Y-246842D01*
G01X2731886Y-250074D01*
G01X2733733Y-253307D01*
G01X2749666Y-254346D01*
G01X2796540Y-254693D01*
G01X2858886Y-254693D01*
G01X2858886Y-282402D01*
G01X2693554Y-282402D01*
G01X2693554Y-254693D01*
G01X2700944Y-254693D01*
G01X2709718Y-254231D01*
G01X2710296Y-253307D01*
G01X2709256Y-251460D01*
G01X2706486Y-247766D01*
G01X2704176Y-244533D01*
G01X2701867Y-240838D01*
G01X2700020Y-238067D01*
G01X2698173Y-234834D01*
G01X2694478Y-227446D01*
G01X2692631Y-222827D01*
G01X2691246Y-219133D01*
G01X2689398Y-210820D01*
G01X2688936Y-198813D01*
G37*
G36*
G01X2689860Y-390929D02*
G01X2690322Y-381231D01*
G01X2691246Y-377998D01*
G01X2692169Y-373380D01*
G01X2693554Y-368300D01*
G01X2695402Y-364144D01*
G01X2698634Y-357678D01*
G01X2700482Y-355369D01*
G01X2706024Y-349827D01*
G01X2710180Y-347056D01*
G01X2713413Y-345209D01*
G01X2719878Y-342438D01*
G01X2724034Y-341053D01*
G01X2728191Y-340129D01*
G01X2734656Y-339206D01*
G01X2785918Y-338744D01*
G01X2835794Y-338744D01*
G01X2835794Y-319347D01*
G01X2858886Y-319347D01*
G01X2858886Y-338744D01*
G01X2906914Y-338744D01*
G01X2906914Y-366453D01*
G01X2858886Y-366453D01*
G01X2858886Y-424642D01*
G01X2849649Y-424642D01*
G01X2838104Y-424180D01*
G01X2835794Y-423718D01*
G01X2835794Y-366453D01*
G01X2791460Y-366453D01*
G01X2742969Y-366914D01*
G01X2736504Y-367838D01*
G01X2732809Y-368762D01*
G01X2729576Y-369686D01*
G01X2726344Y-371071D01*
G01X2723111Y-372918D01*
G01X2720340Y-375227D01*
G01X2718493Y-377536D01*
G01X2716646Y-380769D01*
G01X2715260Y-384464D01*
G01X2714336Y-395547D01*
G01X2714336Y-397856D01*
G01X2714798Y-400627D01*
G01X2715260Y-406631D01*
G01X2716646Y-413558D01*
G01X2718031Y-417714D01*
G01X2718954Y-421871D01*
G01X2719416Y-424642D01*
G01X2695402Y-424642D01*
G01X2694478Y-422333D01*
G01X2693093Y-418638D01*
G01X2691246Y-408478D01*
G01X2690322Y-400166D01*
G01X2689860Y-390929D01*
G37*
G36*
G01X2803929Y-645391D02*
G01X2914304Y-645391D01*
G01X2914304Y-689726D01*
G01X2913842Y-735446D01*
G01X2913380Y-739602D01*
G01X2912918Y-744682D01*
G01X2911071Y-753918D01*
G01X2909686Y-758998D01*
G01X2907838Y-764078D01*
G01X2904144Y-771467D01*
G01X2902296Y-774700D01*
G01X2899987Y-777933D01*
G01X2897216Y-781166D01*
G01X2894907Y-783474D01*
G01X2892136Y-785784D01*
G01X2889366Y-787631D01*
G01X2886594Y-789016D01*
G01X2882900Y-790402D01*
G01X2878744Y-791787D01*
G01X2875049Y-792711D01*
G01X2867660Y-793173D01*
G01X2858424Y-792711D01*
G01X2853806Y-791787D01*
G01X2850111Y-790864D01*
G01X2846416Y-789478D01*
G01X2842722Y-787631D01*
G01X2839489Y-785784D01*
G01X2836718Y-783936D01*
G01X2833947Y-781627D01*
G01X2828406Y-776086D01*
G01X2825634Y-772391D01*
G01X2821016Y-765002D01*
G01X2820093Y-764194D01*
G01X2819169Y-764540D01*
G01X2817784Y-766849D01*
G01X2816860Y-771006D01*
G01X2815474Y-775162D01*
G01X2813627Y-779318D01*
G01X2811318Y-784398D01*
G01X2808547Y-788554D01*
G01X2806238Y-791787D01*
G01X2801620Y-796406D01*
G01X2799311Y-799176D01*
G01X2796540Y-801486D01*
G01X2793307Y-803794D01*
G01X2789151Y-806104D01*
G01X2784994Y-807951D01*
G01X2779914Y-809798D01*
G01X2775296Y-811184D01*
G01X2767907Y-812107D01*
G01X2763289Y-812569D01*
G01X2758671Y-812107D01*
G01X2750358Y-811184D01*
G01X2745278Y-810260D01*
G01X2739736Y-808874D01*
G01X2736042Y-807489D01*
G01X2732809Y-806104D01*
G01X2726344Y-802409D01*
G01X2723573Y-800562D01*
G01X2718954Y-796867D01*
G01X2712027Y-789940D01*
G01X2710180Y-787631D01*
G01X2707871Y-784398D01*
G01X2705562Y-780704D01*
G01X2703714Y-777471D01*
G01X2701867Y-773776D01*
G01X2700020Y-769620D01*
G01X2698173Y-764540D01*
G01X2696787Y-760384D01*
G01X2694940Y-750224D01*
G01X2694016Y-742834D01*
G01X2693641Y-702656D01*
G01X2718493Y-702656D01*
G01X2718954Y-733598D01*
G01X2719878Y-741911D01*
G01X2720802Y-747453D01*
G01X2721726Y-751609D01*
G01X2723111Y-756227D01*
G01X2724496Y-759922D01*
G01X2726344Y-763616D01*
G01X2728653Y-767311D01*
G01X2730962Y-770082D01*
G01X2735580Y-774700D01*
G01X2738813Y-777009D01*
G01X2742969Y-779318D01*
G01X2746664Y-780704D01*
G01X2754053Y-781627D01*
G01X2758209Y-782089D01*
G01X2762366Y-781627D01*
G01X2766060Y-781166D01*
G01X2770678Y-780704D01*
G01X2778067Y-778856D01*
G01X2782224Y-777009D01*
G01X2785918Y-774700D01*
G01X2788689Y-772391D01*
G01X2790536Y-770082D01*
G01X2794231Y-764540D01*
G01X2795616Y-761769D01*
G01X2797002Y-758074D01*
G01X2798387Y-753456D01*
G01X2799311Y-749300D01*
G01X2800234Y-740064D01*
G01X2800696Y-706813D01*
G01X2800696Y-700809D01*
G01X2825634Y-700809D01*
G01X2826096Y-727133D01*
G01X2827020Y-734522D01*
G01X2827944Y-738216D01*
G01X2829329Y-742834D01*
G01X2831176Y-746529D01*
G01X2832562Y-749762D01*
G01X2834409Y-752533D01*
G01X2839027Y-757151D01*
G01X2841798Y-758998D01*
G01X2845954Y-760846D01*
G01X2850111Y-762231D01*
G01X2857500Y-762693D01*
G01X2866736Y-762231D01*
G01X2872740Y-760846D01*
G01X2877820Y-758074D01*
G01X2881976Y-753918D01*
G01X2884747Y-749762D01*
G01X2886594Y-745144D01*
G01X2887980Y-740987D01*
G01X2888904Y-732674D01*
G01X2889366Y-703118D01*
G01X2889366Y-674947D01*
G01X2857962Y-674947D01*
G01X2857962Y-674947D01*
G01X2826096Y-675409D01*
G01X2825634Y-700809D01*
G01X2800696Y-700809D01*
G01X2800696Y-674947D01*
G01X2760056Y-674947D01*
G01X2760056Y-674947D01*
G01X2718954Y-675409D01*
G01X2718493Y-702656D01*
G01X2693641Y-702656D01*
G01X2693554Y-693420D01*
G01X2693554Y-645391D01*
G01X2803929Y-645391D01*
G37*
G36*
G01X2688936Y-522547D02*
G01X2688984Y-521162D01*
G01X2712951Y-521162D01*
G01X2713413Y-531322D01*
G01X2714336Y-535940D01*
G01X2715722Y-540558D01*
G01X2717569Y-544714D01*
G01X2719878Y-548871D01*
G01X2722187Y-552104D01*
G01X2724034Y-554413D01*
G01X2726344Y-556722D01*
G01X2728653Y-558569D01*
G01X2731886Y-560878D01*
G01X2735580Y-563187D01*
G01X2739736Y-565034D01*
G01X2744354Y-566882D01*
G01X2748973Y-568267D01*
G01X2753129Y-569191D01*
G01X2759594Y-570114D01*
G01X2774834Y-570576D01*
G01X2790074Y-570114D01*
G01X2796540Y-569191D01*
G01X2800696Y-568267D01*
G01X2806700Y-566882D01*
G01X2811780Y-565034D01*
G01X2815936Y-563187D01*
G01X2820093Y-560878D01*
G01X2823787Y-558569D01*
G01X2826558Y-556260D01*
G01X2828867Y-553951D01*
G01X2831638Y-550718D01*
G01X2833947Y-547486D01*
G01X2835333Y-544714D01*
G01X2836718Y-541482D01*
G01X2838104Y-537787D01*
G01X2839027Y-534093D01*
G01X2839489Y-524856D01*
G01X2839027Y-513773D01*
G01X2837642Y-507769D01*
G01X2835794Y-502689D01*
G01X2833947Y-498994D01*
G01X2832100Y-495762D01*
G01X2829791Y-492991D01*
G01X2824249Y-487449D01*
G01X2820093Y-484678D01*
G01X2815936Y-482369D01*
G01X2811780Y-480522D01*
G01X2808086Y-479136D01*
G01X2803467Y-477751D01*
G01X2799311Y-476827D01*
G01X2792846Y-475904D01*
G01X2778529Y-475442D01*
G01X2762366Y-475904D01*
G01X2755900Y-476827D01*
G01X2751282Y-477751D01*
G01X2747587Y-478674D01*
G01X2742969Y-480060D01*
G01X2738351Y-481907D01*
G01X2733733Y-484216D01*
G01X2730500Y-486526D01*
G01X2728191Y-487911D01*
G01X2725882Y-489758D01*
G01X2723573Y-492067D01*
G01X2720802Y-495300D01*
G01X2718031Y-499456D01*
G01X2716184Y-503151D01*
G01X2714798Y-506846D01*
G01X2713874Y-510540D01*
G01X2713874Y-510540D01*
G01X2713413Y-512849D01*
G01X2712951Y-521162D01*
G01X2688984Y-521162D01*
G01X2689398Y-509154D01*
G01X2690322Y-506384D01*
G01X2691246Y-502227D01*
G01X2692631Y-496686D01*
G01X2694478Y-492067D01*
G01X2696326Y-487911D01*
G01X2698173Y-484216D01*
G01X2700482Y-480522D01*
G01X2702791Y-477289D01*
G01X2705562Y-474056D01*
G01X2708333Y-470362D01*
G01X2710642Y-468053D01*
G01X2715260Y-464358D01*
G01X2718493Y-462049D01*
G01X2722649Y-459278D01*
G01X2726344Y-456969D01*
G01X2730038Y-455122D01*
G01X2734656Y-453274D01*
G01X2739736Y-451427D01*
G01X2743893Y-450042D01*
G01X2752206Y-448194D01*
G01X2758671Y-447271D01*
G01X2772987Y-446809D01*
G01X2790074Y-447271D01*
G01X2796540Y-448194D01*
G01X2801158Y-449118D01*
G01X2804853Y-450042D01*
G01X2809009Y-450966D01*
G01X2813627Y-452351D01*
G01X2817322Y-453736D01*
G01X2820554Y-455122D01*
G01X2828867Y-459278D01*
G01X2832562Y-461587D01*
G01X2839951Y-467129D01*
G01X2847802Y-474980D01*
G01X2850573Y-478674D01*
G01X2852882Y-481907D01*
G01X2855191Y-485602D01*
G01X2857038Y-489296D01*
G01X2858886Y-493914D01*
G01X2862118Y-503613D01*
G01X2863042Y-510078D01*
G01X2863504Y-521162D01*
G01X2863042Y-533169D01*
G01X2862118Y-538711D01*
G01X2860733Y-545176D01*
G01X2858886Y-551180D01*
G01X2857038Y-555336D01*
G01X2852882Y-563649D01*
G01X2849649Y-568267D01*
G01X2846878Y-571962D01*
G01X2839027Y-579813D01*
G01X2835333Y-582584D01*
G01X2832100Y-584893D01*
G01X2828406Y-587202D01*
G01X2825173Y-589049D01*
G01X2821478Y-590896D01*
G01X2816860Y-592744D01*
G01X2811780Y-594591D01*
G01X2807624Y-595976D01*
G01X2799311Y-597824D01*
G01X2792846Y-598747D01*
G01X2778067Y-599209D01*
G01X2762366Y-598747D01*
G01X2755900Y-597824D01*
G01X2750358Y-596900D01*
G01X2746664Y-595976D01*
G01X2741584Y-594591D01*
G01X2736042Y-592744D01*
G01X2731886Y-590896D01*
G01X2724496Y-587202D01*
G01X2720802Y-584893D01*
G01X2716184Y-581660D01*
G01X2712489Y-578889D01*
G01X2705562Y-571962D01*
G01X2700020Y-565034D01*
G01X2698173Y-561802D01*
G01X2694478Y-554413D01*
G01X2692631Y-549333D01*
G01X2691246Y-545176D01*
G01X2689398Y-535940D01*
G01X2688936Y-522547D01*
G37*
G36*
G01X2776220Y-1019464D02*
G01X2858886Y-1019464D01*
G01X2858886Y-1047173D01*
G01X2850111Y-1047173D01*
G01X2843646Y-1047404D01*
G01X2841798Y-1048096D01*
G01X2843184Y-1050406D01*
G01X2845954Y-1054100D01*
G01X2849187Y-1058718D01*
G01X2851958Y-1063336D01*
G01X2854267Y-1067031D01*
G01X2856114Y-1070726D01*
G01X2857962Y-1074882D01*
G01X2860733Y-1082271D01*
G01X2862118Y-1087351D01*
G01X2863042Y-1091969D01*
G01X2863504Y-1101206D01*
G01X2863042Y-1112289D01*
G01X2862118Y-1116907D01*
G01X2861194Y-1121064D01*
G01X2859809Y-1125682D01*
G01X2857962Y-1129838D01*
G01X2855653Y-1133994D01*
G01X2853344Y-1137689D01*
G01X2851034Y-1140460D01*
G01X2846416Y-1145078D01*
G01X2843184Y-1147387D01*
G01X2839489Y-1149696D01*
G01X2836256Y-1151544D01*
G01X2832562Y-1152929D01*
G01X2824249Y-1155700D01*
G01X2820554Y-1156624D01*
G01X2814089Y-1157547D01*
G01X2753129Y-1158009D01*
G01X2693554Y-1158009D01*
G01X2693554Y-1130300D01*
G01X2745740Y-1130300D01*
G01X2799311Y-1129838D01*
G01X2802544Y-1129376D01*
G01X2808547Y-1128914D01*
G01X2815936Y-1127529D01*
G01X2821478Y-1125682D01*
G01X2825634Y-1123373D01*
G01X2828867Y-1121064D01*
G01X2831176Y-1118754D01*
G01X2833024Y-1115984D01*
G01X2834871Y-1112289D01*
G01X2836256Y-1108594D01*
G01X2837180Y-1102129D01*
G01X2837642Y-1097511D01*
G01X2837180Y-1092893D01*
G01X2836256Y-1085504D01*
G01X2835333Y-1081347D01*
G01X2833947Y-1076729D01*
G01X2832100Y-1072111D01*
G01X2829791Y-1067493D01*
G01X2827482Y-1063336D01*
G01X2825634Y-1059642D01*
G01X2823326Y-1055947D01*
G01X2820554Y-1051791D01*
G01X2818707Y-1048558D01*
G01X2802774Y-1047519D01*
G01X2755900Y-1047173D01*
G01X2693554Y-1047173D01*
G01X2693554Y-1019464D01*
G01X2776220Y-1019464D01*
G37*
G36*
G01X2776220Y-936336D02*
G01X2858886Y-936336D01*
G01X2858886Y-964046D01*
G01X2693554Y-964046D01*
G01X2693554Y-936336D01*
G01X2776220Y-936336D01*
G37*
G36*
G01X2809009Y-852286D02*
G01X2924464Y-852286D01*
G01X2924464Y-879994D01*
G01X2693554Y-879994D01*
G01X2693554Y-852286D01*
G01X2809009Y-852286D01*
G37*
G36*
G01X2901834Y-934489D02*
G01X2916151Y-934489D01*
G01X2916151Y-965893D01*
G01X2887518Y-965893D01*
G01X2887518Y-934489D01*
G01X2901834Y-934489D01*
G37*
G36*
G01X2688936Y-1449878D02*
G01X2689398Y-1439256D01*
G01X2691246Y-1428173D01*
G01X2692169Y-1423554D01*
G01X2693093Y-1419860D01*
G01X2694016Y-1415704D01*
G01X2695402Y-1411086D01*
G01X2698173Y-1402773D01*
G01X2699558Y-1399078D01*
G01X2702329Y-1392613D01*
G01X2706601Y-1391227D01*
G01X2718493Y-1390766D01*
G01X2730154Y-1391112D01*
G01X2733733Y-1392151D01*
G01X2731886Y-1395384D01*
G01X2729114Y-1399540D01*
G01X2726806Y-1403234D01*
G01X2721264Y-1414318D01*
G01X2719416Y-1418936D01*
G01X2717569Y-1424016D01*
G01X2715722Y-1430020D01*
G01X2714336Y-1434638D01*
G01X2713413Y-1441104D01*
G01X2712951Y-1452187D01*
G01X2713413Y-1463271D01*
G01X2714336Y-1468813D01*
G01X2715722Y-1474816D01*
G01X2717569Y-1478973D01*
G01X2719416Y-1482667D01*
G01X2721264Y-1485438D01*
G01X2724496Y-1488671D01*
G01X2728653Y-1490980D01*
G01X2731886Y-1491904D01*
G01X2736966Y-1492366D01*
G01X2743893Y-1491442D01*
G01X2749434Y-1489133D01*
G01X2752667Y-1486362D01*
G01X2754514Y-1484053D01*
G01X2755900Y-1481282D01*
G01X2757286Y-1478049D01*
G01X2758671Y-1474354D01*
G01X2760056Y-1468813D01*
G01X2761442Y-1464194D01*
G01X2766060Y-1441104D01*
G01X2767446Y-1434638D01*
G01X2769293Y-1428634D01*
G01X2770678Y-1424478D01*
G01X2772064Y-1420784D01*
G01X2773911Y-1416166D01*
G01X2776220Y-1412009D01*
G01X2778529Y-1408314D01*
G01X2780838Y-1405544D01*
G01X2782686Y-1403234D01*
G01X2785456Y-1400464D01*
G01X2788689Y-1398154D01*
G01X2791922Y-1396307D01*
G01X2796078Y-1394460D01*
G01X2800696Y-1393074D01*
G01X2804853Y-1392151D01*
G01X2810856Y-1391689D01*
G01X2816860Y-1392151D01*
G01X2821478Y-1393074D01*
G01X2827020Y-1394460D01*
G01X2831638Y-1396307D01*
G01X2835333Y-1398154D01*
G01X2838104Y-1400002D01*
G01X2842722Y-1403696D01*
G01X2847340Y-1408314D01*
G01X2850111Y-1411547D01*
G01X2852882Y-1415704D01*
G01X2855191Y-1419860D01*
G01X2857038Y-1424016D01*
G01X2858886Y-1428634D01*
G01X2860271Y-1432791D01*
G01X2862118Y-1442027D01*
G01X2863042Y-1450340D01*
G01X2863504Y-1455420D01*
G01X2863042Y-1460500D01*
G01X2862118Y-1473431D01*
G01X2859347Y-1488671D01*
G01X2857962Y-1494213D01*
G01X2856576Y-1498369D01*
G01X2855191Y-1502987D01*
G01X2850573Y-1514533D01*
G01X2835794Y-1514533D01*
G01X2824826Y-1514186D01*
G01X2821478Y-1513147D01*
G01X2823326Y-1509453D01*
G01X2825634Y-1506220D01*
G01X2827482Y-1502987D01*
G01X2829329Y-1499293D01*
G01X2831176Y-1495136D01*
G01X2833024Y-1490518D01*
G01X2834871Y-1485438D01*
G01X2836718Y-1478973D01*
G01X2838104Y-1474354D01*
G01X2839027Y-1467889D01*
G01X2839489Y-1459114D01*
G01X2839027Y-1447569D01*
G01X2837642Y-1440180D01*
G01X2835794Y-1434638D01*
G01X2833947Y-1430944D01*
G01X2831638Y-1427249D01*
G01X2827944Y-1423554D01*
G01X2823787Y-1421246D01*
G01X2816860Y-1420322D01*
G01X2809009Y-1421246D01*
G01X2803929Y-1423554D01*
G01X2800696Y-1426326D01*
G01X2798849Y-1428634D01*
G01X2797002Y-1431867D01*
G01X2795154Y-1436024D01*
G01X2793769Y-1440180D01*
G01X2790074Y-1454958D01*
G01X2787304Y-1470198D01*
G01X2785918Y-1477126D01*
G01X2784533Y-1481744D01*
G01X2783609Y-1485900D01*
G01X2782224Y-1490056D01*
G01X2780838Y-1493289D01*
G01X2778991Y-1497446D01*
G01X2774373Y-1504834D01*
G01X2771602Y-1508067D01*
G01X2769293Y-1510376D01*
G01X2764674Y-1514071D01*
G01X2761442Y-1516380D01*
G01X2756362Y-1518227D01*
G01X2752206Y-1519613D01*
G01X2744816Y-1520536D01*
G01X2741584Y-1520998D01*
G01X2738351Y-1520536D01*
G01X2734656Y-1520074D01*
G01X2729576Y-1519151D01*
G01X2724034Y-1517304D01*
G01X2719878Y-1515456D01*
G01X2716184Y-1513147D01*
G01X2712951Y-1510838D01*
G01X2710642Y-1508991D01*
G01X2706024Y-1504373D01*
G01X2703253Y-1501140D01*
G01X2700944Y-1497907D01*
G01X2699096Y-1494674D01*
G01X2695402Y-1487286D01*
G01X2693554Y-1482206D01*
G01X2692169Y-1478049D01*
G01X2690322Y-1467889D01*
G01X2689398Y-1459576D01*
G01X2688936Y-1449878D01*
G37*
G36*
G01X2790074Y-1663238D02*
G01X2803467Y-1663238D01*
G01X2803467Y-1756526D01*
G01X2776682Y-1756526D01*
G01X2776682Y-1663238D01*
G01X2790074Y-1663238D01*
G37*
G36*
G01X2688936Y-1265151D02*
G01X2689398Y-1254529D01*
G01X2690322Y-1250834D01*
G01X2691707Y-1245754D01*
G01X2693554Y-1241136D01*
G01X2695402Y-1236980D01*
G01X2697711Y-1233286D01*
G01X2700944Y-1228667D01*
G01X2703714Y-1224973D01*
G01X2706947Y-1221740D01*
G01X2711566Y-1218046D01*
G01X2716184Y-1214813D01*
G01X2719878Y-1212504D01*
G01X2723573Y-1210656D01*
G01X2727729Y-1208809D01*
G01X2732347Y-1206962D01*
G01X2738351Y-1205114D01*
G01X2742969Y-1203729D01*
G01X2754053Y-1201882D01*
G01X2766060Y-1200958D01*
G01X2772526Y-1200496D01*
G01X2778991Y-1200958D01*
G01X2782686Y-1201420D01*
G01X2789151Y-1201882D01*
G01X2795616Y-1202806D01*
G01X2800234Y-1203729D01*
G01X2807624Y-1205576D01*
G01X2811780Y-1206962D01*
G01X2816398Y-1208809D01*
G01X2820554Y-1210656D01*
G01X2828867Y-1214813D01*
G01X2833024Y-1217584D01*
G01X2836256Y-1219893D01*
G01X2840874Y-1223587D01*
G01X2847802Y-1230514D01*
G01X2849649Y-1232824D01*
G01X2854267Y-1239289D01*
G01X2856114Y-1242522D01*
G01X2857962Y-1246678D01*
G01X2860733Y-1254067D01*
G01X2862118Y-1258686D01*
G01X2863042Y-1262842D01*
G01X2863504Y-1274387D01*
G01X2863042Y-1285933D01*
G01X2862118Y-1291474D01*
G01X2860733Y-1297478D01*
G01X2857962Y-1305791D01*
G01X2856576Y-1309486D01*
G01X2855191Y-1312718D01*
G01X2853806Y-1316413D01*
G01X2853344Y-1318722D01*
G01X2924464Y-1318722D01*
G01X2924464Y-1347354D01*
G01X2693554Y-1347354D01*
G01X2693554Y-1318722D01*
G01X2700944Y-1318722D01*
G01X2708794Y-1317798D01*
G01X2708333Y-1315951D01*
G01X2706486Y-1313642D01*
G01X2703714Y-1309947D01*
G01X2700944Y-1305791D01*
G01X2698634Y-1302096D01*
G01X2696326Y-1297940D01*
G01X2694478Y-1294246D01*
G01X2693093Y-1290551D01*
G01X2691707Y-1286394D01*
G01X2690322Y-1281314D01*
G01X2689398Y-1276696D01*
G01X2689158Y-1270693D01*
G01X2714798Y-1270693D01*
G01X2715722Y-1279006D01*
G01X2716646Y-1285009D01*
G01X2718493Y-1291013D01*
G01X2720340Y-1296093D01*
G01X2726344Y-1308100D01*
G01X2729576Y-1312718D01*
G01X2732347Y-1316874D01*
G01X2745047Y-1318260D01*
G01X2781300Y-1318722D01*
G01X2817553Y-1318260D01*
G01X2830253Y-1316874D01*
G01X2832100Y-1313180D01*
G01X2833947Y-1308562D01*
G01X2835333Y-1304406D01*
G01X2837180Y-1296093D01*
G01X2838104Y-1286856D01*
G01X2838566Y-1280391D01*
G01X2838104Y-1273926D01*
G01X2837642Y-1270693D01*
G01X2836718Y-1265613D01*
G01X2834871Y-1259609D01*
G01X2832562Y-1254529D01*
G01X2827944Y-1248064D01*
G01X2824249Y-1243907D01*
G01X2820554Y-1241136D01*
G01X2817784Y-1239289D01*
G01X2814551Y-1237442D01*
G01X2810856Y-1235594D01*
G01X2806238Y-1233747D01*
G01X2802082Y-1232362D01*
G01X2792846Y-1230514D01*
G01X2780838Y-1229591D01*
G01X2776682Y-1229129D01*
G01X2772526Y-1229591D01*
G01X2759594Y-1230514D01*
G01X2753129Y-1231438D01*
G01X2748973Y-1232362D01*
G01X2743431Y-1233747D01*
G01X2738351Y-1235594D01*
G01X2730962Y-1239289D01*
G01X2727729Y-1241598D01*
G01X2722187Y-1247140D01*
G01X2719416Y-1251296D01*
G01X2717569Y-1255453D01*
G01X2716184Y-1259147D01*
G01X2715722Y-1263766D01*
G01X2715722Y-1263766D01*
G01X2715260Y-1267460D01*
G01X2714798Y-1270693D01*
G01X2689158Y-1270693D01*
G01X2688936Y-1265151D01*
G37*
G36*
G01X2688936Y-2239587D02*
G01X2689398Y-2223424D01*
G01X2691246Y-2214187D01*
G01X2691707Y-2210954D01*
G01X2692631Y-2205874D01*
G01X2694016Y-2201256D01*
G01X2694940Y-2197100D01*
G01X2696326Y-2192482D01*
G01X2697711Y-2188326D01*
G01X2700482Y-2180936D01*
G01X2700944Y-2178627D01*
G01X2732347Y-2178627D01*
G01X2731886Y-2180474D01*
G01X2730500Y-2183707D01*
G01X2726806Y-2190173D01*
G01X2724034Y-2196638D01*
G01X2722187Y-2200794D01*
G01X2717107Y-2216034D01*
G01X2715260Y-2225271D01*
G01X2714336Y-2235431D01*
G01X2713874Y-2239126D01*
G01X2714336Y-2242820D01*
G01X2714798Y-2246976D01*
G01X2715260Y-2252056D01*
G01X2716184Y-2255751D01*
G01X2717107Y-2260369D01*
G01X2718493Y-2264987D01*
G01X2722187Y-2272376D01*
G01X2724034Y-2275147D01*
G01X2727729Y-2279766D01*
G01X2730038Y-2282074D01*
G01X2733733Y-2284846D01*
G01X2738351Y-2287616D01*
G01X2742507Y-2289464D01*
G01X2747126Y-2290849D01*
G01X2751282Y-2291773D01*
G01X2761904Y-2292234D01*
G01X2774373Y-2291311D01*
G01X2780376Y-2289464D01*
G01X2784533Y-2287616D01*
G01X2787766Y-2285769D01*
G01X2790536Y-2283460D01*
G01X2792846Y-2281151D01*
G01X2795616Y-2277918D01*
G01X2798387Y-2273762D01*
G01X2800234Y-2270067D01*
G01X2801620Y-2266373D01*
G01X2803006Y-2262216D01*
G01X2803929Y-2258522D01*
G01X2804853Y-2252056D01*
G01X2805776Y-2240049D01*
G01X2806238Y-2234507D01*
G01X2805776Y-2228966D01*
G01X2804853Y-2215111D01*
G01X2804391Y-2211878D01*
G01X2803929Y-2207722D01*
G01X2801158Y-2191096D01*
G01X2800696Y-2187864D01*
G01X2914304Y-2187864D01*
G01X2914304Y-2320867D01*
G01X2888442Y-2320867D01*
G01X2888442Y-2216496D01*
G01X2858886Y-2216496D01*
G01X2836834Y-2216727D01*
G01X2829791Y-2217420D01*
G01X2830253Y-2224809D01*
G01X2830714Y-2232660D01*
G01X2831176Y-2239126D01*
G01X2829791Y-2258522D01*
G01X2828867Y-2264987D01*
G01X2827944Y-2269606D01*
G01X2826558Y-2276071D01*
G01X2824711Y-2282074D01*
G01X2822864Y-2286231D01*
G01X2818707Y-2294544D01*
G01X2814089Y-2301009D01*
G01X2811318Y-2304242D01*
G01X2806700Y-2308860D01*
G01X2804391Y-2310707D01*
G01X2801620Y-2312554D01*
G01X2797926Y-2314864D01*
G01X2793307Y-2317173D01*
G01X2788689Y-2319020D01*
G01X2784071Y-2320406D01*
G01X2779914Y-2321329D01*
G01X2773449Y-2322253D01*
G01X2765598Y-2322714D01*
G01X2757747Y-2322253D01*
G01X2751282Y-2321329D01*
G01X2746202Y-2320406D01*
G01X2740660Y-2319020D01*
G01X2736504Y-2317634D01*
G01X2732809Y-2316249D01*
G01X2725420Y-2312554D01*
G01X2721726Y-2310246D01*
G01X2717569Y-2307474D01*
G01X2714336Y-2305166D01*
G01X2706486Y-2297314D01*
G01X2703714Y-2293620D01*
G01X2701867Y-2291311D01*
G01X2698173Y-2284846D01*
G01X2696787Y-2282074D01*
G01X2695402Y-2278842D01*
G01X2694016Y-2275147D01*
G01X2692631Y-2270991D01*
G01X2691246Y-2266373D01*
G01X2690322Y-2262216D01*
G01X2689398Y-2255751D01*
G01X2688936Y-2239587D01*
G37*
G36*
G01X2693901Y-1965036D02*
G01X2694940Y-1961111D01*
G01X2698173Y-1959726D01*
G01X2772064Y-1930169D01*
G01X2775758Y-1928784D01*
G01X2778991Y-1927398D01*
G01X2783147Y-1925551D01*
G01X2852420Y-1897842D01*
G01X2856576Y-1896456D01*
G01X2858886Y-1895994D01*
G01X2858886Y-1910311D01*
G01X2858539Y-1921279D01*
G01X2857500Y-1925551D01*
G01X2854267Y-1927398D01*
G01X2846878Y-1930169D01*
G01X2833024Y-1935711D01*
G01X2827944Y-1937558D01*
G01X2818707Y-1941253D01*
G01X2813627Y-1943100D01*
G01X2799773Y-1948642D01*
G01X2792384Y-1951413D01*
G01X2783147Y-1955107D01*
G01X2775758Y-1957878D01*
G01X2766522Y-1961573D01*
G01X2759133Y-1964344D01*
G01X2749896Y-1968038D01*
G01X2738813Y-1972194D01*
G01X2735580Y-1973580D01*
G01X2731886Y-1974966D01*
G01X2729114Y-1976813D01*
G01X2729461Y-1978083D01*
G01X2731424Y-1979122D01*
G01X2740660Y-1982816D01*
G01X2745740Y-1984664D01*
G01X2750358Y-1986511D01*
G01X2755438Y-1988358D01*
G01X2764674Y-1992053D01*
G01X2769754Y-1993900D01*
G01X2774373Y-1995747D01*
G01X2779453Y-1997594D01*
G01X2788689Y-2001289D01*
G01X2793769Y-2003136D01*
G01X2803006Y-2006831D01*
G01X2808086Y-2008678D01*
G01X2817322Y-2012373D01*
G01X2822402Y-2014220D01*
G01X2827020Y-2016067D01*
G01X2832100Y-2017914D01*
G01X2836718Y-2019762D01*
G01X2844107Y-2022533D01*
G01X2853344Y-2026227D01*
G01X2857038Y-2027613D01*
G01X2858424Y-2031538D01*
G01X2858886Y-2042391D01*
G01X2858654Y-2053013D01*
G01X2857962Y-2056246D01*
G01X2854267Y-2054860D01*
G01X2840413Y-2049318D01*
G01X2836718Y-2047933D01*
G01X2833486Y-2046547D01*
G01X2829329Y-2044700D01*
G01X2797002Y-2031769D01*
G01X2793307Y-2030384D01*
G01X2790074Y-2028998D01*
G01X2785918Y-2027151D01*
G01X2753591Y-2014220D01*
G01X2749434Y-2012373D01*
G01X2712489Y-1997594D01*
G01X2708333Y-1995747D01*
G01X2699096Y-1992053D01*
G01X2695402Y-1990667D01*
G01X2694016Y-1986742D01*
G01X2693554Y-1975889D01*
G01X2693901Y-1965036D01*
G37*
G36*
G01X2714336Y-2077027D02*
G01X2735118Y-2077027D01*
G01X2735118Y-2113049D01*
G01X2693554Y-2113049D01*
G01X2693554Y-2077027D01*
G01X2714336Y-2077027D01*
G37*
G04 Text End*

G04 PolygonModel Start*
G54D11*
G01X4134957Y-5349319D02*
G01X4134957Y-5429316D01*
G01X4135003Y-5293274D02*
G01X4135003Y-5213276D01*
G01X3992989Y-5349319D02*
G01X3992989Y-5429316D01*
G01X3993037Y-5293274D02*
G01X3993037Y-5213276D01*
G01X4103975Y-5460291D02*
G01X4023970Y-5460291D01*
G01X4024023Y-5182298D02*
G01X4104025Y-5182298D01*
G01X3993037Y-5213281D02*
G02X4024023Y-5182298I30983J0D01*
G01X4104020Y-5182298D02*
G02X4135003Y-5213281I0J-30983D01*
G01X4134957Y-5429311D02*
G02X4103975Y-5460291I-30983J3D01*
G01X4023977Y-5460291D02*
G02X3992989Y-5429311I-5J30983D01*
G01X3144357Y-5019119D02*
G01X3144357Y-5099116D01*
G01X3144403Y-4963074D02*
G01X3144403Y-4883076D01*
G01X3002389Y-5019119D02*
G01X3002389Y-5099116D01*
G01X3002437Y-4963074D02*
G01X3002437Y-4883076D01*
G01X3113375Y-5130091D02*
G01X3033370Y-5130091D01*
G01X3033423Y-4852098D02*
G01X3113425Y-4852098D01*
G01X3002437Y-4883081D02*
G02X3033423Y-4852098I30983J0D01*
G01X3113420Y-4852098D02*
G02X3144403Y-4883081I0J-30983D01*
G01X3144357Y-5099111D02*
G02X3113375Y-5130091I-30983J3D01*
G01X3033377Y-5130091D02*
G02X3002389Y-5099111I-5J30983D01*
G01X3269143Y-5839381D02*
G01X3269143Y-5759384D01*
G01X3269097Y-5895426D02*
G01X3269097Y-5975424D01*
G01X3411111Y-5839381D02*
G01X3411111Y-5759384D01*
G01X3411063Y-5895426D02*
G01X3411063Y-5975424D01*
G01X3300125Y-5728409D02*
G01X3380130Y-5728409D01*
G01X3380077Y-6006401D02*
G01X3300075Y-6006401D01*
G01X3411063Y-5975419D02*
G02X3380077Y-6006401I-30983J0D01*
G01X3300080Y-6006401D02*
G02X3269097Y-5975419I0J30983D01*
G01X3269143Y-5759389D02*
G02X3300125Y-5728409I30983J-3D01*
G01X3380123Y-5728409D02*
G02X3411111Y-5759389I5J-30983D01*
G54D10*
G01X4013421Y-390121D02*
G01X4013421Y-244879D01*
G01X4013421Y-244879D02*
G01X3910259Y-244879D01*
G01X3708179Y-390121D02*
G01X3708179Y-244879D01*
G01X3708179Y-244879D02*
G01X3811341Y-244879D01*
G01X3906340Y-390121D02*
G01X3815260Y-390121D01*
G01X3988021Y-1202921D02*
G01X3988021Y-1057679D01*
G01X3988021Y-1057679D02*
G01X3884859Y-1057679D01*
G01X3682779Y-1202921D02*
G01X3682779Y-1057679D01*
G01X3682779Y-1057679D02*
G01X3785941Y-1057679D01*
G01X3880940Y-1202921D02*
G01X3789860Y-1202921D01*
G01X3988021Y-2028421D02*
G01X3988021Y-1883179D01*
G01X3988021Y-1883179D02*
G01X3884859Y-1883179D01*
G01X3682779Y-2028421D02*
G01X3682779Y-1883179D01*
G01X3682779Y-1883179D02*
G01X3785941Y-1883179D01*
G01X3880940Y-2028421D02*
G01X3789860Y-2028421D01*
G01X4288079Y-5521940D02*
G01X4192191Y-5521940D01*
G01X4192191Y-5521940D02*
G01X4192191Y-5654060D01*
G01X4192191Y-5654060D02*
G01X4288079Y-5654060D01*
G01X4373321Y-5521940D02*
G01X4469209Y-5521940D01*
G01X4469209Y-5521940D02*
G01X4469209Y-5654060D01*
G01X4469209Y-5654060D02*
G01X4373321Y-5654060D01*
G01X2849321Y-4968260D02*
G01X2945209Y-4968260D01*
G01X2945209Y-4968260D02*
G01X2945209Y-4836140D01*
G01X2945209Y-4836140D02*
G01X2849321Y-4836140D01*
G01X2764079Y-4968260D02*
G01X2668191Y-4968260D01*
G01X2668191Y-4968260D02*
G01X2668191Y-4836140D01*
G01X2668191Y-4836140D02*
G01X2764079Y-4836140D01*
G01X2849321Y-5265334D02*
G01X2945209Y-5265334D01*
G01X2945209Y-5265334D02*
G01X2945209Y-5133213D01*
G01X2945209Y-5133213D02*
G01X2849321Y-5133213D01*
G01X2764079Y-5265334D02*
G01X2668191Y-5265334D01*
G01X2668191Y-5265334D02*
G01X2668191Y-5133213D01*
G01X2668191Y-5133213D02*
G01X2764079Y-5133213D01*
G01X3475279Y-353040D02*
G01X3379391Y-353040D01*
G01X3379391Y-353040D02*
G01X3379391Y-485160D01*
G01X3379391Y-485160D02*
G01X3475279Y-485160D01*
G01X3560521Y-353040D02*
G01X3656409Y-353040D01*
G01X3656409Y-353040D02*
G01X3656409Y-485160D01*
G01X3656409Y-485160D02*
G01X3560521Y-485160D01*
G01X3449879Y-1165840D02*
G01X3353991Y-1165840D01*
G01X3353991Y-1165840D02*
G01X3353991Y-1297960D01*
G01X3353991Y-1297960D02*
G01X3449879Y-1297960D01*
G01X3535121Y-1165840D02*
G01X3631009Y-1165840D01*
G01X3631009Y-1165840D02*
G01X3631009Y-1297960D01*
G01X3631009Y-1297960D02*
G01X3535121Y-1297960D01*
G01X3437179Y-1991340D02*
G01X3341291Y-1991340D01*
G01X3341291Y-1991340D02*
G01X3341291Y-2123460D01*
G01X3341291Y-2123460D02*
G01X3437179Y-2123460D01*
G01X3522421Y-1991340D02*
G01X3618309Y-1991340D01*
G01X3618309Y-1991340D02*
G01X3618309Y-2123460D01*
G01X3618309Y-2123460D02*
G01X3522421Y-2123460D01*
G54D11*
G01X3411898Y227580D02*
G01X4011897Y227580D01*
G01X3813497Y-13621D02*
G01X3610297Y-13621D01*
G01X3610297Y-13621D02*
G01X3610297Y138779D01*
G01X3610297Y138779D02*
G01X3813497Y138779D01*
G01X3813497Y138779D02*
G01X3813497Y-13621D01*
G01X4011897Y-102422D02*
G01X3411898Y-102422D01*
G01X4011897Y-102422D02*
G01X4011897Y-37312D01*
G01X4011897Y158914D02*
G01X4011897Y227580D01*
G01X3411898Y227580D02*
G01X3411898Y154344D01*
G01X3411898Y-32740D02*
G01X3411898Y-102422D01*
G01X3422117Y-2220821D02*
G01X4022115Y-2220821D01*
G01X3823716Y-2462022D02*
G01X3620516Y-2462022D01*
G01X3620516Y-2462022D02*
G01X3620516Y-2309622D01*
G01X3620516Y-2309622D02*
G01X3823716Y-2309622D01*
G01X3823716Y-2309622D02*
G01X3823716Y-2462022D01*
G01X4022115Y-2550823D02*
G01X3422117Y-2550823D01*
G01X4022115Y-2550823D02*
G01X4022115Y-2485713D01*
G01X4022115Y-2289487D02*
G01X4022115Y-2220821D01*
G01X3422117Y-2220821D02*
G01X3422117Y-2294057D01*
G01X3422117Y-2481141D02*
G01X3422117Y-2550823D01*
G01X3411593Y-585220D02*
G01X4011592Y-585220D01*
G01X3813192Y-826421D02*
G01X3609992Y-826421D01*
G01X3609992Y-826421D02*
G01X3609992Y-674021D01*
G01X3609992Y-674021D02*
G01X3813192Y-674021D01*
G01X3813192Y-674021D02*
G01X3813192Y-826421D01*
G01X4011592Y-915222D02*
G01X3411593Y-915222D01*
G01X4011592Y-915222D02*
G01X4011592Y-850112D01*
G01X4011592Y-653886D02*
G01X4011592Y-585220D01*
G01X3411593Y-585220D02*
G01X3411593Y-658456D01*
G01X3411593Y-845540D02*
G01X3411593Y-915222D01*
G01X3415613Y-1410720D02*
G01X4015612Y-1410720D01*
G01X3817213Y-1651921D02*
G01X3614013Y-1651921D01*
G01X3614013Y-1651921D02*
G01X3614013Y-1499521D01*
G01X3614013Y-1499521D02*
G01X3817213Y-1499521D01*
G01X3817213Y-1499521D02*
G01X3817213Y-1651921D01*
G01X4015612Y-1740722D02*
G01X3415613Y-1740722D01*
G01X4015612Y-1740722D02*
G01X4015612Y-1675612D01*
G01X4015612Y-1479386D02*
G01X4015612Y-1410720D01*
G01X3415613Y-1410720D02*
G01X3415613Y-1483956D01*
G01X3415613Y-1671040D02*
G01X3415613Y-1740722D01*
G54D12*
G01X4465071Y-4774687D02*
G01X4465071Y-4729704D01*
G01X4465071Y-4729704D02*
G01X4420088Y-4729704D01*
G01X4120088Y-4774687D02*
G01X4120088Y-4729704D01*
G01X4120088Y-4729704D02*
G01X4165072Y-4729704D01*
G01X4165072Y-5074686D02*
G01X4120088Y-5074686D01*
G01X4120088Y-5074686D02*
G01X4120088Y-5029703D01*
G01X4465071Y-5029703D02*
G01X4465071Y-5074686D01*
G01X4465071Y-5074686D02*
G01X4420088Y-5074686D01*
G54D13*
G01X4140180Y-5109713D02*
G03X4140307Y-5139715I127J-15001D01*
G03X4140434Y-5109713I0J15001D01*
G54D11*
G01X4705294Y-4077218D02*
G01X4857298Y-4077218D01*
G01X4857298Y-4077218D02*
G01X4857298Y-3059702D01*
G01X4857298Y-3059702D02*
G01X4705294Y-3059702D01*
G01X3044185Y-2678702D02*
G01X3026415Y-2678702D01*
G01X3298185Y-2678702D02*
G01X3280413Y-2678702D01*
G01X3552185Y-2678702D02*
G01X3534413Y-2678702D01*
G01X3806185Y-2678702D02*
G01X3788413Y-2678702D01*
G01X4060185Y-2678702D02*
G01X4042413Y-2678702D01*
G01X4314182Y-2678702D02*
G01X4296413Y-2678702D01*
G01X4550410Y-4458698D02*
G01X4705294Y-4458698D01*
G01X4705294Y-4458698D02*
G01X4705294Y-2678702D01*
G01X4705294Y-2678702D02*
G01X4550410Y-2678702D01*
G01X4296413Y-4458698D02*
G01X4314182Y-4458698D01*
G01X4042413Y-4458698D02*
G01X4060185Y-4458698D01*
G01X3788413Y-4458698D02*
G01X3806185Y-4458698D01*
G01X3534413Y-4458698D02*
G01X3552185Y-4458698D01*
G01X3280413Y-4458698D02*
G01X3298185Y-4458698D01*
G01X3026415Y-4458698D02*
G01X3044185Y-4458698D01*
G01X2790187Y-2678702D02*
G01X2635298Y-2678702D01*
G01X2635298Y-2678702D02*
G01X2635298Y-4458698D01*
G01X2635298Y-4458698D02*
G01X2790187Y-4458698D01*
G54D14*
G01X3013404Y-5252384D02*
G01X3013404Y-5212386D01*
G01X3013404Y-5212386D02*
G01X3053836Y-5212399D01*
G01X3013833Y-5592388D02*
G01X3013833Y-5632398D01*
G01X3013833Y-5632398D02*
G01X3053836Y-5632398D01*
G01X3433832Y-5582396D02*
G01X3433832Y-5632398D01*
G01X3433832Y-5632398D02*
G01X3393835Y-5632398D01*
G01X3393401Y-5212386D02*
G01X3433398Y-5212386D01*
G01X3433398Y-5212386D02*
G01X3433398Y-5252384D01*
G54D16*
G01X2774950Y-4993513D02*
G01X2668270Y-4993513D01*
G01X2668270Y-4993513D02*
G01X2668270Y-5112893D01*
G01X2668270Y-5112893D02*
G01X2774950Y-5112893D01*
G54D10*
G01X2917190Y-4993513D02*
G01X2921000Y-4994783D01*
G01X2921000Y-4994783D02*
G01X2945130Y-5018913D01*
G01X2945130Y-5018913D02*
G01X2945130Y-5087493D01*
G01X2945130Y-5087493D02*
G01X2919730Y-5112893D01*
G01X2917190Y-4993513D02*
G01X2815590Y-4993513D01*
G01X2919730Y-5112893D02*
G01X2815590Y-5112893D01*
G54D16*
G01X2774950Y-5285613D02*
G01X2668270Y-5285613D01*
G01X2668270Y-5285613D02*
G01X2668270Y-5404993D01*
G01X2668270Y-5404993D02*
G01X2774950Y-5404993D01*
G54D10*
G01X2917190Y-5285613D02*
G01X2921000Y-5286883D01*
G01X2921000Y-5286883D02*
G01X2945130Y-5311013D01*
G01X2945130Y-5311013D02*
G01X2945130Y-5379593D01*
G01X2945130Y-5379593D02*
G01X2919730Y-5404993D01*
G01X2917190Y-5285613D02*
G01X2815590Y-5285613D01*
G01X2919730Y-5404993D02*
G01X2815590Y-5404993D01*
G54D11*
G01X3901717Y-6175093D02*
G01X3997988Y-6175093D01*
G01X3444217Y-6175093D02*
G01X3540488Y-6175093D01*
G01X3271103Y-6791190D02*
G01X4171102Y-6791190D01*
G01X3271103Y-6716260D02*
G01X4171102Y-6716260D01*
G01X4167637Y-6630068D02*
G01X4171102Y-6630068D01*
G01X3282638Y-6630068D02*
G01X4159565Y-6630068D01*
G01X3271103Y-6630068D02*
G01X3274565Y-6630068D01*
G01X4171102Y-6882293D02*
G01X4171102Y-6630068D01*
G01X3271103Y-6882293D02*
G01X3271103Y-6630068D01*
G01X4171102Y-6882293D02*
G01X3271103Y-6882293D01*
G54D12*
G01X4180700Y-5151300D02*
G01X4480700Y-5151300D01*
G01X4180700Y-5491300D02*
G01X4480700Y-5491300D01*
G01X3265114Y-4611700D02*
G01X3338886Y-4611700D01*
G01X3265114Y-4811700D02*
G01X3338886Y-4811700D01*
G54D10*
G01X3684461Y-5578620D02*
G01X3684461Y-5437619D01*
G01X3503740Y-5437619D02*
G01X3503740Y-5578620D01*
G01X3518980Y-5593860D02*
G01X3669221Y-5593860D01*
G01X3684461Y-5216380D02*
G01X3684461Y-5357381D01*
G01X3503740Y-5357381D02*
G01X3503740Y-5216380D01*
G01X3518980Y-5201140D02*
G01X3669221Y-5201140D01*
G01X3503740Y-5578620D02*
G03X3518980Y-5593860I15240J0D01*
G01X3669221Y-5593860D02*
G03X3684461Y-5578620I0J15240D01*
G01X3503740Y-5216380D02*
G02X3518980Y-5201140I15240J0D01*
G01X3669221Y-5201140D02*
G02X3684461Y-5216380I0J-15240D01*
G54D11*
G01X4642957Y-4866719D02*
G01X4642957Y-4946716D01*
G01X4643003Y-4810674D02*
G01X4643003Y-4730676D01*
G01X4500989Y-4866719D02*
G01X4500989Y-4946716D01*
G01X4501037Y-4810674D02*
G01X4501037Y-4730676D01*
G01X4611975Y-4977691D02*
G01X4531970Y-4977691D01*
G01X4532023Y-4699698D02*
G01X4612025Y-4699698D01*
G01X4501037Y-4730681D02*
G02X4532023Y-4699698I30983J0D01*
G01X4612020Y-4699698D02*
G02X4643003Y-4730681I0J-30983D01*
G01X4642957Y-4946711D02*
G02X4611975Y-4977691I-30983J3D01*
G01X4531977Y-4977691D02*
G02X4500989Y-4946711I-5J30983D01*
G01X3286681Y-4985857D02*
G01X3206684Y-4985857D01*
G01X3342726Y-4985903D02*
G01X3422724Y-4985903D01*
G01X3286681Y-4843889D02*
G01X3206684Y-4843889D01*
G01X3342726Y-4843937D02*
G01X3422724Y-4843937D01*
G01X3175709Y-4954875D02*
G01X3175709Y-4874870D01*
G01X3453702Y-4874923D02*
G01X3453702Y-4954925D01*
G01X3422719Y-4843937D02*
G02X3453702Y-4874923I0J-30983D01*
G01X3453702Y-4954920D02*
G02X3422719Y-4985903I-30983J0D01*
G01X3206689Y-4985857D02*
G02X3175709Y-4954875I3J30983D01*
G01X3175709Y-4874877D02*
G02X3206689Y-4843889I30983J5D01*
G01X3497743Y-5001181D02*
G01X3497743Y-4921184D01*
G01X3497697Y-5057226D02*
G01X3497697Y-5137224D01*
G01X3639711Y-5001181D02*
G01X3639711Y-4921184D01*
G01X3639663Y-5057226D02*
G01X3639663Y-5137224D01*
G01X3528725Y-4890209D02*
G01X3608730Y-4890209D01*
G01X3608677Y-5168201D02*
G01X3528675Y-5168201D01*
G01X3639663Y-5137219D02*
G02X3608677Y-5168201I-30983J0D01*
G01X3528680Y-5168201D02*
G02X3497697Y-5137219I0J30983D01*
G01X3497743Y-4921189D02*
G02X3528725Y-4890209I30983J-3D01*
G01X3608723Y-4890209D02*
G02X3639711Y-4921189I5J-30983D01*
G01X3741257Y-5895419D02*
G01X3741257Y-5975416D01*
G01X3741303Y-5839374D02*
G01X3741303Y-5759376D01*
G01X3599289Y-5895419D02*
G01X3599289Y-5975416D01*
G01X3599337Y-5839374D02*
G01X3599337Y-5759376D01*
G01X3710275Y-6006391D02*
G01X3630270Y-6006391D01*
G01X3630323Y-5728398D02*
G01X3710325Y-5728398D01*
G01X3599337Y-5759381D02*
G02X3630323Y-5728398I30983J0D01*
G01X3710320Y-5728398D02*
G02X3741303Y-5759381I0J-30983D01*
G01X3741257Y-5975411D02*
G02X3710275Y-6006391I-30983J3D01*
G01X3630277Y-6006391D02*
G02X3599289Y-5975411I-5J30983D01*
G01X3286681Y-5163657D02*
G01X3206684Y-5163657D01*
G01X3342726Y-5163703D02*
G01X3422724Y-5163703D01*
G01X3286681Y-5021689D02*
G01X3206684Y-5021689D01*
G01X3342726Y-5021737D02*
G01X3422724Y-5021737D01*
G01X3175709Y-5132675D02*
G01X3175709Y-5052670D01*
G01X3453702Y-5052723D02*
G01X3453702Y-5132725D01*
G01X3422719Y-5021737D02*
G02X3453702Y-5052723I0J-30983D01*
G01X3453702Y-5132720D02*
G02X3422719Y-5163703I-30983J0D01*
G01X3206689Y-5163657D02*
G02X3175709Y-5132675I3J30983D01*
G01X3175709Y-5052677D02*
G02X3206689Y-5021689I30983J5D01*
G54D10*
G01X2956540Y-5910021D02*
G01X2956540Y-6005909D01*
G01X2956540Y-6005909D02*
G01X3088660Y-6005909D01*
G01X3088660Y-6005909D02*
G01X3088660Y-5910021D01*
G01X2956540Y-5824779D02*
G01X2956540Y-5728891D01*
G01X2956540Y-5728891D02*
G01X3088660Y-5728891D01*
G01X3088660Y-5728891D02*
G01X3088660Y-5824779D01*
G01X3108940Y-5910021D02*
G01X3108940Y-6005909D01*
G01X3108940Y-6005909D02*
G01X3241060Y-6005909D01*
G01X3241060Y-6005909D02*
G01X3241060Y-5910021D01*
G01X3108940Y-5824779D02*
G01X3108940Y-5728891D01*
G01X3108940Y-5728891D02*
G01X3241060Y-5728891D01*
G01X3241060Y-5728891D02*
G01X3241060Y-5824779D01*
G01X2764079Y-5433040D02*
G01X2668191Y-5433040D01*
G01X2668191Y-5433040D02*
G01X2668191Y-5565160D01*
G01X2668191Y-5565160D02*
G01X2764079Y-5565160D01*
G01X2849321Y-5433040D02*
G01X2945209Y-5433040D01*
G01X2945209Y-5433040D02*
G01X2945209Y-5565160D01*
G01X2945209Y-5565160D02*
G01X2849321Y-5565160D01*
G01X2764079Y-5598140D02*
G01X2668191Y-5598140D01*
G01X2668191Y-5598140D02*
G01X2668191Y-5730260D01*
G01X2668191Y-5730260D02*
G01X2764079Y-5730260D01*
G01X2849321Y-5598140D02*
G01X2945209Y-5598140D01*
G01X2945209Y-5598140D02*
G01X2945209Y-5730260D01*
G01X2945209Y-5730260D02*
G01X2849321Y-5730260D01*
G01X3439140Y-5910021D02*
G01X3439140Y-6005909D01*
G01X3439140Y-6005909D02*
G01X3571260Y-6005909D01*
G01X3571260Y-6005909D02*
G01X3571260Y-5910021D01*
G01X3439140Y-5824779D02*
G01X3439140Y-5728891D01*
G01X3439140Y-5728891D02*
G01X3571260Y-5728891D01*
G01X3571260Y-5728891D02*
G01X3571260Y-5824779D01*

G04 Circle Start*
G54D11*
G01X2957128Y-5231888D02*
G03X2982528Y-5231888I12700J0D01*
G03X2957128Y-5231888I-12700J0D01*
G04 Circle End*

M02*

