G04 Layer: TopLayer*
G04 EasyEDA Pro v2.2.38.8, 2025-05-13 16:51:06*
G04 Gerber Generator version 0.3*
G04 Scale: 100 percent, Rotated: No, Reflected: No*
G04 Dimensions in millimeters*
G04 Leading zeros omitted, absolute positions, 4 integers and 5 decimals*
%FSLAX45Y45*%
%MOMM*%
%ADD10C,0.254*%
%ADD11R,2.5X2.5*%
%ADD12R,0.9X0.8*%
%ADD13R,0.9X0.8*%
%ADD14R,0.7X1.25001*%
%ADD15R,0.80648X0.86401*%
%ADD16R,0.80648X0.86401*%
%ADD17R,1.9X1.5*%
%ADD18O,0.28001X0.8*%
%ADD19O,0.8092X0.28001*%
%ADD20O,0.8X0.28001*%
%ADD21R,1.7X1.7*%
%ADD22R,1.9X2.99999*%
%ADD23R,2.79999X2.79999*%
%ADD24R,0.29997X0.8*%
%ADD25R,0.8X0.3*%
%ADD26R,0.75001X0.6*%
%ADD27R,0.55001X1.2*%
%ADD28R,0.38001X1.2*%
%ADD29O,1.2X1.5*%
%ADD30O,1.2X1.9*%
%ADD31R,1.3X2.99999*%
%ADD32R,1.0X2.2*%
%ADD33R,1.35001X1.41*%
%ADD34R,0.8X0.9*%
%ADD35R,0.86401X0.80648*%
%ADD36C,0.61*%
%ADD37C,0.508*%
%ADD38C,0.3048*%
%ADD39C,0.381*%
%ADD40C,0.762*%
%ADD41C,0.635*%
G75*


G04 Copper Start*
G36*
G01X3192953Y-6543557D02*
G01X2851115Y-6543557D01*
G01X2866295Y-6529741D01*
G01X2878789Y-6513456D01*
G01X2888201Y-6495215D01*
G01X2894235Y-6475596D01*
G01X2896700Y-6455218D01*
G01X2895517Y-6434727D01*
G01X2890724Y-6414768D01*
G01X2882473Y-6395974D01*
G01X2871024Y-6378937D01*
G01X2856739Y-6364198D01*
G01X2840070Y-6352220D01*
G01X2821543Y-6343384D01*
G01X2801745Y-6337968D01*
G01X2781300Y-6336144D01*
G01X2760855Y-6337968D01*
G01X2741057Y-6343384D01*
G01X2722530Y-6352220D01*
G01X2705861Y-6364198D01*
G01X2691576Y-6378937D01*
G01X2680127Y-6395974D01*
G01X2671876Y-6414768D01*
G01X2667083Y-6434727D01*
G01X2665900Y-6455218D01*
G01X2668365Y-6475596D01*
G01X2674399Y-6495215D01*
G01X2683811Y-6513456D01*
G01X2696305Y-6529741D01*
G01X2711485Y-6543557D01*
G01X2604986Y-6543557D01*
G01X2603754Y-6527800D01*
G01X2603754Y-5455900D01*
G01X2816059Y-5455900D01*
G01X2816059Y-5542300D01*
G01X2818011Y-5552118D01*
G01X2823573Y-5560440D01*
G01X2831895Y-5566002D01*
G01X2841713Y-5567954D01*
G01X2922360Y-5567954D01*
G01X2930018Y-5566785D01*
G01X2936978Y-5563382D01*
G01X2941011Y-5567415D01*
G01X2949309Y-5573712D01*
G01X2958994Y-5577544D01*
G01X2964665Y-5583177D01*
G01X2971793Y-5586791D01*
G01X2979688Y-5588036D01*
G01X3058182Y-5588036D01*
G01X3058182Y-5600446D01*
G01X2937712Y-5600446D01*
G01X2930449Y-5596654D01*
G01X2922360Y-5595346D01*
G01X2841713Y-5595346D01*
G01X2831895Y-5597298D01*
G01X2823573Y-5602860D01*
G01X2818011Y-5611182D01*
G01X2816059Y-5621000D01*
G01X2816059Y-5707400D01*
G01X2818011Y-5717218D01*
G01X2823573Y-5725540D01*
G01X2831895Y-5731102D01*
G01X2841713Y-5733054D01*
G01X2896650Y-5733054D01*
G01X2913146Y-5749550D01*
G01X2913146Y-5843944D01*
G01X2914452Y-5853871D01*
G01X2918284Y-5863121D01*
G01X2924379Y-5871064D01*
G01X2940723Y-5887408D01*
G01X2948666Y-5893503D01*
G01X2957916Y-5897335D01*
G01X2967843Y-5898641D01*
G01X3071653Y-5898641D01*
G01X3079156Y-5903664D01*
G01X3087626Y-5906794D01*
G01X3096592Y-5907856D01*
G01X3380770Y-5907856D01*
G01X3436346Y-5963432D01*
G01X3436346Y-5983060D01*
G01X3438298Y-5992878D01*
G01X3443860Y-6001200D01*
G01X3452182Y-6006761D01*
G01X3462000Y-6008714D01*
G01X3548400Y-6008714D01*
G01X3558218Y-6006761D01*
G01X3566540Y-6001200D01*
G01X3572102Y-5992878D01*
G01X3574054Y-5983060D01*
G01X3574054Y-5902413D01*
G01X3572102Y-5892595D01*
G01X3566540Y-5884273D01*
G01X3558218Y-5878711D01*
G01X3548400Y-5876759D01*
G01X3462000Y-5876759D01*
G01X3458406Y-5877012D01*
G01X3423777Y-5842382D01*
G01X3417704Y-5837439D01*
G01X3410754Y-5833833D01*
G01X3410754Y-5831411D01*
G01X3436346Y-5831411D01*
G01X3436346Y-5832387D01*
G01X3438298Y-5842205D01*
G01X3443860Y-5850527D01*
G01X3452182Y-5856089D01*
G01X3462000Y-5858041D01*
G01X3548400Y-5858041D01*
G01X3558218Y-5856089D01*
G01X3566540Y-5850527D01*
G01X3572102Y-5842205D01*
G01X3574054Y-5832387D01*
G01X3574054Y-5774625D01*
G01X3599646Y-5800217D01*
G01X3599646Y-5837398D01*
G01X3601599Y-5847215D01*
G01X3607160Y-5855538D01*
G01X3615483Y-5861099D01*
G01X3625300Y-5863052D01*
G01X3715300Y-5863052D01*
G01X3724989Y-5861152D01*
G01X3997418Y-5861152D01*
G01X4009856Y-5859927D01*
G01X4021816Y-5856299D01*
G01X4032838Y-5850407D01*
G01X4042499Y-5842478D01*
G01X4096763Y-5788215D01*
G01X4110309Y-5781876D01*
G01X4122005Y-5772556D01*
G01X4131208Y-5760767D01*
G01X4137412Y-5747159D01*
G01X4140275Y-5732481D01*
G01X4139639Y-5717539D01*
G01X4135540Y-5703156D01*
G01X4128203Y-5690124D01*
G01X4118032Y-5679159D01*
G01X4105587Y-5670866D01*
G01X4091552Y-5665700D01*
G01X4076700Y-5663946D01*
G01X4067116Y-5663946D01*
G01X4054678Y-5665171D01*
G01X4042718Y-5668799D01*
G01X4031696Y-5674690D01*
G01X4022035Y-5682619D01*
G01X3971011Y-5733644D01*
G01X3724989Y-5733644D01*
G01X3715300Y-5731744D01*
G01X3693536Y-5731744D01*
G01X3493667Y-5531874D01*
G01X3491640Y-5522401D01*
G01X3493159Y-5517500D01*
G01X3493672Y-5512395D01*
G01X3493672Y-5482395D01*
G01X3493160Y-5477296D01*
G01X3491646Y-5472401D01*
G01X3493285Y-5466849D01*
G01X3500263Y-5462616D01*
G01X3506477Y-5457324D01*
G01X3570147Y-5393654D01*
G01X3661601Y-5393654D01*
G01X3671418Y-5391702D01*
G01X3679741Y-5386141D01*
G01X3685302Y-5377818D01*
G01X3687255Y-5368000D01*
G01X3687255Y-5276547D01*
G01X3962106Y-5001695D01*
G01X3967607Y-5011180D01*
G01X3974846Y-5019415D01*
G01X3974846Y-5200498D01*
G01X3976153Y-5210424D01*
G01X3979984Y-5219675D01*
G01X3986080Y-5227618D01*
G01X3993346Y-5234884D01*
G01X3993346Y-5291298D01*
G01X3995299Y-5301115D01*
G01X4000860Y-5309438D01*
G01X4009183Y-5314999D01*
G01X4019000Y-5316952D01*
G01X4109000Y-5316952D01*
G01X4118817Y-5314999D01*
G01X4127140Y-5309438D01*
G01X4132701Y-5301115D01*
G01X4134654Y-5291298D01*
G01X4134654Y-5289652D01*
G01X4135043Y-5289652D01*
G01X4135043Y-5471300D01*
G01X4136995Y-5481117D01*
G01X4142556Y-5489440D01*
G01X4150879Y-5495001D01*
G01X4160697Y-5496954D01*
G01X4217010Y-5496954D01*
G01X4217010Y-5519146D01*
G01X4215040Y-5519146D01*
G01X4205222Y-5521098D01*
G01X4196900Y-5526660D01*
G01X4191339Y-5534982D01*
G01X4189386Y-5544800D01*
G01X4189386Y-5631200D01*
G01X4191339Y-5641018D01*
G01X4196900Y-5649340D01*
G01X4205222Y-5654902D01*
G01X4215040Y-5656854D01*
G01X4295687Y-5656854D01*
G01X4305505Y-5654902D01*
G01X4313827Y-5649340D01*
G01X4319389Y-5641018D01*
G01X4321341Y-5631200D01*
G01X4321341Y-5544800D01*
G01X4319389Y-5534982D01*
G01X4313827Y-5526660D01*
G01X4305505Y-5521098D01*
G01X4295687Y-5519146D01*
G01X4293718Y-5519146D01*
G01X4293718Y-5496775D01*
G01X4302571Y-5494040D01*
G01X4309875Y-5488338D01*
G01X4314677Y-5480413D01*
G01X4316350Y-5471300D01*
G01X4316350Y-5171300D01*
G01X4315473Y-5164650D01*
G01X4312902Y-5158454D01*
G01X4319607Y-5158454D01*
G01X4345050Y-5183896D01*
G01X4345050Y-5471300D01*
G01X4347003Y-5481117D01*
G01X4352564Y-5489440D01*
G01X4360886Y-5495001D01*
G01X4370704Y-5496954D01*
G01X4442842Y-5496954D01*
G01X4420650Y-5519146D01*
G01X4365713Y-5519146D01*
G01X4355895Y-5521098D01*
G01X4347573Y-5526660D01*
G01X4342011Y-5534982D01*
G01X4340059Y-5544800D01*
G01X4340059Y-5631200D01*
G01X4342011Y-5641018D01*
G01X4347573Y-5649340D01*
G01X4355895Y-5654902D01*
G01X4365713Y-5656854D01*
G01X4446360Y-5656854D01*
G01X4456178Y-5654902D01*
G01X4464500Y-5649340D01*
G01X4470061Y-5641018D01*
G01X4472014Y-5631200D01*
G01X4472014Y-5576263D01*
G01X4510723Y-5537554D01*
G01X4512260Y-5537554D01*
G01X4522187Y-5536247D01*
G01X4531437Y-5532415D01*
G01X4539380Y-5526320D01*
G01X4555724Y-5509977D01*
G01X4561819Y-5502033D01*
G01X4565651Y-5492783D01*
G01X4566958Y-5482856D01*
G01X4566958Y-5159744D01*
G01X4565651Y-5149817D01*
G01X4561819Y-5140567D01*
G01X4555724Y-5132623D01*
G01X4539380Y-5116280D01*
G01X4531437Y-5110185D01*
G01X4522187Y-5106353D01*
G01X4512260Y-5105046D01*
G01X4474681Y-5105046D01*
G01X4407248Y-5037613D01*
G01X4407248Y-5026200D01*
G01X4405686Y-5015179D01*
G01X4401122Y-5005026D01*
G01X4393916Y-4996542D01*
G01X4384636Y-4990395D01*
G01X4374013Y-4987069D01*
G01X4362884Y-4986826D01*
G01X4352126Y-4989687D01*
G01X4342587Y-4995424D01*
G01X4333369Y-4989824D01*
G01X4322982Y-4986915D01*
G01X4312196Y-4986913D01*
G01X4301808Y-4989818D01*
G01X4292587Y-4995414D01*
G01X4283366Y-4989818D01*
G01X4272979Y-4986913D01*
G01X4262192Y-4986915D01*
G01X4251806Y-4989824D01*
G01X4242587Y-4995424D01*
G01X4233049Y-4989687D01*
G01X4222291Y-4986826D01*
G01X4211162Y-4987069D01*
G01X4200539Y-4990395D01*
G01X4191259Y-4996542D01*
G01X4184053Y-5005026D01*
G01X4179489Y-5015179D01*
G01X4177927Y-5026200D01*
G01X4177927Y-5078199D01*
G01X4179842Y-5090373D01*
G01X4185401Y-5101371D01*
G01X4194069Y-5110131D01*
G01X4205007Y-5115807D01*
G01X4217160Y-5117851D01*
G01X4229354Y-5116066D01*
G01X4240410Y-5110623D01*
G01X4243908Y-5117039D01*
G01X4248560Y-5122675D01*
G01X4271531Y-5145646D01*
G01X4160697Y-5145646D01*
G01X4150879Y-5147599D01*
G01X4142556Y-5153160D01*
G01X4136995Y-5161483D01*
G01X4135043Y-5171300D01*
G01X4135043Y-5212944D01*
G01X4134654Y-5212944D01*
G01X4134654Y-5211298D01*
G01X4132701Y-5201480D01*
G01X4127140Y-5193158D01*
G01X4118817Y-5187596D01*
G01X4109000Y-5185644D01*
G01X4052587Y-5185644D01*
G01X4051554Y-5184611D01*
G01X4051554Y-5019415D01*
G01X4060268Y-5009024D01*
G01X4066238Y-4996847D01*
G01X4069113Y-4983594D01*
G01X4068728Y-4970038D01*
G01X4115132Y-4923634D01*
G01X4134514Y-4923634D01*
G01X4145921Y-4921898D01*
G01X4156297Y-4916848D01*
G01X4168600Y-4916848D01*
G01X4179621Y-4915286D01*
G01X4189774Y-4910722D01*
G01X4198258Y-4903516D01*
G01X4204405Y-4894236D01*
G01X4207731Y-4883613D01*
G01X4207974Y-4872484D01*
G01X4205113Y-4861726D01*
G01X4199376Y-4852187D01*
G01X4205585Y-4841484D01*
G01X4208193Y-4829388D01*
G01X4206945Y-4817077D01*
G01X4207477Y-4816545D01*
G01X4219788Y-4817793D01*
G01X4231884Y-4815185D01*
G01X4242587Y-4808976D01*
G01X4251806Y-4814576D01*
G01X4262192Y-4817485D01*
G01X4272979Y-4817487D01*
G01X4283366Y-4814582D01*
G01X4292587Y-4808986D01*
G01X4301808Y-4814582D01*
G01X4312196Y-4817487D01*
G01X4322982Y-4817485D01*
G01X4333369Y-4814576D01*
G01X4342587Y-4808976D01*
G01X4351943Y-4814635D01*
G01X4362488Y-4817524D01*
G01X4373422Y-4817424D01*
G01X4383912Y-4814341D01*
G01X4393162Y-4808510D01*
G01X4400468Y-4800375D01*
G01X4405274Y-4790554D01*
G01X4501346Y-4790554D01*
G01X4501346Y-4808698D01*
G01X4503299Y-4818515D01*
G01X4508860Y-4826838D01*
G01X4517183Y-4832399D01*
G01X4527000Y-4834352D01*
G01X4617000Y-4834352D01*
G01X4626817Y-4832399D01*
G01X4635140Y-4826838D01*
G01X4640701Y-4818515D01*
G01X4642654Y-4808698D01*
G01X4642654Y-4728698D01*
G01X4640701Y-4718880D01*
G01X4635140Y-4710558D01*
G01X4626817Y-4704996D01*
G01X4617000Y-4703044D01*
G01X4527000Y-4703044D01*
G01X4518984Y-4704328D01*
G01X4511770Y-4708054D01*
G01X4506082Y-4713846D01*
G01X4405274Y-4713846D01*
G01X4400468Y-4704025D01*
G01X4393162Y-4695890D01*
G01X4383912Y-4690060D01*
G01X4373422Y-4686977D01*
G01X4362488Y-4686876D01*
G01X4351943Y-4689766D01*
G01X4342587Y-4695425D01*
G01X4333369Y-4689825D01*
G01X4322982Y-4686916D01*
G01X4312196Y-4686914D01*
G01X4301808Y-4689818D01*
G01X4292587Y-4695415D01*
G01X4283366Y-4689818D01*
G01X4272979Y-4686914D01*
G01X4262192Y-4686916D01*
G01X4251806Y-4689825D01*
G01X4242587Y-4695425D01*
G01X4233049Y-4689687D01*
G01X4222291Y-4686827D01*
G01X4211162Y-4687069D01*
G01X4200539Y-4690395D01*
G01X4191259Y-4696542D01*
G01X4184053Y-4705027D01*
G01X4179489Y-4715180D01*
G01X4177927Y-4726201D01*
G01X4177927Y-4737614D01*
G01X4143983Y-4771558D01*
G01X4142600Y-4771539D01*
G01X4068456Y-4771539D01*
G01X4055242Y-4773279D01*
G01X4042929Y-4778379D01*
G01X4032355Y-4786492D01*
G01X3905999Y-4912849D01*
G01X3901823Y-4917576D01*
G01X3618053Y-5201346D01*
G01X3534154Y-5201346D01*
G01X3534154Y-5164856D01*
G01X3613700Y-5164856D01*
G01X3623517Y-5162904D01*
G01X3631840Y-5157342D01*
G01X3637401Y-5149020D01*
G01X3639354Y-5139202D01*
G01X3639354Y-5059202D01*
G01X3637401Y-5049385D01*
G01X3631840Y-5041062D01*
G01X3623517Y-5035501D01*
G01X3613700Y-5033548D01*
G01X3547719Y-5033548D01*
G01X3556416Y-5024852D01*
G01X3613700Y-5024852D01*
G01X3623517Y-5022899D01*
G01X3631840Y-5017338D01*
G01X3637401Y-5009015D01*
G01X3639354Y-4999198D01*
G01X3639354Y-4919198D01*
G01X3637401Y-4909380D01*
G01X3631840Y-4901058D01*
G01X3623517Y-4895496D01*
G01X3613700Y-4893544D01*
G01X3523700Y-4893544D01*
G01X3516145Y-4894681D01*
G01X3509261Y-4897993D01*
G01X3503656Y-4903186D01*
G01X3503656Y-4758658D01*
G01X3502133Y-4747087D01*
G01X3497667Y-4736306D01*
G01X3490563Y-4727047D01*
G01X3487649Y-4724133D01*
G01X3487649Y-4601700D01*
G01X3485696Y-4591883D01*
G01X3480135Y-4583560D01*
G01X3471812Y-4577999D01*
G01X3461995Y-4576046D01*
G01X3361995Y-4576046D01*
G01X3352177Y-4577999D01*
G01X3343855Y-4583560D01*
G01X3338294Y-4591883D01*
G01X3336341Y-4601700D01*
G01X3336341Y-4821700D01*
G01X3338294Y-4831517D01*
G01X3343855Y-4839840D01*
G01X3352177Y-4845401D01*
G01X3361995Y-4847354D01*
G01X3414248Y-4847354D01*
G01X3414248Y-4958985D01*
G01X3414248Y-4958985D01*
G01X3410849Y-4968552D01*
G01X3409696Y-4978639D01*
G01X3409696Y-5028961D01*
G01X3410849Y-5039048D01*
G01X3414248Y-5048615D01*
G01X3414248Y-5133370D01*
G01X3396408Y-5151210D01*
G01X3389303Y-5160469D01*
G01X3384838Y-5171251D01*
G01X3383314Y-5182821D01*
G01X3383314Y-5257176D01*
G01X3375027Y-5260274D01*
G01X3368285Y-5266002D01*
G01X3363890Y-5273680D01*
G01X3362364Y-5282395D01*
G01X3362364Y-5312395D01*
G01X3362877Y-5317500D01*
G01X3364396Y-5322401D01*
G01X3362877Y-5327302D01*
G01X3362364Y-5332408D01*
G01X3362364Y-5362408D01*
G01X3362876Y-5367506D01*
G01X3364391Y-5372401D01*
G01X3362876Y-5377296D01*
G01X3362364Y-5382395D01*
G01X3362364Y-5412395D01*
G01X3362877Y-5417500D01*
G01X3364396Y-5422401D01*
G01X3362877Y-5427302D01*
G01X3362364Y-5432407D01*
G01X3362364Y-5462407D01*
G01X3362876Y-5467506D01*
G01X3364391Y-5472401D01*
G01X3362876Y-5477296D01*
G01X3362364Y-5482395D01*
G01X3362364Y-5512395D01*
G01X3362877Y-5517500D01*
G01X3364396Y-5522401D01*
G01X3362877Y-5527302D01*
G01X3362364Y-5532407D01*
G01X3362364Y-5561560D01*
G01X3333822Y-5561560D01*
G01X3328723Y-5562072D01*
G01X3323827Y-5563587D01*
G01X3318932Y-5562072D01*
G01X3313833Y-5561560D01*
G01X3283835Y-5561560D01*
G01X3278729Y-5562073D01*
G01X3273828Y-5563593D01*
G01X3268926Y-5562073D01*
G01X3263820Y-5561560D01*
G01X3233823Y-5561560D01*
G01X3228723Y-5562072D01*
G01X3223828Y-5563587D01*
G01X3218932Y-5562072D01*
G01X3213833Y-5561560D01*
G01X3183835Y-5561560D01*
G01X3178729Y-5562073D01*
G01X3173828Y-5563593D01*
G01X3168926Y-5562073D01*
G01X3163820Y-5561560D01*
G01X3133823Y-5561560D01*
G01X3128724Y-5562072D01*
G01X3123828Y-5563587D01*
G01X3118932Y-5562072D01*
G01X3113833Y-5561560D01*
G01X3085342Y-5561560D01*
G01X3085342Y-5532382D01*
G01X3083389Y-5522565D01*
G01X3077828Y-5514242D01*
G01X3069505Y-5508681D01*
G01X3059688Y-5506728D01*
G01X3031156Y-5506728D01*
G01X3022182Y-5503157D01*
G01X3012601Y-5501941D01*
G01X2984018Y-5501941D01*
G01X2954057Y-5471980D01*
G01X2948014Y-5467057D01*
G01X2948014Y-5455900D01*
G01X2946061Y-5446082D01*
G01X2940500Y-5437760D01*
G01X2932178Y-5432198D01*
G01X2922360Y-5430246D01*
G01X2841713Y-5430246D01*
G01X2831895Y-5432198D01*
G01X2823573Y-5437760D01*
G01X2818011Y-5446082D01*
G01X2816059Y-5455900D01*
G01X2603754Y-5455900D01*
G01X2603754Y-5156073D01*
G01X2665386Y-5156073D01*
G01X2665386Y-5242474D01*
G01X2667339Y-5252291D01*
G01X2672900Y-5260614D01*
G01X2681222Y-5266175D01*
G01X2691040Y-5268128D01*
G01X2693010Y-5268128D01*
G01X2693010Y-5291073D01*
G01X2683561Y-5293352D01*
G01X2675638Y-5298982D01*
G01X2670378Y-5307156D01*
G01X2668537Y-5316700D01*
G01X2668537Y-5376700D01*
G01X2670489Y-5386517D01*
G01X2676051Y-5394840D01*
G01X2684373Y-5400401D01*
G01X2694191Y-5402354D01*
G01X2769192Y-5402354D01*
G01X2777464Y-5400984D01*
G01X2784853Y-5397019D01*
G01X2790568Y-5390884D01*
G01X2794000Y-5383233D01*
G01X2797432Y-5390884D01*
G01X2803147Y-5397019D01*
G01X2810536Y-5400984D01*
G01X2818808Y-5402354D01*
G01X2893809Y-5402354D01*
G01X2901630Y-5401133D01*
G01X2908706Y-5397586D01*
G01X2914364Y-5392051D01*
G01X2918065Y-5385054D01*
G01X2967683Y-5385054D01*
G01X2973503Y-5387280D01*
G01X2979688Y-5388036D01*
G01X3059688Y-5388036D01*
G01X3069505Y-5386083D01*
G01X3077828Y-5380522D01*
G01X3083389Y-5372200D01*
G01X3085342Y-5362382D01*
G01X3085342Y-5332382D01*
G01X3084830Y-5327284D01*
G01X3083315Y-5322389D01*
G01X3084830Y-5317494D01*
G01X3085342Y-5312395D01*
G01X3085342Y-5285982D01*
G01X3088082Y-5283242D01*
G01X3113833Y-5283242D01*
G01X3118932Y-5282730D01*
G01X3123828Y-5281215D01*
G01X3128724Y-5282730D01*
G01X3133823Y-5283242D01*
G01X3163820Y-5283242D01*
G01X3168926Y-5282729D01*
G01X3173828Y-5281210D01*
G01X3178729Y-5282729D01*
G01X3183835Y-5283242D01*
G01X3213833Y-5283242D01*
G01X3218932Y-5282730D01*
G01X3223828Y-5281215D01*
G01X3228723Y-5282730D01*
G01X3233823Y-5283242D01*
G01X3263820Y-5283242D01*
G01X3273637Y-5281289D01*
G01X3281960Y-5275728D01*
G01X3287521Y-5267406D01*
G01X3289474Y-5257588D01*
G01X3289474Y-5239232D01*
G01X3293071Y-5228675D01*
G01X3294289Y-5217588D01*
G01X3293071Y-5206502D01*
G01X3289474Y-5195944D01*
G01X3289474Y-5177588D01*
G01X3288372Y-5170149D01*
G01X3285160Y-5163350D01*
G01X3294834Y-5161266D01*
G01X3303000Y-5155676D01*
G01X3308443Y-5147410D01*
G01X3310352Y-5137700D01*
G01X3310352Y-5047700D01*
G01X3308568Y-5038301D01*
G01X3303465Y-5030209D01*
G01X3295752Y-5024550D01*
G01X3295752Y-4983050D01*
G01X3303465Y-4977391D01*
G01X3308568Y-4969299D01*
G01X3310352Y-4959900D01*
G01X3310352Y-4869900D01*
G01X3308399Y-4860083D01*
G01X3302838Y-4851760D01*
G01X3294515Y-4846199D01*
G01X3284698Y-4844246D01*
G01X3283052Y-4844246D01*
G01X3283052Y-4764392D01*
G01X3281312Y-4751179D01*
G01X3276212Y-4738865D01*
G01X3268098Y-4728292D01*
G01X3267659Y-4727853D01*
G01X3267659Y-4601700D01*
G01X3265706Y-4591883D01*
G01X3260145Y-4583560D01*
G01X3251823Y-4577999D01*
G01X3242005Y-4576046D01*
G01X3142005Y-4576046D01*
G01X3132188Y-4577999D01*
G01X3123865Y-4583560D01*
G01X3118304Y-4591883D01*
G01X3116351Y-4601700D01*
G01X3116351Y-4821700D01*
G01X3118304Y-4831517D01*
G01X3123865Y-4839840D01*
G01X3132188Y-4845401D01*
G01X3142005Y-4847354D01*
G01X3180944Y-4847354D01*
G01X3180944Y-4860211D01*
G01X3180944Y-4860211D01*
G01X3179044Y-4869900D01*
G01X3179044Y-4959900D01*
G01X3180827Y-4969299D01*
G01X3185931Y-4977391D01*
G01X3193644Y-4983050D01*
G01X3193644Y-5024550D01*
G01X3185931Y-5030209D01*
G01X3180827Y-5038301D01*
G01X3179044Y-5047700D01*
G01X3179044Y-5086697D01*
G01X3173353Y-5095838D01*
G01X3169706Y-5105969D01*
G01X3168264Y-5116640D01*
G01X3164590Y-5112965D01*
G01X3162090Y-5104330D01*
G01X3157913Y-5096370D01*
G01X3152228Y-5089407D01*
G01X3144054Y-5081233D01*
G01X3144054Y-5021102D01*
G01X3142101Y-5011285D01*
G01X3136540Y-5002962D01*
G01X3128217Y-4997401D01*
G01X3118400Y-4995448D01*
G01X3028400Y-4995448D01*
G01X3018583Y-4997401D01*
G01X3010260Y-5002962D01*
G01X3004699Y-5011285D01*
G01X3002746Y-5021102D01*
G01X3002746Y-5101102D01*
G01X3004699Y-5110920D01*
G01X3010260Y-5119242D01*
G01X3018583Y-5124804D01*
G01X3028400Y-5126756D01*
G01X3063135Y-5126756D01*
G01X3076644Y-5140265D01*
G01X3080600Y-5152139D01*
G01X3071818Y-5154923D01*
G01X3064585Y-5160631D01*
G01X3059836Y-5168525D01*
G01X3058182Y-5177588D01*
G01X3058182Y-5204661D01*
G01X3006101Y-5256741D01*
G01X2979688Y-5256741D01*
G01X2969871Y-5258694D01*
G01X2961548Y-5264255D01*
G01X2955987Y-5272578D01*
G01X2954034Y-5282395D01*
G01X2954034Y-5308346D01*
G01X2918065Y-5308346D01*
G01X2914364Y-5301349D01*
G01X2908706Y-5295814D01*
G01X2901630Y-5292267D01*
G01X2893809Y-5291046D01*
G01X2818808Y-5291046D01*
G01X2810536Y-5292416D01*
G01X2803147Y-5296381D01*
G01X2797432Y-5302516D01*
G01X2794000Y-5310167D01*
G01X2790641Y-5302626D01*
G01X2785060Y-5296543D01*
G01X2777836Y-5292546D01*
G01X2769718Y-5291051D01*
G01X2769718Y-5268128D01*
G01X2771687Y-5268128D01*
G01X2781505Y-5266175D01*
G01X2789827Y-5260614D01*
G01X2795389Y-5252291D01*
G01X2797341Y-5242474D01*
G01X2797341Y-5156073D01*
G01X2795389Y-5146256D01*
G01X2789827Y-5137933D01*
G01X2781505Y-5132372D01*
G01X2771687Y-5130419D01*
G01X2691040Y-5130419D01*
G01X2681222Y-5132372D01*
G01X2672900Y-5137933D01*
G01X2667339Y-5146256D01*
G01X2665386Y-5156073D01*
G01X2603754Y-5156073D01*
G01X2603754Y-4859000D01*
G01X2665386Y-4859000D01*
G01X2665386Y-4945400D01*
G01X2667339Y-4955218D01*
G01X2672900Y-4963540D01*
G01X2681222Y-4969102D01*
G01X2691040Y-4971054D01*
G01X2693010Y-4971054D01*
G01X2693010Y-4998973D01*
G01X2683561Y-5001252D01*
G01X2675638Y-5006882D01*
G01X2670378Y-5015056D01*
G01X2668537Y-5024600D01*
G01X2668537Y-5084600D01*
G01X2670489Y-5094417D01*
G01X2676051Y-5102740D01*
G01X2684373Y-5108301D01*
G01X2694191Y-5110254D01*
G01X2769192Y-5110254D01*
G01X2777464Y-5108884D01*
G01X2784853Y-5104919D01*
G01X2790568Y-5098784D01*
G01X2794000Y-5091133D01*
G01X2797432Y-5098784D01*
G01X2803147Y-5104919D01*
G01X2810536Y-5108884D01*
G01X2818808Y-5110254D01*
G01X2831572Y-5110254D01*
G01X2843207Y-5114228D01*
G01X2855429Y-5115574D01*
G01X2867651Y-5114228D01*
G01X2879287Y-5110254D01*
G01X2893809Y-5110254D01*
G01X2901048Y-5109212D01*
G01X2879840Y-5130419D01*
G01X2841713Y-5130419D01*
G01X2831895Y-5132372D01*
G01X2823573Y-5137933D01*
G01X2818011Y-5146256D01*
G01X2816059Y-5156073D01*
G01X2816059Y-5242474D01*
G01X2818011Y-5252291D01*
G01X2823573Y-5260614D01*
G01X2831895Y-5266175D01*
G01X2841713Y-5268128D01*
G01X2922360Y-5268128D01*
G01X2932178Y-5266175D01*
G01X2940500Y-5260614D01*
G01X2946061Y-5252291D01*
G01X2948014Y-5242474D01*
G01X2948014Y-5170727D01*
G01X2974230Y-5144511D01*
G01X2980325Y-5136568D01*
G01X2984157Y-5127317D01*
G01X2985463Y-5117391D01*
G01X2985463Y-5005317D01*
G01X2984157Y-4995390D01*
G01X2980325Y-4986140D01*
G01X2974230Y-4978197D01*
G01X2947328Y-4951295D01*
G01X2948014Y-4945400D01*
G01X2948014Y-4859000D01*
G01X2946061Y-4849182D01*
G01X2940500Y-4840860D01*
G01X2932178Y-4835298D01*
G01X2922360Y-4833346D01*
G01X2841713Y-4833346D01*
G01X2831895Y-4835298D01*
G01X2823573Y-4840860D01*
G01X2818011Y-4849182D01*
G01X2816059Y-4859000D01*
G01X2816059Y-4945400D01*
G01X2818011Y-4955218D01*
G01X2823573Y-4963540D01*
G01X2831895Y-4969102D01*
G01X2841713Y-4971054D01*
G01X2858606Y-4971054D01*
G01X2886498Y-4998946D01*
G01X2818808Y-4998946D01*
G01X2810536Y-5000316D01*
G01X2803147Y-5004281D01*
G01X2797432Y-5010416D01*
G01X2794000Y-5018067D01*
G01X2790641Y-5010526D01*
G01X2785060Y-5004443D01*
G01X2777836Y-5000446D01*
G01X2769718Y-4998951D01*
G01X2769718Y-4998951D01*
G01X2769718Y-4971054D01*
G01X2771687Y-4971054D01*
G01X2781505Y-4969102D01*
G01X2789827Y-4963540D01*
G01X2795389Y-4955218D01*
G01X2797341Y-4945400D01*
G01X2797341Y-4859000D01*
G01X2795389Y-4849182D01*
G01X2789827Y-4840860D01*
G01X2781505Y-4835298D01*
G01X2771687Y-4833346D01*
G01X2691040Y-4833346D01*
G01X2681222Y-4835298D01*
G01X2672900Y-4840860D01*
G01X2667339Y-4849182D01*
G01X2665386Y-4859000D01*
G01X2603754Y-4859000D01*
G01X2603754Y-4248696D01*
G01X2787649Y-4248696D01*
G01X2787649Y-4548695D01*
G01X2789602Y-4558513D01*
G01X2795163Y-4566836D01*
G01X2803485Y-4572397D01*
G01X2813303Y-4574349D01*
G01X3003302Y-4574349D01*
G01X3013120Y-4572397D01*
G01X3021442Y-4566836D01*
G01X3027004Y-4558513D01*
G01X3028956Y-4548695D01*
G01X3028956Y-4248696D01*
G01X3028956Y-4248696D01*
G01X3028956Y-4248696D01*
G01X3041646Y-4248696D01*
G01X3041646Y-4548695D01*
G01X3043599Y-4558513D01*
G01X3049160Y-4566836D01*
G01X3057483Y-4572397D01*
G01X3067300Y-4574349D01*
G01X3257300Y-4574349D01*
G01X3267117Y-4572397D01*
G01X3275440Y-4566836D01*
G01X3281001Y-4558513D01*
G01X3282954Y-4548695D01*
G01X3282954Y-4248696D01*
G01X3295646Y-4248696D01*
G01X3295646Y-4548695D01*
G01X3297599Y-4558513D01*
G01X3303160Y-4566836D01*
G01X3311483Y-4572397D01*
G01X3321300Y-4574349D01*
G01X3511300Y-4574349D01*
G01X3521117Y-4572397D01*
G01X3529440Y-4566836D01*
G01X3535001Y-4558513D01*
G01X3536954Y-4548695D01*
G01X3536954Y-4248696D01*
G01X3549646Y-4248696D01*
G01X3549646Y-4548695D01*
G01X3551599Y-4558513D01*
G01X3557160Y-4566836D01*
G01X3565483Y-4572397D01*
G01X3575300Y-4574349D01*
G01X3765300Y-4574349D01*
G01X3775117Y-4572397D01*
G01X3783440Y-4566836D01*
G01X3789001Y-4558513D01*
G01X3790954Y-4548695D01*
G01X3790954Y-4248696D01*
G01X3803646Y-4248696D01*
G01X3803646Y-4548695D01*
G01X3805599Y-4558513D01*
G01X3811160Y-4566836D01*
G01X3819483Y-4572397D01*
G01X3829300Y-4574349D01*
G01X4019300Y-4574349D01*
G01X4029117Y-4572397D01*
G01X4037440Y-4566836D01*
G01X4043001Y-4558513D01*
G01X4044954Y-4548695D01*
G01X4044954Y-4248696D01*
G01X4311644Y-4248696D01*
G01X4311644Y-4548695D01*
G01X4313596Y-4558513D01*
G01X4319158Y-4566836D01*
G01X4327480Y-4572397D01*
G01X4337298Y-4574349D01*
G01X4527297Y-4574349D01*
G01X4537115Y-4572397D01*
G01X4545437Y-4566836D01*
G01X4550998Y-4558513D01*
G01X4552951Y-4548695D01*
G01X4552951Y-4248696D01*
G01X4552951Y-4248696D01*
G01X4550998Y-4238879D01*
G01X4545437Y-4230556D01*
G01X4537115Y-4224995D01*
G01X4527297Y-4223042D01*
G01X4337298Y-4223042D01*
G01X4327480Y-4224995D01*
G01X4319158Y-4230556D01*
G01X4313596Y-4238879D01*
G01X4311644Y-4248696D01*
G01X4044954Y-4248696D01*
G01X4044954Y-4248696D01*
G01X4044954Y-4248696D01*
G01X4043001Y-4238879D01*
G01X4037440Y-4230556D01*
G01X4029117Y-4224995D01*
G01X4019300Y-4223042D01*
G01X3829300Y-4223042D01*
G01X3819483Y-4224995D01*
G01X3811160Y-4230556D01*
G01X3805599Y-4238879D01*
G01X3803646Y-4248696D01*
G01X3790954Y-4248696D01*
G01X3790954Y-4248696D01*
G01X3789001Y-4238879D01*
G01X3783440Y-4230556D01*
G01X3775117Y-4224995D01*
G01X3765300Y-4223042D01*
G01X3575300Y-4223042D01*
G01X3565483Y-4224995D01*
G01X3557160Y-4230556D01*
G01X3551599Y-4238879D01*
G01X3549646Y-4248696D01*
G01X3536954Y-4248696D01*
G01X3536954Y-4248696D01*
G01X3535001Y-4238879D01*
G01X3529440Y-4230556D01*
G01X3521117Y-4224995D01*
G01X3511300Y-4223042D01*
G01X3321300Y-4223042D01*
G01X3311483Y-4224995D01*
G01X3303160Y-4230556D01*
G01X3297599Y-4238879D01*
G01X3295646Y-4248696D01*
G01X3282954Y-4248696D01*
G01X3282954Y-4248696D01*
G01X3281001Y-4238879D01*
G01X3275440Y-4230556D01*
G01X3267117Y-4224995D01*
G01X3257300Y-4223042D01*
G01X3067300Y-4223042D01*
G01X3057483Y-4224995D01*
G01X3049160Y-4230556D01*
G01X3043599Y-4238879D01*
G01X3041646Y-4248696D01*
G01X3028956Y-4248696D01*
G01X3027004Y-4238879D01*
G01X3021442Y-4230556D01*
G01X3013120Y-4224995D01*
G01X3003302Y-4223042D01*
G01X2813303Y-4223042D01*
G01X2803485Y-4224995D01*
G01X2795163Y-4230556D01*
G01X2789602Y-4238879D01*
G01X2787649Y-4248696D01*
G01X2603754Y-4248696D01*
G01X2603754Y-2588702D01*
G01X2787649Y-2588702D01*
G01X2787649Y-2888701D01*
G01X2789602Y-2898519D01*
G01X2795163Y-2906841D01*
G01X2803485Y-2912403D01*
G01X2813303Y-2914355D01*
G01X3003302Y-2914355D01*
G01X3013120Y-2912403D01*
G01X3021442Y-2906841D01*
G01X3027004Y-2898519D01*
G01X3028956Y-2888701D01*
G01X3028956Y-2588702D01*
G01X3041646Y-2588702D01*
G01X3041646Y-2888701D01*
G01X3043599Y-2898519D01*
G01X3049160Y-2906841D01*
G01X3057483Y-2912403D01*
G01X3067300Y-2914355D01*
G01X3257300Y-2914355D01*
G01X3267117Y-2912403D01*
G01X3275440Y-2906841D01*
G01X3281001Y-2898519D01*
G01X3282954Y-2888701D01*
G01X3282954Y-2588702D01*
G01X3282954Y-2588702D01*
G01X3281001Y-2578885D01*
G01X3275440Y-2570562D01*
G01X3267117Y-2565001D01*
G01X3257300Y-2563048D01*
G01X3067300Y-2563048D01*
G01X3057483Y-2565001D01*
G01X3049160Y-2570562D01*
G01X3043599Y-2578885D01*
G01X3041646Y-2588702D01*
G01X3028956Y-2588702D01*
G01X3028956Y-2588702D01*
G01X3028956Y-2588702D01*
G01X3027004Y-2578885D01*
G01X3021442Y-2570562D01*
G01X3013120Y-2565001D01*
G01X3003302Y-2563048D01*
G01X2813303Y-2563048D01*
G01X2803485Y-2565001D01*
G01X2795163Y-2570562D01*
G01X2789602Y-2578885D01*
G01X2787649Y-2588702D01*
G01X2603754Y-2588702D01*
G01X2603754Y-2312600D01*
G01X3187747Y-2312600D01*
G01X3187747Y-2462600D01*
G01X3189700Y-2472417D01*
G01X3195261Y-2480740D01*
G01X3203584Y-2486301D01*
G01X3213401Y-2488254D01*
G01X3403401Y-2488254D01*
G01X3409559Y-2487504D01*
G01X3415357Y-2485297D01*
G01X3493108Y-2563048D01*
G01X3321300Y-2563048D01*
G01X3311483Y-2565001D01*
G01X3303160Y-2570562D01*
G01X3297599Y-2578885D01*
G01X3295646Y-2588702D01*
G01X3295646Y-2888701D01*
G01X3297599Y-2898519D01*
G01X3303160Y-2906841D01*
G01X3311483Y-2912403D01*
G01X3321300Y-2914355D01*
G01X3511300Y-2914355D01*
G01X3521117Y-2912403D01*
G01X3529440Y-2906841D01*
G01X3535001Y-2898519D01*
G01X3536954Y-2888701D01*
G01X3536954Y-2606894D01*
G01X3549646Y-2619586D01*
G01X3549646Y-2888701D01*
G01X3551599Y-2898519D01*
G01X3557160Y-2906841D01*
G01X3565483Y-2912403D01*
G01X3575300Y-2914355D01*
G01X3765300Y-2914355D01*
G01X3775117Y-2912403D01*
G01X3783440Y-2906841D01*
G01X3789001Y-2898519D01*
G01X3790954Y-2888701D01*
G01X3790954Y-2588702D01*
G01X3789001Y-2578885D01*
G01X3783440Y-2570562D01*
G01X3775117Y-2565001D01*
G01X3765300Y-2563048D01*
G01X3601590Y-2563048D01*
G01X3429055Y-2390513D01*
G01X3429055Y-2390513D01*
G01X3429055Y-2312600D01*
G01X3427102Y-2302783D01*
G01X3421541Y-2294460D01*
G01X3413218Y-2288899D01*
G01X3403401Y-2286946D01*
G01X3213401Y-2286946D01*
G01X3203584Y-2288899D01*
G01X3195261Y-2294460D01*
G01X3189700Y-2302783D01*
G01X3187747Y-2312600D01*
G01X2603754Y-2312600D01*
G01X2603754Y-2014200D01*
G01X3338486Y-2014200D01*
G01X3338486Y-2100600D01*
G01X3340439Y-2110418D01*
G01X3346000Y-2118740D01*
G01X3354322Y-2124302D01*
G01X3364140Y-2126254D01*
G01X3415485Y-2126254D01*
G01X3852279Y-2563048D01*
G01X3852279Y-2563048D01*
G01X3829300Y-2563048D01*
G01X3819483Y-2565001D01*
G01X3811160Y-2570562D01*
G01X3805599Y-2578885D01*
G01X3803646Y-2588702D01*
G01X3803646Y-2888701D01*
G01X3805599Y-2898519D01*
G01X3811160Y-2906841D01*
G01X3819483Y-2912403D01*
G01X3829300Y-2914355D01*
G01X4019300Y-2914355D01*
G01X4029117Y-2912403D01*
G01X4037440Y-2906841D01*
G01X4043001Y-2898519D01*
G01X4044954Y-2888701D01*
G01X4044954Y-2588702D01*
G01X4043001Y-2578885D01*
G01X4037440Y-2570562D01*
G01X4029117Y-2565001D01*
G01X4019300Y-2563048D01*
G01X3962654Y-2563048D01*
G01X3958732Y-2555173D01*
G01X3953216Y-2548320D01*
G01X3531151Y-2126254D01*
G01X3595460Y-2126254D01*
G01X3605278Y-2124302D01*
G01X3613600Y-2118740D01*
G01X3619161Y-2110418D01*
G01X3621114Y-2100600D01*
G01X3621114Y-2098294D01*
G01X3679750Y-2098294D01*
G01X3679750Y-2118300D01*
G01X3681703Y-2128118D01*
G01X3687264Y-2136440D01*
G01X3695587Y-2142002D01*
G01X3705404Y-2143954D01*
G01X3775404Y-2143954D01*
G01X3785221Y-2142002D01*
G01X3793544Y-2136440D01*
G01X3799105Y-2128118D01*
G01X3801058Y-2118300D01*
G01X3801058Y-1993299D01*
G01X3799105Y-1983482D01*
G01X3793544Y-1975159D01*
G01X3785221Y-1969598D01*
G01X3775404Y-1967645D01*
G01X3705404Y-1967645D01*
G01X3695587Y-1969598D01*
G01X3687264Y-1975159D01*
G01X3681703Y-1983482D01*
G01X3679750Y-1993299D01*
G01X3679750Y-2016506D01*
G01X3621114Y-2016506D01*
G01X3621114Y-2014200D01*
G01X3619161Y-2004382D01*
G01X3613600Y-1996060D01*
G01X3605278Y-1990498D01*
G01X3595460Y-1988546D01*
G01X3514813Y-1988546D01*
G01X3504995Y-1990498D01*
G01X3496673Y-1996060D01*
G01X3491111Y-2004382D01*
G01X3489159Y-2014200D01*
G01X3489159Y-2084262D01*
G01X3470441Y-2065545D01*
G01X3470441Y-2014200D01*
G01X3468489Y-2004382D01*
G01X3462927Y-1996060D01*
G01X3454605Y-1990498D01*
G01X3444787Y-1988546D01*
G01X3364140Y-1988546D01*
G01X3354322Y-1990498D01*
G01X3346000Y-1996060D01*
G01X3340439Y-2004382D01*
G01X3338486Y-2014200D01*
G01X2603754Y-2014200D01*
G01X2603754Y410357D01*
G01X2919344Y410357D01*
G01X2921297Y400539D01*
G01X2926858Y392217D01*
G01X2935181Y386656D01*
G01X2944998Y384703D01*
G01X3029104Y384703D01*
G01X3029104Y-1345599D01*
G01X3030497Y-1356183D01*
G01X3034583Y-1366046D01*
G01X3041081Y-1374516D01*
G01X3181244Y-1514678D01*
G01X3181244Y-1514678D01*
G01X3181244Y-1652499D01*
G01X3183197Y-1662316D01*
G01X3188758Y-1670639D01*
G01X3197080Y-1676200D01*
G01X3206898Y-1678153D01*
G01X3344719Y-1678153D01*
G01X3551282Y-1884717D01*
G01X3559752Y-1891215D01*
G01X3569615Y-1895301D01*
G01X3580199Y-1896694D01*
G01X3774746Y-1896694D01*
G01X3774746Y-1918301D01*
G01X3776699Y-1928118D01*
G01X3782260Y-1936441D01*
G01X3790583Y-1942002D01*
G01X3800400Y-1943955D01*
G01X3870400Y-1943955D01*
G01X3880217Y-1942002D01*
G01X3888540Y-1936441D01*
G01X3894101Y-1928118D01*
G01X3896054Y-1918301D01*
G01X3896054Y-1793300D01*
G01X3894101Y-1783482D01*
G01X3888540Y-1775160D01*
G01X3880217Y-1769598D01*
G01X3870400Y-1767646D01*
G01X3800400Y-1767646D01*
G01X3790583Y-1769598D01*
G01X3782260Y-1775160D01*
G01X3776699Y-1783482D01*
G01X3774746Y-1793300D01*
G01X3774746Y-1814906D01*
G01X3597138Y-1814906D01*
G01X3422551Y-1640320D01*
G01X3422551Y-1502499D01*
G01X3420599Y-1492682D01*
G01X3415038Y-1484359D01*
G01X3406715Y-1478798D01*
G01X3396897Y-1476845D01*
G01X3259077Y-1476845D01*
G01X3110892Y-1328660D01*
G01X3110892Y-1188700D01*
G01X3351186Y-1188700D01*
G01X3351186Y-1275100D01*
G01X3353139Y-1284918D01*
G01X3358700Y-1293240D01*
G01X3367022Y-1298802D01*
G01X3376840Y-1300754D01*
G01X3431777Y-1300754D01*
G01X4192945Y-2061922D01*
G01X4192945Y-2061922D01*
G01X4192945Y-2458270D01*
G01X4151180Y-2500035D01*
G01X4145084Y-2507979D01*
G01X4141253Y-2517229D01*
G01X4139946Y-2527156D01*
G01X4139946Y-2563048D01*
G01X4083300Y-2563048D01*
G01X4073483Y-2565001D01*
G01X4065160Y-2570562D01*
G01X4059599Y-2578885D01*
G01X4057646Y-2588702D01*
G01X4057646Y-2888701D01*
G01X4059599Y-2898519D01*
G01X4065160Y-2906841D01*
G01X4073483Y-2912403D01*
G01X4083300Y-2914355D01*
G01X4273300Y-2914355D01*
G01X4283117Y-2912403D01*
G01X4291440Y-2906841D01*
G01X4297001Y-2898519D01*
G01X4298954Y-2888701D01*
G01X4298954Y-2588702D01*
G01X4297001Y-2578885D01*
G01X4291440Y-2570562D01*
G01X4283117Y-2565001D01*
G01X4273300Y-2563048D01*
G01X4216654Y-2563048D01*
G01X4216654Y-2543042D01*
G01X4258420Y-2501277D01*
G01X4264515Y-2493333D01*
G01X4268346Y-2484083D01*
G01X4269653Y-2474156D01*
G01X4269653Y-2046036D01*
G01X4268346Y-2036109D01*
G01X4264515Y-2026859D01*
G01X4258420Y-2018915D01*
G01X3540259Y-1300754D01*
G01X3608160Y-1300754D01*
G01X3617978Y-1298802D01*
G01X3626300Y-1293240D01*
G01X3631861Y-1284918D01*
G01X3633814Y-1275100D01*
G01X3633814Y-1272794D01*
G01X3679750Y-1272794D01*
G01X3679750Y-1292800D01*
G01X3681703Y-1302618D01*
G01X3687264Y-1310940D01*
G01X3695587Y-1316502D01*
G01X3705404Y-1318454D01*
G01X3775404Y-1318454D01*
G01X3785221Y-1316502D01*
G01X3793544Y-1310940D01*
G01X3799105Y-1302618D01*
G01X3801058Y-1292800D01*
G01X3801058Y-1167799D01*
G01X3799105Y-1157982D01*
G01X3793544Y-1149659D01*
G01X3785221Y-1144098D01*
G01X3775404Y-1142145D01*
G01X3705404Y-1142145D01*
G01X3695587Y-1144098D01*
G01X3687264Y-1149659D01*
G01X3681703Y-1157982D01*
G01X3679750Y-1167799D01*
G01X3679750Y-1191006D01*
G01X3633814Y-1191006D01*
G01X3633814Y-1188700D01*
G01X3631861Y-1178882D01*
G01X3626300Y-1170560D01*
G01X3617978Y-1164998D01*
G01X3608160Y-1163046D01*
G01X3527513Y-1163046D01*
G01X3517695Y-1164998D01*
G01X3509373Y-1170560D01*
G01X3503811Y-1178882D01*
G01X3501859Y-1188700D01*
G01X3501859Y-1262354D01*
G01X3483141Y-1243637D01*
G01X3483141Y-1188700D01*
G01X3481189Y-1178882D01*
G01X3475627Y-1170560D01*
G01X3467305Y-1164998D01*
G01X3457487Y-1163046D01*
G01X3376840Y-1163046D01*
G01X3367022Y-1164998D01*
G01X3358700Y-1170560D01*
G01X3353139Y-1178882D01*
G01X3351186Y-1188700D01*
G01X3110892Y-1188700D01*
G01X3110892Y-294391D01*
G01X3118426Y-304768D01*
G01X3317183Y-503526D01*
G01X3317183Y-649460D01*
G01X3315298Y-651345D01*
G01X3202877Y-651345D01*
G01X3193060Y-653298D01*
G01X3184737Y-658859D01*
G01X3179176Y-667182D01*
G01X3177223Y-676999D01*
G01X3177223Y-826999D01*
G01X3179176Y-836816D01*
G01X3184737Y-845139D01*
G01X3193060Y-850700D01*
G01X3202877Y-852653D01*
G01X3340698Y-852653D01*
G01X3547262Y-1059217D01*
G01X3555731Y-1065715D01*
G01X3565594Y-1069801D01*
G01X3576178Y-1071194D01*
G01X3774746Y-1071194D01*
G01X3774746Y-1092801D01*
G01X3776699Y-1102618D01*
G01X3782260Y-1110941D01*
G01X3790583Y-1116502D01*
G01X3800400Y-1118455D01*
G01X3870400Y-1118455D01*
G01X3880217Y-1116502D01*
G01X3888540Y-1110941D01*
G01X3894101Y-1102618D01*
G01X3896054Y-1092801D01*
G01X3896054Y-967800D01*
G01X3894101Y-957982D01*
G01X3888540Y-949660D01*
G01X3880217Y-944098D01*
G01X3870400Y-942146D01*
G01X3800400Y-942146D01*
G01X3790583Y-944098D01*
G01X3782260Y-949660D01*
G01X3776699Y-957982D01*
G01X3774746Y-967800D01*
G01X3774746Y-989406D01*
G01X3593117Y-989406D01*
G01X3418531Y-814820D01*
G01X3418531Y-676999D01*
G01X3417124Y-668620D01*
G01X3413057Y-661160D01*
G01X3406777Y-655437D01*
G01X3398971Y-652080D01*
G01X3398971Y-487745D01*
G01X3402240Y-487954D01*
G01X3457177Y-487954D01*
G01X4393943Y-1424721D01*
G01X4393943Y-2563048D01*
G01X4337298Y-2563048D01*
G01X4327480Y-2565001D01*
G01X4319158Y-2570562D01*
G01X4313596Y-2578885D01*
G01X4311644Y-2588702D01*
G01X4311644Y-2888701D01*
G01X4313596Y-2898519D01*
G01X4319158Y-2906841D01*
G01X4327480Y-2912403D01*
G01X4337298Y-2914355D01*
G01X4527297Y-2914355D01*
G01X4537115Y-2912403D01*
G01X4545437Y-2906841D01*
G01X4550998Y-2898519D01*
G01X4552951Y-2888701D01*
G01X4552951Y-2588702D01*
G01X4550998Y-2578885D01*
G01X4545437Y-2570562D01*
G01X4537115Y-2565001D01*
G01X4527297Y-2563048D01*
G01X4470651Y-2563048D01*
G01X4470651Y-1408834D01*
G01X4469345Y-1398907D01*
G01X4465513Y-1389657D01*
G01X4459418Y-1381713D01*
G01X3565659Y-487954D01*
G01X3633560Y-487954D01*
G01X3643378Y-486002D01*
G01X3651700Y-480440D01*
G01X3657261Y-472118D01*
G01X3659214Y-462300D01*
G01X3659214Y-459994D01*
G01X3705150Y-459994D01*
G01X3705150Y-480000D01*
G01X3707103Y-489818D01*
G01X3712664Y-498140D01*
G01X3720987Y-503702D01*
G01X3730804Y-505654D01*
G01X3800804Y-505654D01*
G01X3810621Y-503702D01*
G01X3818944Y-498140D01*
G01X3824505Y-489818D01*
G01X3826458Y-480000D01*
G01X3826458Y-354999D01*
G01X3824505Y-345182D01*
G01X3818944Y-336859D01*
G01X3810621Y-331298D01*
G01X3800804Y-329345D01*
G01X3730804Y-329345D01*
G01X3720987Y-331298D01*
G01X3712664Y-336859D01*
G01X3707103Y-345182D01*
G01X3705150Y-354999D01*
G01X3705150Y-378206D01*
G01X3659214Y-378206D01*
G01X3659214Y-375900D01*
G01X3657261Y-366082D01*
G01X3651700Y-357760D01*
G01X3643378Y-352198D01*
G01X3633560Y-350246D01*
G01X3552913Y-350246D01*
G01X3543095Y-352198D01*
G01X3534773Y-357760D01*
G01X3529211Y-366082D01*
G01X3527259Y-375900D01*
G01X3527259Y-449554D01*
G01X3508541Y-430837D01*
G01X3508541Y-375900D01*
G01X3506589Y-366082D01*
G01X3501027Y-357760D01*
G01X3492705Y-352198D01*
G01X3482887Y-350246D01*
G01X3402240Y-350246D01*
G01X3392422Y-352198D01*
G01X3384100Y-357760D01*
G01X3378539Y-366082D01*
G01X3376586Y-375900D01*
G01X3376586Y-447262D01*
G01X3188236Y-258913D01*
G01X3188236Y-35049D01*
G01X3195333Y-38622D01*
G01X3203182Y-39853D01*
G01X3341003Y-39853D01*
G01X3547567Y-246417D01*
G01X3556036Y-252915D01*
G01X3565899Y-257001D01*
G01X3576483Y-258394D01*
G01X3800146Y-258394D01*
G01X3800146Y-280001D01*
G01X3802099Y-289818D01*
G01X3807660Y-298141D01*
G01X3815983Y-303702D01*
G01X3825800Y-305655D01*
G01X3895800Y-305655D01*
G01X3905617Y-303702D01*
G01X3913940Y-298141D01*
G01X3919501Y-289818D01*
G01X3921454Y-280001D01*
G01X3921454Y-155000D01*
G01X3919501Y-145182D01*
G01X3913940Y-136860D01*
G01X3905617Y-131298D01*
G01X3895800Y-129346D01*
G01X3825800Y-129346D01*
G01X3815983Y-131298D01*
G01X3807660Y-136860D01*
G01X3802099Y-145182D01*
G01X3800146Y-155000D01*
G01X3800146Y-176606D01*
G01X3593422Y-176606D01*
G01X3418836Y-2020D01*
G01X3418836Y135801D01*
G01X3416883Y145618D01*
G01X3411322Y153941D01*
G01X3402999Y159502D01*
G01X3393182Y161455D01*
G01X3372513Y161455D01*
G01X3595761Y384703D01*
G01X3813582Y384703D01*
G01X3823400Y386656D01*
G01X3831723Y392217D01*
G01X3837284Y400539D01*
G01X3839236Y410357D01*
G01X3839236Y660357D01*
G01X3844981Y660357D01*
G01X3844981Y410357D01*
G01X3846934Y400539D01*
G01X3852495Y392217D01*
G01X3860818Y386656D01*
G01X3870635Y384703D01*
G01X4120635Y384703D01*
G01X4120635Y384703D01*
G01X4130453Y386656D01*
G01X4138775Y392217D01*
G01X4144336Y400539D01*
G01X4146289Y410357D01*
G01X4146289Y660357D01*
G01X4168174Y660357D01*
G01X4168174Y410357D01*
G01X4170127Y400539D01*
G01X4175688Y392217D01*
G01X4184010Y386656D01*
G01X4193828Y384703D01*
G01X4443828Y384703D01*
G01X4443828Y384703D01*
G01X4453645Y386656D01*
G01X4461968Y392217D01*
G01X4467529Y400539D01*
G01X4469482Y410357D01*
G01X4469482Y660357D01*
G01X4467529Y670174D01*
G01X4461968Y678497D01*
G01X4453645Y684058D01*
G01X4443828Y686011D01*
G01X4193828Y686011D01*
G01X4184010Y684058D01*
G01X4175688Y678497D01*
G01X4170127Y670174D01*
G01X4168174Y660357D01*
G01X4146289Y660357D01*
G01X4144336Y670174D01*
G01X4138775Y678497D01*
G01X4130453Y684058D01*
G01X4120635Y686011D01*
G01X3870635Y686011D01*
G01X3860818Y684058D01*
G01X3852495Y678497D01*
G01X3846934Y670174D01*
G01X3844981Y660357D01*
G01X3839236Y660357D01*
G01X3837284Y670174D01*
G01X3831723Y678497D01*
G01X3823400Y684058D01*
G01X3813582Y686011D01*
G01X3563582Y686011D01*
G01X3553765Y684058D01*
G01X3545442Y678497D01*
G01X3539881Y670174D01*
G01X3537928Y660357D01*
G01X3537928Y442536D01*
G01X3534131Y438739D01*
G01X3534131Y660357D01*
G01X3532179Y670174D01*
G01X3526617Y678497D01*
G01X3518295Y684058D01*
G01X3508477Y686011D01*
G01X3258477Y686011D01*
G01X3248660Y684058D01*
G01X3240337Y678497D01*
G01X3234776Y670174D01*
G01X3232823Y660357D01*
G01X3232823Y410357D01*
G01X3234776Y400539D01*
G01X3240337Y392217D01*
G01X3248660Y386656D01*
G01X3258477Y384703D01*
G01X3317183Y384703D01*
G01X3317183Y376084D01*
G01X3118426Y177326D01*
G01X3110892Y166949D01*
G01X3110892Y384703D01*
G01X3194998Y384703D01*
G01X3204815Y386656D01*
G01X3213138Y392217D01*
G01X3218699Y400539D01*
G01X3220652Y410357D01*
G01X3220652Y660357D01*
G01X3218699Y670174D01*
G01X3213138Y678497D01*
G01X3204815Y684058D01*
G01X3194998Y686011D01*
G01X2944998Y686011D01*
G01X2935181Y684058D01*
G01X2926858Y678497D01*
G01X2921297Y670174D01*
G01X2919344Y660357D01*
G01X2919344Y410357D01*
G01X2603754Y410357D01*
G01X2603754Y762000D01*
G01X4749546Y762000D01*
G01X4749546Y-6527800D01*
G01X4748314Y-6543557D01*
G01X4616415Y-6543557D01*
G01X4631595Y-6529741D01*
G01X4644089Y-6513456D01*
G01X4653501Y-6495215D01*
G01X4659535Y-6475596D01*
G01X4662000Y-6455218D01*
G01X4660817Y-6434727D01*
G01X4656024Y-6414768D01*
G01X4647773Y-6395974D01*
G01X4636324Y-6378937D01*
G01X4622039Y-6364198D01*
G01X4605370Y-6352220D01*
G01X4586843Y-6343384D01*
G01X4567045Y-6337968D01*
G01X4546600Y-6336144D01*
G01X4526155Y-6337968D01*
G01X4506357Y-6343384D01*
G01X4487830Y-6352220D01*
G01X4471161Y-6364198D01*
G01X4456876Y-6378937D01*
G01X4445427Y-6395974D01*
G01X4437176Y-6414768D01*
G01X4432383Y-6434727D01*
G01X4431200Y-6455218D01*
G01X4433665Y-6475596D01*
G01X4439699Y-6495215D01*
G01X4449111Y-6513456D01*
G01X4461605Y-6529741D01*
G01X4476785Y-6543557D01*
G01X4249247Y-6543557D01*
G01X4249247Y-6477306D01*
G01X4248085Y-6463241D01*
G01X4244628Y-6449558D01*
G01X4238972Y-6436628D01*
G01X4231269Y-6424803D01*
G01X4238972Y-6412978D01*
G01X4244628Y-6400048D01*
G01X4248085Y-6386365D01*
G01X4249247Y-6372300D01*
G01X4249247Y-6302300D01*
G01X4247438Y-6284787D01*
G01X4242085Y-6268013D01*
G01X4233417Y-6252689D01*
G01X4221798Y-6239460D01*
G01X4207719Y-6228887D01*
G01X4191777Y-6221416D01*
G01X4174643Y-6217362D01*
G01X4157043Y-6216897D01*
G01X4162388Y-6204273D01*
G01X4165651Y-6190959D01*
G01X4166748Y-6177294D01*
G01X4166748Y-6147294D01*
G01X4164876Y-6129486D01*
G01X4159343Y-6112455D01*
G01X4150390Y-6096948D01*
G01X4138408Y-6083641D01*
G01X4123921Y-6073116D01*
G01X4107563Y-6065832D01*
G01X4090047Y-6062109D01*
G01X4072141Y-6062109D01*
G01X4054626Y-6065832D01*
G01X4038267Y-6073116D01*
G01X4023781Y-6083641D01*
G01X4011799Y-6096948D01*
G01X4002845Y-6112455D01*
G01X3997312Y-6129486D01*
G01X3995440Y-6147294D01*
G01X3995440Y-6177294D01*
G01X3997250Y-6194807D01*
G01X4002602Y-6211581D01*
G01X4011271Y-6226905D01*
G01X4022890Y-6240134D01*
G01X4036968Y-6250707D01*
G01X4052911Y-6258178D01*
G01X4070044Y-6262232D01*
G01X4087645Y-6262697D01*
G01X4082300Y-6275321D01*
G01X4079037Y-6288635D01*
G01X4077940Y-6302300D01*
G01X4077940Y-6372300D01*
G01X4079102Y-6386365D01*
G01X4082559Y-6400048D01*
G01X4088215Y-6412978D01*
G01X4095918Y-6424803D01*
G01X4088215Y-6436628D01*
G01X4082559Y-6449558D01*
G01X4079102Y-6463241D01*
G01X4077940Y-6477306D01*
G01X4077940Y-6543557D01*
G01X3364260Y-6543557D01*
G01X3364260Y-6477306D01*
G01X3363098Y-6463241D01*
G01X3359641Y-6449558D01*
G01X3353985Y-6436628D01*
G01X3346282Y-6424803D01*
G01X3353985Y-6412978D01*
G01X3359641Y-6400048D01*
G01X3363098Y-6386365D01*
G01X3364260Y-6372300D01*
G01X3364260Y-6302300D01*
G01X3363163Y-6288635D01*
G01X3359900Y-6275321D01*
G01X3354555Y-6262697D01*
G01X3372156Y-6262232D01*
G01X3389289Y-6258178D01*
G01X3405232Y-6250707D01*
G01X3419310Y-6240134D01*
G01X3430929Y-6226905D01*
G01X3433138Y-6223000D01*
G01X3525246Y-6223000D01*
G01X3526708Y-6235729D01*
G01X3531016Y-6247795D01*
G01X3537948Y-6258570D01*
G01X3537948Y-6292296D01*
G01X3539901Y-6302114D01*
G01X3545462Y-6310436D01*
G01X3553785Y-6315997D01*
G01X3563602Y-6317950D01*
G01X3618603Y-6317950D01*
G01X3627852Y-6316225D01*
G01X3637101Y-6317950D01*
G01X3675102Y-6317950D01*
G01X3682119Y-6316972D01*
G01X3688601Y-6314112D01*
G01X3695083Y-6316972D01*
G01X3702100Y-6317950D01*
G01X3740100Y-6317950D01*
G01X3747117Y-6316972D01*
G01X3753599Y-6314112D01*
G01X3760081Y-6316972D01*
G01X3767098Y-6317950D01*
G01X3805099Y-6317950D01*
G01X3814916Y-6315997D01*
G01X3823239Y-6310436D01*
G01X3828800Y-6302114D01*
G01X3830753Y-6292296D01*
G01X3830753Y-6172297D01*
G01X3828800Y-6162479D01*
G01X3823239Y-6154156D01*
G01X3814916Y-6148595D01*
G01X3805099Y-6146643D01*
G01X3767098Y-6146643D01*
G01X3760081Y-6147621D01*
G01X3753599Y-6150481D01*
G01X3747117Y-6147621D01*
G01X3740100Y-6146643D01*
G01X3702100Y-6146643D01*
G01X3695083Y-6147621D01*
G01X3688601Y-6150481D01*
G01X3682119Y-6147621D01*
G01X3675102Y-6146643D01*
G01X3675102Y-6146643D01*
G01X3637101Y-6146643D01*
G01X3627852Y-6148368D01*
G01X3618603Y-6146643D01*
G01X3563602Y-6146643D01*
G01X3553785Y-6148595D01*
G01X3545462Y-6154156D01*
G01X3539901Y-6162479D01*
G01X3537948Y-6172297D01*
G01X3537948Y-6187430D01*
G01X3531016Y-6198205D01*
G01X3526708Y-6210271D01*
G01X3525246Y-6223000D01*
G01X3433138Y-6223000D01*
G01X3439598Y-6211581D01*
G01X3444950Y-6194807D01*
G01X3446760Y-6177294D01*
G01X3446760Y-6147294D01*
G01X3444888Y-6129486D01*
G01X3439355Y-6112455D01*
G01X3430401Y-6096948D01*
G01X3418419Y-6083641D01*
G01X3403933Y-6073116D01*
G01X3387574Y-6065832D01*
G01X3370059Y-6062109D01*
G01X3352153Y-6062109D01*
G01X3334637Y-6065832D01*
G01X3318279Y-6073116D01*
G01X3303792Y-6083641D01*
G01X3291810Y-6096948D01*
G01X3282857Y-6112455D01*
G01X3277324Y-6129486D01*
G01X3275452Y-6147294D01*
G01X3275452Y-6177294D01*
G01X3276549Y-6190959D01*
G01X3279812Y-6204273D01*
G01X3285157Y-6216897D01*
G01X3267557Y-6217362D01*
G01X3250423Y-6221416D01*
G01X3234481Y-6228887D01*
G01X3220402Y-6239460D01*
G01X3208783Y-6252689D01*
G01X3200115Y-6268013D01*
G01X3194762Y-6284787D01*
G01X3192953Y-6302300D01*
G01X3192953Y-6372300D01*
G01X3194115Y-6386365D01*
G01X3197572Y-6400048D01*
G01X3203228Y-6412978D01*
G01X3210931Y-6424803D01*
G01X3203228Y-6436628D01*
G01X3197572Y-6449558D01*
G01X3194115Y-6463241D01*
G01X3192953Y-6477306D01*
G01X3192953Y-6543557D01*
G37*
G54D10*
G01X4120381Y535357D02*
G01X4146289Y535357D01*
G01X3995635Y660103D02*
G01X3995635Y686011D01*
G01X3995635Y410611D02*
G01X3995635Y384703D01*
G04 Copper End*

G04 Pad Start*
G54D11*
G01X4318828Y535357D03*
G54D12*
G01X4064000Y-5251298D03*
G01X4064000Y-5391302D03*
G01X3073400Y-4921098D03*
G01X3073400Y-5061102D03*
G54D13*
G01X3340100Y-5937402D03*
G01X3340100Y-5797398D03*
G54D11*
G01X3688582Y535357D03*
G01X3383477Y535357D03*
G01X3995635Y535357D03*
G01X3069998Y535357D03*
G54D14*
G01X3765804Y-417500D03*
G01X3955796Y-417500D03*
G01X3860800Y-217500D03*
G01X3740404Y-1230300D03*
G01X3930396Y-1230300D03*
G01X3835400Y-1030300D03*
G01X3740404Y-2055800D03*
G01X3930396Y-2055800D03*
G01X3835400Y-1855800D03*
G54D15*
G01X4255364Y-5588000D03*
G01X4406036Y-5588000D03*
G54D16*
G01X2882036Y-4902200D03*
G01X2731364Y-4902200D03*
G01X2882036Y-5199273D03*
G01X2731364Y-5199273D03*
G54D15*
G01X3442564Y-419100D03*
G01X3593236Y-419100D03*
G01X3417164Y-1231900D03*
G01X3567836Y-1231900D03*
G01X3404464Y-2057400D03*
G01X3555136Y-2057400D03*
G54D17*
G01X4098181Y60801D03*
G01X3298182Y60801D03*
G01X4108399Y-2387600D03*
G01X3308401Y-2387600D03*
G01X4097875Y-751999D03*
G01X3297877Y-751999D03*
G01X4101896Y-1577499D03*
G01X3301898Y-1577499D03*
G54D18*
G01X4217581Y-5052200D03*
G01X4267594Y-5052200D03*
G01X4317581Y-5052200D03*
G01X4367594Y-5052200D03*
G54D20*
G01X4442600Y-4977193D03*
G01X4442600Y-4927181D03*
G01X4442600Y-4877194D03*
G01X4442600Y-4827181D03*
G54D18*
G01X4367594Y-4752200D03*
G01X4317581Y-4752200D03*
G01X4267594Y-4752200D03*
G01X4217581Y-4752200D03*
G54D20*
G01X4142600Y-4827181D03*
G01X4142600Y-4877194D03*
G01X4142600Y-4927181D03*
G01X4142600Y-4977193D03*
G54D21*
G01X4292587Y-4902187D03*
G54D22*
G01X4432297Y-2738702D03*
G01X4178300Y-2738702D03*
G01X3924300Y-2738702D03*
G01X3670300Y-2738702D03*
G01X3416300Y-2738702D03*
G01X3162300Y-2738702D03*
G01X2908303Y-2738702D03*
G01X2908303Y-4398696D03*
G01X3162300Y-4398696D03*
G01X3416300Y-4398696D03*
G01X3670300Y-4398696D03*
G01X3924300Y-4398696D03*
G01X4178300Y-4398696D03*
G01X4432297Y-4398696D03*
G54D23*
G01X3223751Y-5422490D03*
G54D24*
G01X3098834Y-5217588D03*
G01X3148821Y-5217588D03*
G01X3198834Y-5217588D03*
G01X3248821Y-5217588D03*
G01X3298834Y-5217588D03*
G01X3348821Y-5217588D03*
G54D25*
G01X3428018Y-5297395D03*
G01X3428018Y-5347408D03*
G01X3428018Y-5397395D03*
G01X3428018Y-5447407D03*
G01X3428018Y-5497395D03*
G01X3428018Y-5547407D03*
G54D24*
G01X3348821Y-5627214D03*
G01X3298834Y-5627214D03*
G01X3248821Y-5627214D03*
G01X3198834Y-5627214D03*
G01X3148821Y-5627214D03*
G01X3098834Y-5627214D03*
G54D25*
G01X3019688Y-5547382D03*
G01X3019688Y-5497395D03*
G01X3019688Y-5447382D03*
G01X3019688Y-5397395D03*
G01X3019688Y-5347382D03*
G01X3019688Y-5297395D03*
G54D26*
G01X2731691Y-5054600D03*
G01X2856309Y-5054600D03*
G01X2731691Y-5346700D03*
G01X2856309Y-5346700D03*
G54D27*
G01X3591103Y-6232296D03*
G54D28*
G01X3656101Y-6232296D03*
G01X3721100Y-6232296D03*
G01X3786099Y-6232296D03*
G54D27*
G01X3851097Y-6232296D03*
G54D29*
G01X3361106Y-6162294D03*
G01X4081094Y-6162294D03*
G54D30*
G01X4163593Y-6512306D03*
G01X3278607Y-6512306D03*
G01X3278607Y-6337300D03*
G01X4163593Y-6337300D03*
G54D31*
G01X4435704Y-5321300D03*
G01X4225696Y-5321300D03*
G54D32*
G01X3411995Y-4711700D03*
G01X3192005Y-4711700D03*
G54D33*
G01X3594100Y-5497500D03*
G01X3594100Y-5297500D03*
G54D12*
G01X4572000Y-4768698D03*
G01X4572000Y-4908702D03*
G54D34*
G01X3384702Y-4914900D03*
G01X3244698Y-4914900D03*
G54D13*
G01X3568700Y-5099202D03*
G01X3568700Y-4959198D03*
G54D12*
G01X3670300Y-5797398D03*
G01X3670300Y-5937402D03*
G54D34*
G01X3384702Y-5092700D03*
G01X3244698Y-5092700D03*
G54D35*
G01X3022600Y-5942736D03*
G01X3022600Y-5792064D03*
G01X3175000Y-5942736D03*
G01X3175000Y-5792064D03*
G54D15*
G01X2731364Y-5499100D03*
G01X2882036Y-5499100D03*
G01X2731364Y-5664200D03*
G01X2882036Y-5664200D03*
G54D35*
G01X3505200Y-5942736D03*
G01X3505200Y-5792064D03*
G04 Pad End*

G04 Via Start*
G54D36*
G01X3255725Y-5723239D03*
G54D37*
G01X3184734Y-5710986D03*
G54D36*
G01X2855429Y-5059420D03*
G01X3222867Y-5213306D03*
G01X2882036Y-5199273D03*
G01X3325543Y-5793057D03*
G01X3073400Y-5061102D03*
G01X3581400Y-6223000D03*
G01X3442877Y-5673369D03*
G01X3568700Y-5105400D03*
G01X3924300Y-4411396D03*
G01X4013200Y-4978400D03*
G01X4076700Y-5727700D03*
G01X2867914Y-6279397D03*
G01X2867914Y-6025397D03*
G01X2867914Y-4755397D03*
G01X2867914Y-3993397D03*
G01X2867914Y-3739397D03*
G01X2867914Y-3485397D03*
G01X2867914Y-3231397D03*
G01X2867914Y-2977397D03*
G01X2867914Y-2469397D03*
G01X2867914Y-2215397D03*
G01X2867914Y-1961397D03*
G01X2867914Y-1707397D03*
G01X2867914Y-1453397D03*
G01X2867914Y-1199397D03*
G01X2867914Y-945397D03*
G01X2867914Y-691397D03*
G01X2867914Y-437397D03*
G01X2867914Y-183397D03*
G01X2867914Y70603D03*
G01X2867914Y324603D03*
G01X2867914Y578603D03*
G01X3121914Y-6279397D03*
G01X3121914Y-3993397D03*
G01X3121914Y-3739397D03*
G01X3121914Y-3485397D03*
G01X3121914Y-3231397D03*
G01X3121914Y-2977397D03*
G01X3121914Y-2469397D03*
G01X3121914Y-2215397D03*
G01X3121914Y-1961397D03*
G01X3121914Y-1707397D03*
G01X3375914Y-3993397D03*
G01X3375914Y-3739397D03*
G01X3375914Y-3485397D03*
G01X3375914Y-3231397D03*
G01X3375914Y-2977397D03*
G01X3375914Y-2215397D03*
G01X3375914Y-183397D03*
G01X3629914Y-4755397D03*
G01X3629914Y-3993397D03*
G01X3629914Y-3739397D03*
G01X3629914Y-3485397D03*
G01X3629914Y-3231397D03*
G01X3629914Y-2977397D03*
G01X3629914Y-2469397D03*
G01X3629914Y70603D03*
G01X3629914Y324603D03*
G01X3883914Y-6025397D03*
G01X3883914Y-5517397D03*
G01X3883914Y-5263397D03*
G01X3883914Y-4755397D03*
G01X3883914Y-3993397D03*
G01X3883914Y-3739397D03*
G01X3883914Y-3485397D03*
G01X3883914Y-3231397D03*
G01X3883914Y-2977397D03*
G01X3883914Y-2215397D03*
G01X3883914Y-691397D03*
G01X3883914Y70603D03*
G01X3883914Y324603D03*
G01X4137914Y-6025397D03*
G01X4391914Y-6279397D03*
G01X4391914Y-6025397D03*
G01X4391914Y-5771397D03*
G01X4391914Y-3993397D03*
G01X4391914Y-3739397D03*
G01X4391914Y-3485397D03*
G01X4391914Y-3231397D03*
G01X4391914Y-2977397D03*
G01X4391914Y-1199397D03*
G01X4391914Y-945397D03*
G01X4391914Y-691397D03*
G01X4391914Y-437397D03*
G01X4391914Y-183397D03*
G01X4391914Y70603D03*
G01X4391914Y324603D03*
G01X4645914Y-6279397D03*
G01X4645914Y-6025397D03*
G01X4645914Y-5771397D03*
G01X4645914Y-5517397D03*
G01X4645914Y-5263397D03*
G01X4645914Y-5009397D03*
G01X4645914Y-4501397D03*
G01X4645914Y-4247397D03*
G01X4645914Y-3993397D03*
G01X4645914Y-3739397D03*
G01X4645914Y-3485397D03*
G01X4645914Y-3231397D03*
G01X4645914Y-2977397D03*
G01X4645914Y-2723397D03*
G01X4645914Y-2469397D03*
G01X4645914Y-2215397D03*
G01X4645914Y-1961397D03*
G01X4645914Y-1707397D03*
G01X4645914Y-1453397D03*
G01X4645914Y-1199397D03*
G01X4645914Y-945397D03*
G01X4645914Y-691397D03*
G01X4645914Y-437397D03*
G01X4645914Y-183397D03*
G01X4645914Y70603D03*
G01X4645914Y324603D03*
G01X4645914Y578603D03*
G01X3375052Y-1061317D03*
G01X3629052Y-807317D03*
G01X3629052Y-1569317D03*
G01X3883052Y-1569317D03*
G01X3384702Y-4914900D03*
G01X3384702Y-5092700D03*
G01X3314705Y-5347408D03*
G01X3212049Y-5347408D03*
G01X3219052Y-5422484D03*
G01X3315481Y-5422490D03*
G01X3315481Y-5499997D03*
G01X4343400Y-4851400D03*
G01X4343400Y-4933324D03*
G01X4267594Y-4882474D03*
G01X2731364Y-5499100D03*
G01X2727199Y-5664199D03*
G01X3594100Y-5555203D03*
G01X3594100Y-5461729D03*
G01X3540269Y-5505246D03*
G04 Via End*

G04 Track Start*
G54D38*
G01X3688582Y535357D02*
G01X3298182Y144957D01*
G01X3298182Y60801D01*
G01X3576483Y-217500D01*
G01X3860800Y-217500D01*
G01X3765804Y-417500D02*
G01X3764204Y-419100D01*
G01X3593236Y-419100D01*
G01X3297877Y-751999D02*
G01X3576178Y-1030300D01*
G01X3835400Y-1030300D01*
G01X3740404Y-1230300D02*
G01X3738804Y-1231900D01*
G01X3567836Y-1231900D01*
G01X3069998Y535357D02*
G01X3069998Y-1345599D01*
G01X3301898Y-1577499D01*
G01X3580199Y-1855800D01*
G01X3835400Y-1855800D01*
G01X3740404Y-2055800D02*
G01X3738804Y-2057400D01*
G01X3555136Y-2057400D01*
G01X3404464Y-2057400D02*
G01X3924300Y-2577236D01*
G54D39*
G01X3428018Y-5297395D02*
G01X3428018Y-5347408D01*
G54D10*
G01X2856309Y-5346700D02*
G01X3019006Y-5346700D01*
G01X3019688Y-5347382D01*
G01X2882036Y-5499100D02*
G01X2926937Y-5499100D01*
G01X2968131Y-5540295D01*
G01X3012601Y-5540295D01*
G01X3019688Y-5547382D01*
G01X2888082Y-5638800D02*
G01X3087248Y-5638800D01*
G01X3098834Y-5627214D01*
G01X3098834Y-5217588D02*
G01X3098834Y-5218249D01*
G01X3019688Y-5297395D01*
G01X3438731Y-5508108D02*
G01X3441700Y-5508108D01*
G01X3073400Y-5792064D02*
G01X3054350Y-5773014D01*
G01X3141733Y-5678770D02*
G01X3141733Y-5634302D01*
G01X3148821Y-5627214D01*
G01X3054350Y-5773014D02*
G01X3054350Y-5766154D01*
G01X3141733Y-5678770D01*
G01X3198834Y-5627214D02*
G01X3198834Y-5686107D01*
G01X3197434Y-5687507D01*
G54D37*
G01X3439987Y-5509363D02*
G01X3439987Y-5543414D01*
G54D10*
G01X3438731Y-5508108D02*
G01X3439987Y-5509363D01*
G01X3428018Y-5497395D02*
G01X3438731Y-5508108D01*
G01X2731364Y-5199273D02*
G01X2731364Y-5346372D01*
G01X2731691Y-5346700D01*
G54D38*
G01X3358077Y509957D02*
G01X3358077Y359145D01*
G01X3147342Y148410D01*
G01X3147342Y-275852D01*
G01X3358077Y-486587D01*
G01X3358077Y-666399D01*
G01X3297877Y-726599D01*
G01X3383478Y535356D02*
G01X3358077Y509957D01*
G01X3297877Y-726599D02*
G01X3297877Y-751999D01*
G54D10*
G01X2882036Y-4894473D02*
G01X2882036Y-4940244D01*
G01X2947109Y-5005317D01*
G01X2947109Y-5117391D01*
G01X2882036Y-5182464D02*
G01X2882036Y-5199273D01*
G01X2947109Y-5117391D02*
G01X2882036Y-5182464D01*
G01X2731364Y-4902200D02*
G01X2731364Y-5054272D01*
G01X2731691Y-5054600D01*
G54D37*
G01X3244698Y-4914900D02*
G01X3244698Y-5092700D01*
G54D38*
G01X3924300Y-2577236D02*
G01X3924300Y-2751402D01*
G54D10*
G01X3197434Y-5687507D02*
G01X3197434Y-5698286D01*
G01X3184734Y-5710986D01*
G01X3305923Y-5634303D02*
G01X3298834Y-5627214D01*
G01X3305922Y-5678771D02*
G01X3305922Y-5634302D01*
G01X3505200Y-5942736D02*
G01X3469891Y-5942736D01*
G01X3396657Y-5869502D01*
G01X2967843Y-5860287D02*
G01X2951500Y-5843944D01*
G01X2951500Y-5733663D01*
G01X2882036Y-5664200D01*
G01X3396657Y-5869502D02*
G01X3096592Y-5869502D01*
G01X3087377Y-5860287D01*
G01X2967843Y-5860287D01*
G01X3175000Y-5792064D02*
G01X3179033Y-5792064D01*
G01X3238034Y-5733063D01*
G01X3505200Y-5792064D02*
G01X3504206Y-5793057D01*
G01X3325543Y-5793057D01*
G01X3325543Y-5698391D01*
G01X3305922Y-5678771D01*
G01X3568700Y-5105400D02*
G01X3568700Y-5099202D01*
G01X4217581Y-4752200D02*
G01X4267594Y-4752200D01*
G01X4317581Y-4752200D01*
G01X4013200Y-4978400D02*
G01X4013200Y-4971325D01*
G01X4099245Y-4885280D01*
G01X4134514Y-4885280D02*
G01X4142600Y-4877194D01*
G01X4099245Y-4885280D02*
G01X4134514Y-4885280D01*
G01X4217581Y-5052200D02*
G01X4267594Y-5052200D01*
G01X4435704Y-5220310D02*
G01X4435704Y-5321300D01*
G01X4267594Y-5052200D02*
G01X4275680Y-5060286D01*
G01X4275680Y-5095555D01*
G01X4300225Y-5120100D01*
G01X4335494Y-5120100D01*
G01X4435704Y-5220310D01*
G01X4064000Y-5251298D02*
G01X4155694Y-5251298D01*
G01X4225696Y-5321300D01*
G01X4064000Y-5251298D02*
G01X4013200Y-5200498D01*
G01X4013200Y-4978400D01*
G01X4225696Y-5321300D02*
G01X4255364Y-5350967D01*
G01X4255364Y-5588000D01*
G01X4406036Y-5588000D02*
G01X4494837Y-5499200D01*
G01X4512260Y-5499200D01*
G01X4528604Y-5482856D01*
G01X4528604Y-5159744D01*
G01X4512260Y-5143400D01*
G01X4458794Y-5143400D01*
G01X4367594Y-5052200D01*
G01X4572000Y-4768698D02*
G01X4555503Y-4752200D01*
G01X4367594Y-4752200D01*
G01X4142600Y-4827181D02*
G01X4217581Y-4752200D01*
G54D40*
G01X3670300Y-5797398D02*
G01X3997418Y-5797398D01*
G01X4067116Y-5727700D01*
G01X4076700Y-5727700D01*
G54D10*
G01X4231299Y-2474156D02*
G01X4178300Y-2527156D01*
G01X4178300Y-2751402D01*
G01X3417164Y-1231900D02*
G01X4231299Y-2046036D01*
G01X4231299Y-2474156D01*
G01X3442564Y-419100D02*
G01X4432297Y-1408834D01*
G01X4432297Y-2751402D01*
G01X3019688Y-5397395D02*
G01X3019688Y-5447382D01*
G01X3019688Y-5497395D01*
G01X3348821Y-5217588D02*
G01X3298834Y-5217588D01*
G01X3298834Y-5347408D01*
G01X3223751Y-5422490D01*
G01X3384702Y-5092700D02*
G01X3384702Y-5181707D01*
G01X3348821Y-5217588D01*
G01X4442600Y-4827181D02*
G01X4442600Y-4877194D01*
G01X4442600Y-4927181D01*
G01X4442600Y-4977193D01*
G01X4142600Y-4927181D02*
G01X4142600Y-4977193D01*
G01X4142600Y-4927181D02*
G01X4267594Y-4927181D01*
G01X4292587Y-4902187D01*
G01X4317581Y-4877194D02*
G01X4292587Y-4902187D01*
G01X4442600Y-4877194D02*
G01X4317581Y-4877194D01*
G01X3219052Y-5422484D02*
G01X3193964Y-5397395D01*
G01X3019688Y-5397395D01*
G54D37*
G01X3219298Y-5118100D02*
G01X3219298Y-5213465D01*
G01X3244698Y-5092700D02*
G01X3219298Y-5118100D01*
G01X3219298Y-5213465D02*
G01X3223421Y-5217588D01*
G01X3243235Y-5217588D01*
G54D10*
G01X3198834Y-5217588D02*
G01X3223421Y-5217588D01*
G54D37*
G01X3192005Y-4724400D02*
G01X3231998Y-4764392D01*
G01X3231998Y-4902200D01*
G01X3192005Y-4711700D02*
G01X3192005Y-4724400D01*
G01X3231998Y-4902200D02*
G01X3244698Y-4914900D01*
G54D39*
G01X3428018Y-5297395D02*
G01X3428018Y-5271995D01*
G01X3458952Y-5151887D02*
G01X3458952Y-5033513D01*
G01X3454400Y-5028961D01*
G01X3454400Y-4978639D01*
G01X3458952Y-4974087D01*
G01X3428018Y-5271995D02*
G01X3428018Y-5182821D01*
G01X3458952Y-5151887D01*
G01X3458952Y-4974087D02*
G01X3458952Y-4758658D01*
G01X3411995Y-4711700D01*
G01X3568700Y-4959198D02*
G01X3558850Y-4959198D01*
G01X3489450Y-5028596D01*
G01X3489450Y-5210563D01*
G01X3428018Y-5271995D01*
G01X3083296Y-5070998D02*
G01X3083296Y-5083696D01*
G01X3120617Y-5121017D01*
G01X3120617Y-5132213D01*
G01X3073400Y-5061102D02*
G01X3083296Y-5070998D01*
G01X3120617Y-5132213D02*
G01X3149585Y-5161181D01*
G01X3149585Y-5216824D01*
G01X3148821Y-5217588D01*
G54D10*
G01X3238034Y-5733063D02*
G01X3245901Y-5733063D01*
G01X3255725Y-5723239D01*
G01X3248823Y-5627215D02*
G01X3248823Y-5716337D01*
G01X3255725Y-5723239D01*
G01X3348821Y-5627214D02*
G01X3394976Y-5673369D01*
G01X3442877Y-5673369D01*
G01X3702050Y-2717749D02*
G01X3702050Y-2719652D01*
G01X3308401Y-2387600D02*
G01X3371901Y-2387600D01*
G01X3702050Y-2719652D02*
G01X3670300Y-2751402D01*
G01X3702050Y-2717749D02*
G01X3371901Y-2387600D01*
G54D41*
G01X3428018Y-5547407D02*
G01X3670300Y-5789689D01*
G01X3670300Y-5797398D01*
G54D37*
G01X4142600Y-4822593D02*
G01X4068456Y-4822593D01*
G01X3942100Y-4948949D01*
G01X3942100Y-4949500D01*
G01X3594100Y-5297500D01*
G01X3428018Y-5421223D02*
G01X3470377Y-5421223D01*
G01X3594100Y-5297500D01*
G54D10*
G01X3428018Y-5447407D02*
G01X3428018Y-5421223D01*
G01X3428018Y-5397395D01*
G04 Track End*

M02*

