G04 Layer: TopSolderMaskLayer*
G04 EasyEDA Pro v2.2.38.8, 2025-05-13 16:51:06*
G04 Gerber Generator version 0.3*
G04 Scale: 100 percent, Rotated: No, Reflected: No*
G04 Dimensions in millimeters*
G04 Leading zeros omitted, absolute positions, 4 integers and 5 decimals*
%FSLAX45Y45*%
%MOMM*%
%AMRoundRect*1,1,$1,$2,$3*1,1,$1,$4,$5*1,1,$1,0-$2,0-$3*1,1,$1,0-$4,0-$5*20,1,$1,$2,$3,$4,$5,0*20,1,$1,$4,$5,0-$2,0-$3,0*20,1,$1,0-$2,0-$3,0-$4,0-$5,0*20,1,$1,0-$4,0-$5,$2,$3,0*4,1,4,$2,$3,$4,$5,0-$2,0-$3,0-$4,0-$5,$2,$3,0*%
%ADD10RoundRect,0.09815X-1.25192X1.25192X1.25192X1.25192*%
%ADD11RoundRect,0.09164X-0.45518X-0.40518X-0.45518X0.40518*%
%ADD12RoundRect,0.09164X0.45518X0.40518X0.45518X-0.40518*%
%ADD13RoundRect,0.09049X0.35575X0.63076X0.35575X-0.63076*%
%ADD14RoundRect,0.09138X0.40835X-0.43712X-0.40835X-0.43712*%
%ADD15RoundRect,0.09138X-0.40835X0.43712X0.40835X0.43712*%
%ADD16RoundRect,0.0959X0.95305X-0.75305X-0.95305X-0.75305*%
%ADD17O,0.3852X0.9016*%
%ADD18O,0.38161X0.9016*%
%ADD19O,0.9016X0.38161*%
%ADD20RoundRect,0.09618X-0.85271X-0.85271X-0.85271X0.85271*%
%ADD21RoundRect,0.09706X0.95247X-1.50247X-0.95247X-1.50247*%
%ADD22RoundRect,0.09667X-1.40166X1.40166X1.40166X1.40166*%
%ADD23RoundRect,0.08X-0.15999X0.41X0.15999X0.41*%
%ADD24RoundRect,0.08X-0.41X0.16X0.41X0.16*%
%ADD25RoundRect,0.08906X0.38148X-0.30647X-0.38148X-0.30647*%
%ADD26RoundRect,0.08669X-0.28168X0.60667X0.28168X0.60667*%
%ADD27RoundRect,0.08278X-0.19863X0.60862X0.19863X0.60862*%
%ADD28O,1.30002X1.60002*%
%ADD29O,1.30002X2.00002*%
%ADD30RoundRect,0.09508X-0.65346X1.50346X0.65346X1.50346*%
%ADD31RoundRect,0.09336X-0.50432X-1.10432X-0.50432X1.10432*%
%ADD32RoundRect,0.09495X0.67833X0.70833X0.67833X-0.70833*%
%ADD33RoundRect,0.09164X-0.40518X0.45518X0.40518X0.45518*%
%ADD34RoundRect,0.09138X0.43712X0.40835X0.43712X-0.40835*%
G75*


G04 PolygonModel Start*
G36*
G01X4079598Y-6087313D02*
G01X4076611Y-6087463D01*
G01X4073634Y-6087760D01*
G01X4070675Y-6088207D01*
G01X4067744Y-6088799D01*
G01X4064843Y-6089538D01*
G01X4061986Y-6090420D01*
G01X4059174Y-6091443D01*
G01X4056418Y-6092604D01*
G01X4053721Y-6093902D01*
G01X4051094Y-6095335D01*
G01X4048542Y-6096894D01*
G01X4046070Y-6098578D01*
G01X4043685Y-6100387D01*
G01X4041394Y-6102309D01*
G01X4039199Y-6104344D01*
G01X4037112Y-6106485D01*
G01X4035130Y-6108728D01*
G01X4033266Y-6111067D01*
G01X4031521Y-6113496D01*
G01X4029898Y-6116010D01*
G01X4028402Y-6118601D01*
G01X4027035Y-6121263D01*
G01X4025806Y-6123988D01*
G01X4024714Y-6126775D01*
G01X4023759Y-6129609D01*
G01X4022949Y-6132490D01*
G01X4022283Y-6135406D01*
G01X4021765Y-6138352D01*
G01X4021392Y-6141321D01*
G01X4021168Y-6144306D01*
G01X4021094Y-6147295D01*
G01X4021094Y-6177295D01*
G01X4021168Y-6180285D01*
G01X4021392Y-6183269D01*
G01X4021765Y-6186239D01*
G01X4022283Y-6189185D01*
G01X4022949Y-6192101D01*
G01X4023759Y-6194981D01*
G01X4024714Y-6197816D01*
G01X4025806Y-6200602D01*
G01X4027035Y-6203328D01*
G01X4028402Y-6205990D01*
G01X4029898Y-6208580D01*
G01X4031521Y-6211095D01*
G01X4033266Y-6213523D01*
G01X4035130Y-6215863D01*
G01X4037112Y-6218105D01*
G01X4039199Y-6220247D01*
G01X4041394Y-6222281D01*
G01X4043685Y-6224204D01*
G01X4046070Y-6226012D01*
G01X4048542Y-6227696D01*
G01X4051094Y-6229256D01*
G01X4053721Y-6230689D01*
G01X4056418Y-6231987D01*
G01X4059174Y-6233147D01*
G01X4061986Y-6234171D01*
G01X4064843Y-6235052D01*
G01X4067744Y-6235791D01*
G01X4070675Y-6236383D01*
G01X4073634Y-6236830D01*
G01X4076611Y-6237127D01*
G01X4079598Y-6237277D01*
G01X4082590Y-6237277D01*
G01X4085577Y-6237127D01*
G01X4088554Y-6236830D01*
G01X4091513Y-6236383D01*
G01X4094444Y-6235791D01*
G01X4097345Y-6235052D01*
G01X4100203Y-6234171D01*
G01X4103014Y-6233147D01*
G01X4105770Y-6231987D01*
G01X4108468Y-6230689D01*
G01X4111094Y-6229256D01*
G01X4113647Y-6227696D01*
G01X4116118Y-6226012D01*
G01X4118503Y-6224204D01*
G01X4120794Y-6222281D01*
G01X4122989Y-6220247D01*
G01X4125077Y-6218105D01*
G01X4127058Y-6215863D01*
G01X4128922Y-6213523D01*
G01X4130667Y-6211095D01*
G01X4132290Y-6208580D01*
G01X4133787Y-6205990D01*
G01X4135153Y-6203328D01*
G01X4136382Y-6200602D01*
G01X4137475Y-6197816D01*
G01X4138430Y-6194981D01*
G01X4139240Y-6192101D01*
G01X4139905Y-6189185D01*
G01X4140424Y-6186239D01*
G01X4140797Y-6183269D01*
G01X4141020Y-6180285D01*
G01X4141094Y-6177295D01*
G01X4141094Y-6147295D01*
G01X4141020Y-6144306D01*
G01X4140797Y-6141321D01*
G01X4140424Y-6138352D01*
G01X4139905Y-6135406D01*
G01X4139240Y-6132490D01*
G01X4138430Y-6129609D01*
G01X4137475Y-6126775D01*
G01X4136382Y-6123988D01*
G01X4135153Y-6121263D01*
G01X4133787Y-6118601D01*
G01X4132290Y-6116010D01*
G01X4130667Y-6113496D01*
G01X4128922Y-6111067D01*
G01X4127058Y-6108728D01*
G01X4125077Y-6106485D01*
G01X4122989Y-6104344D01*
G01X4120794Y-6102309D01*
G01X4118503Y-6100387D01*
G01X4116118Y-6098578D01*
G01X4113647Y-6096894D01*
G01X4111094Y-6095335D01*
G01X4108468Y-6093902D01*
G01X4105770Y-6092604D01*
G01X4103014Y-6091443D01*
G01X4100203Y-6090420D01*
G01X4097345Y-6089538D01*
G01X4094444Y-6088799D01*
G01X4091513Y-6088207D01*
G01X4088554Y-6087760D01*
G01X4085577Y-6087463D01*
G01X4082590Y-6087313D01*
G01X4079598Y-6087313D01*
G37*
G36*
G01X3359610Y-6087313D02*
G01X3356623Y-6087463D01*
G01X3353646Y-6087760D01*
G01X3350687Y-6088207D01*
G01X3347756Y-6088799D01*
G01X3344855Y-6089538D01*
G01X3341997Y-6090420D01*
G01X3339186Y-6091443D01*
G01X3336430Y-6092604D01*
G01X3333732Y-6093902D01*
G01X3331106Y-6095335D01*
G01X3328553Y-6096894D01*
G01X3326082Y-6098578D01*
G01X3323697Y-6100387D01*
G01X3321406Y-6102309D01*
G01X3319211Y-6104344D01*
G01X3317123Y-6106485D01*
G01X3315142Y-6108728D01*
G01X3313278Y-6111067D01*
G01X3311533Y-6113496D01*
G01X3309910Y-6116010D01*
G01X3308414Y-6118601D01*
G01X3307047Y-6121263D01*
G01X3305818Y-6123988D01*
G01X3304725Y-6126775D01*
G01X3303770Y-6129609D01*
G01X3302960Y-6132490D01*
G01X3302295Y-6135406D01*
G01X3301776Y-6138352D01*
G01X3301403Y-6141321D01*
G01X3301180Y-6144306D01*
G01X3301106Y-6147295D01*
G01X3301106Y-6177295D01*
G01X3301180Y-6180285D01*
G01X3301403Y-6183269D01*
G01X3301776Y-6186239D01*
G01X3302295Y-6189185D01*
G01X3302960Y-6192101D01*
G01X3303770Y-6194981D01*
G01X3304725Y-6197816D01*
G01X3305818Y-6200602D01*
G01X3307047Y-6203328D01*
G01X3308414Y-6205990D01*
G01X3309910Y-6208580D01*
G01X3311533Y-6211095D01*
G01X3313278Y-6213523D01*
G01X3315142Y-6215863D01*
G01X3317123Y-6218105D01*
G01X3319211Y-6220247D01*
G01X3321406Y-6222281D01*
G01X3323697Y-6224204D01*
G01X3326082Y-6226012D01*
G01X3328553Y-6227696D01*
G01X3331106Y-6229256D01*
G01X3333732Y-6230689D01*
G01X3336430Y-6231987D01*
G01X3339186Y-6233147D01*
G01X3341997Y-6234171D01*
G01X3344855Y-6235052D01*
G01X3347756Y-6235791D01*
G01X3350687Y-6236383D01*
G01X3353646Y-6236830D01*
G01X3356623Y-6237127D01*
G01X3359610Y-6237277D01*
G01X3362602Y-6237277D01*
G01X3365589Y-6237127D01*
G01X3368566Y-6236830D01*
G01X3371525Y-6236383D01*
G01X3374456Y-6235791D01*
G01X3377357Y-6235052D01*
G01X3380214Y-6234171D01*
G01X3383026Y-6233147D01*
G01X3385782Y-6231987D01*
G01X3388479Y-6230689D01*
G01X3391106Y-6229256D01*
G01X3393658Y-6227696D01*
G01X3396130Y-6226012D01*
G01X3398515Y-6224204D01*
G01X3400806Y-6222281D01*
G01X3403001Y-6220247D01*
G01X3405088Y-6218105D01*
G01X3407070Y-6215863D01*
G01X3408934Y-6213523D01*
G01X3410679Y-6211095D01*
G01X3412302Y-6208580D01*
G01X3413798Y-6205990D01*
G01X3415165Y-6203328D01*
G01X3416394Y-6200602D01*
G01X3417486Y-6197816D01*
G01X3418441Y-6194981D01*
G01X3419251Y-6192101D01*
G01X3419917Y-6189185D01*
G01X3420435Y-6186239D01*
G01X3420809Y-6183269D01*
G01X3421032Y-6180285D01*
G01X3421106Y-6177295D01*
G01X3421106Y-6147295D01*
G01X3421032Y-6144306D01*
G01X3420809Y-6141321D01*
G01X3420435Y-6138352D01*
G01X3419917Y-6135406D01*
G01X3419251Y-6132490D01*
G01X3418441Y-6129609D01*
G01X3417486Y-6126775D01*
G01X3416394Y-6123988D01*
G01X3415165Y-6121263D01*
G01X3413798Y-6118601D01*
G01X3412302Y-6116010D01*
G01X3410679Y-6113496D01*
G01X3408934Y-6111067D01*
G01X3407070Y-6108728D01*
G01X3405088Y-6106485D01*
G01X3403001Y-6104344D01*
G01X3400806Y-6102309D01*
G01X3398515Y-6100387D01*
G01X3396130Y-6098578D01*
G01X3393658Y-6096894D01*
G01X3391106Y-6095335D01*
G01X3388479Y-6093902D01*
G01X3385782Y-6092604D01*
G01X3383026Y-6091443D01*
G01X3380214Y-6090420D01*
G01X3377357Y-6089538D01*
G01X3374456Y-6088799D01*
G01X3371525Y-6088207D01*
G01X3368566Y-6087760D01*
G01X3365589Y-6087463D01*
G01X3362602Y-6087313D01*
G01X3359610Y-6087313D01*
G37*
G36*
G01X3878603Y-6292291D02*
G01X3878603Y-6172291D01*
G01X3823602Y-6172291D01*
G01X3823602Y-6292291D01*
G01X3878603Y-6292291D01*
G37*
G36*
G01X3637105Y-6172294D02*
G01X3637105Y-6292294D01*
G01X3675103Y-6292294D01*
G01X3675103Y-6172294D01*
G01X3637105Y-6172294D01*
G37*
G36*
G01X3702103Y-6172294D02*
G01X3702103Y-6292294D01*
G01X3740102Y-6292294D01*
G01X3740102Y-6172294D01*
G01X3702103Y-6172294D01*
G37*
G36*
G01X3767104Y-6172294D02*
G01X3767104Y-6292294D01*
G01X3805103Y-6292294D01*
G01X3805103Y-6172294D01*
G01X3767104Y-6172294D01*
G37*
G36*
G01X3618603Y-6292294D02*
G01X3618603Y-6172294D01*
G01X3563602Y-6172294D01*
G01X3563602Y-6292294D01*
G01X3618603Y-6292294D01*
G37*
G36*
G01X3277111Y-6242319D02*
G01X3274124Y-6242469D01*
G01X3271147Y-6242766D01*
G01X3268188Y-6243213D01*
G01X3265256Y-6243805D01*
G01X3262356Y-6244544D01*
G01X3259498Y-6245426D01*
G01X3256686Y-6246449D01*
G01X3253931Y-6247610D01*
G01X3251233Y-6248908D01*
G01X3248607Y-6250341D01*
G01X3246054Y-6251900D01*
G01X3243583Y-6253584D01*
G01X3241197Y-6255393D01*
G01X3238906Y-6257315D01*
G01X3236712Y-6259350D01*
G01X3234624Y-6261491D01*
G01X3232643Y-6263734D01*
G01X3230778Y-6266073D01*
G01X3229033Y-6268502D01*
G01X3227410Y-6271016D01*
G01X3225914Y-6273607D01*
G01X3224548Y-6276269D01*
G01X3223318Y-6278994D01*
G01X3222226Y-6281781D01*
G01X3221271Y-6284615D01*
G01X3220461Y-6287496D01*
G01X3219795Y-6290412D01*
G01X3219277Y-6293358D01*
G01X3218904Y-6296327D01*
G01X3218680Y-6299312D01*
G01X3218607Y-6302301D01*
G01X3218607Y-6372301D01*
G01X3218680Y-6375291D01*
G01X3218904Y-6378275D01*
G01X3219277Y-6381245D01*
G01X3219795Y-6384191D01*
G01X3220461Y-6387107D01*
G01X3221271Y-6389987D01*
G01X3222226Y-6392822D01*
G01X3223318Y-6395608D01*
G01X3224548Y-6398334D01*
G01X3225914Y-6400996D01*
G01X3227410Y-6403586D01*
G01X3229033Y-6406101D01*
G01X3230778Y-6408529D01*
G01X3232643Y-6410869D01*
G01X3234624Y-6413111D01*
G01X3236712Y-6415253D01*
G01X3238906Y-6417287D01*
G01X3241197Y-6419210D01*
G01X3243583Y-6421018D01*
G01X3246054Y-6422702D01*
G01X3248607Y-6424262D01*
G01X3249600Y-6424804D01*
G01X3248607Y-6425347D01*
G01X3246054Y-6426906D01*
G01X3243583Y-6428590D01*
G01X3241197Y-6430399D01*
G01X3238906Y-6432321D01*
G01X3236712Y-6434356D01*
G01X3234624Y-6436497D01*
G01X3232643Y-6438740D01*
G01X3230778Y-6441079D01*
G01X3229033Y-6443508D01*
G01X3227410Y-6446022D01*
G01X3225914Y-6448613D01*
G01X3224548Y-6451275D01*
G01X3223318Y-6454000D01*
G01X3222226Y-6456787D01*
G01X3221271Y-6459621D01*
G01X3220461Y-6462502D01*
G01X3219795Y-6465418D01*
G01X3219277Y-6468364D01*
G01X3218904Y-6471333D01*
G01X3218680Y-6474318D01*
G01X3218607Y-6477307D01*
G01X3218607Y-6547307D01*
G01X3218680Y-6550297D01*
G01X3218904Y-6553281D01*
G01X3219277Y-6556251D01*
G01X3219795Y-6559197D01*
G01X3220461Y-6562113D01*
G01X3221271Y-6564993D01*
G01X3222226Y-6567828D01*
G01X3223318Y-6570614D01*
G01X3224548Y-6573340D01*
G01X3225914Y-6576002D01*
G01X3227410Y-6578592D01*
G01X3229033Y-6581107D01*
G01X3230778Y-6583535D01*
G01X3232643Y-6585875D01*
G01X3234624Y-6588117D01*
G01X3236712Y-6590259D01*
G01X3238906Y-6592293D01*
G01X3241197Y-6594216D01*
G01X3243583Y-6596024D01*
G01X3246054Y-6597708D01*
G01X3248607Y-6599268D01*
G01X3251233Y-6600701D01*
G01X3253931Y-6601998D01*
G01X3256686Y-6603159D01*
G01X3259498Y-6604183D01*
G01X3262356Y-6605064D01*
G01X3265256Y-6605803D01*
G01X3268188Y-6606395D01*
G01X3271147Y-6606842D01*
G01X3274124Y-6607139D01*
G01X3277111Y-6607289D01*
G01X3280103Y-6607289D01*
G01X3283090Y-6607139D01*
G01X3286067Y-6606842D01*
G01X3289026Y-6606395D01*
G01X3291957Y-6605803D01*
G01X3294858Y-6605064D01*
G01X3297715Y-6604183D01*
G01X3300527Y-6603159D01*
G01X3303283Y-6601998D01*
G01X3305980Y-6600701D01*
G01X3308607Y-6599268D01*
G01X3311159Y-6597708D01*
G01X3313631Y-6596024D01*
G01X3316016Y-6594216D01*
G01X3318307Y-6592293D01*
G01X3320501Y-6590259D01*
G01X3322589Y-6588117D01*
G01X3324570Y-6585875D01*
G01X3326435Y-6583535D01*
G01X3328180Y-6581107D01*
G01X3329803Y-6578592D01*
G01X3331299Y-6576002D01*
G01X3332665Y-6573340D01*
G01X3333895Y-6570614D01*
G01X3334987Y-6567828D01*
G01X3335942Y-6564993D01*
G01X3336752Y-6562113D01*
G01X3337418Y-6559197D01*
G01X3337936Y-6556251D01*
G01X3338309Y-6553281D01*
G01X3338533Y-6550297D01*
G01X3338606Y-6547307D01*
G01X3338606Y-6477307D01*
G01X3338533Y-6474318D01*
G01X3338309Y-6471333D01*
G01X3337936Y-6468364D01*
G01X3337418Y-6465418D01*
G01X3336752Y-6462502D01*
G01X3335942Y-6459621D01*
G01X3334987Y-6456787D01*
G01X3333895Y-6454000D01*
G01X3332665Y-6451275D01*
G01X3331299Y-6448613D01*
G01X3329803Y-6446022D01*
G01X3328180Y-6443508D01*
G01X3326435Y-6441079D01*
G01X3324570Y-6438740D01*
G01X3322589Y-6436497D01*
G01X3320501Y-6434356D01*
G01X3318307Y-6432321D01*
G01X3316016Y-6430399D01*
G01X3313631Y-6428590D01*
G01X3311159Y-6426906D01*
G01X3308607Y-6425347D01*
G01X3307613Y-6424804D01*
G01X3308607Y-6424262D01*
G01X3311159Y-6422702D01*
G01X3313631Y-6421018D01*
G01X3316016Y-6419210D01*
G01X3318307Y-6417287D01*
G01X3320501Y-6415253D01*
G01X3322589Y-6413111D01*
G01X3324570Y-6410869D01*
G01X3326435Y-6408529D01*
G01X3328180Y-6406101D01*
G01X3329803Y-6403586D01*
G01X3331299Y-6400996D01*
G01X3332665Y-6398334D01*
G01X3333895Y-6395608D01*
G01X3334987Y-6392822D01*
G01X3335942Y-6389987D01*
G01X3336752Y-6387107D01*
G01X3337418Y-6384191D01*
G01X3337936Y-6381245D01*
G01X3338309Y-6378275D01*
G01X3338533Y-6375291D01*
G01X3338606Y-6372301D01*
G01X3338606Y-6302301D01*
G01X3338533Y-6299312D01*
G01X3338309Y-6296327D01*
G01X3337936Y-6293358D01*
G01X3337418Y-6290412D01*
G01X3336752Y-6287496D01*
G01X3335942Y-6284615D01*
G01X3334987Y-6281781D01*
G01X3333895Y-6278994D01*
G01X3332665Y-6276269D01*
G01X3331299Y-6273607D01*
G01X3329803Y-6271016D01*
G01X3328180Y-6268502D01*
G01X3326435Y-6266073D01*
G01X3324570Y-6263734D01*
G01X3322589Y-6261491D01*
G01X3320501Y-6259350D01*
G01X3318307Y-6257315D01*
G01X3316016Y-6255393D01*
G01X3313631Y-6253584D01*
G01X3311159Y-6251900D01*
G01X3308607Y-6250341D01*
G01X3305980Y-6248908D01*
G01X3303283Y-6247610D01*
G01X3300527Y-6246449D01*
G01X3297715Y-6245426D01*
G01X3294858Y-6244544D01*
G01X3291957Y-6243805D01*
G01X3289026Y-6243213D01*
G01X3286067Y-6242766D01*
G01X3283090Y-6242469D01*
G01X3280103Y-6242319D01*
G01X3277111Y-6242319D01*
G37*
G36*
G01X4162097Y-6242319D02*
G01X4159110Y-6242469D01*
G01X4156133Y-6242766D01*
G01X4153174Y-6243213D01*
G01X4150243Y-6243805D01*
G01X4147342Y-6244544D01*
G01X4144485Y-6245426D01*
G01X4141673Y-6246449D01*
G01X4138917Y-6247610D01*
G01X4136220Y-6248908D01*
G01X4133593Y-6250341D01*
G01X4131041Y-6251900D01*
G01X4128569Y-6253584D01*
G01X4126184Y-6255393D01*
G01X4123893Y-6257315D01*
G01X4121699Y-6259350D01*
G01X4119611Y-6261491D01*
G01X4117630Y-6263734D01*
G01X4115765Y-6266073D01*
G01X4114020Y-6268502D01*
G01X4112397Y-6271016D01*
G01X4110901Y-6273607D01*
G01X4109535Y-6276269D01*
G01X4108305Y-6278994D01*
G01X4107213Y-6281781D01*
G01X4106258Y-6284615D01*
G01X4105448Y-6287496D01*
G01X4104782Y-6290412D01*
G01X4104264Y-6293358D01*
G01X4103891Y-6296327D01*
G01X4103667Y-6299312D01*
G01X4103594Y-6302301D01*
G01X4103594Y-6372301D01*
G01X4103667Y-6375291D01*
G01X4103891Y-6378275D01*
G01X4104264Y-6381245D01*
G01X4104782Y-6384191D01*
G01X4105448Y-6387107D01*
G01X4106258Y-6389987D01*
G01X4107213Y-6392822D01*
G01X4108305Y-6395608D01*
G01X4109535Y-6398334D01*
G01X4110901Y-6400996D01*
G01X4112397Y-6403586D01*
G01X4114020Y-6406101D01*
G01X4115765Y-6408529D01*
G01X4117630Y-6410869D01*
G01X4119611Y-6413111D01*
G01X4121699Y-6415253D01*
G01X4123893Y-6417287D01*
G01X4126184Y-6419210D01*
G01X4128569Y-6421018D01*
G01X4131041Y-6422702D01*
G01X4133593Y-6424262D01*
G01X4134587Y-6424804D01*
G01X4133593Y-6425347D01*
G01X4131041Y-6426906D01*
G01X4128569Y-6428590D01*
G01X4126184Y-6430399D01*
G01X4123893Y-6432321D01*
G01X4121699Y-6434356D01*
G01X4119611Y-6436497D01*
G01X4117630Y-6438740D01*
G01X4115765Y-6441079D01*
G01X4114020Y-6443508D01*
G01X4112397Y-6446022D01*
G01X4110901Y-6448613D01*
G01X4109535Y-6451275D01*
G01X4108305Y-6454000D01*
G01X4107213Y-6456787D01*
G01X4106258Y-6459621D01*
G01X4105448Y-6462502D01*
G01X4104782Y-6465418D01*
G01X4104264Y-6468364D01*
G01X4103891Y-6471333D01*
G01X4103667Y-6474318D01*
G01X4103594Y-6477307D01*
G01X4103594Y-6547307D01*
G01X4103667Y-6550297D01*
G01X4103891Y-6553281D01*
G01X4104264Y-6556251D01*
G01X4104782Y-6559197D01*
G01X4105448Y-6562113D01*
G01X4106258Y-6564993D01*
G01X4107213Y-6567828D01*
G01X4108305Y-6570614D01*
G01X4109535Y-6573340D01*
G01X4110901Y-6576002D01*
G01X4112397Y-6578592D01*
G01X4114020Y-6581107D01*
G01X4115765Y-6583535D01*
G01X4117630Y-6585875D01*
G01X4119611Y-6588117D01*
G01X4121699Y-6590259D01*
G01X4123893Y-6592293D01*
G01X4126184Y-6594216D01*
G01X4128569Y-6596024D01*
G01X4131041Y-6597708D01*
G01X4133593Y-6599268D01*
G01X4136220Y-6600701D01*
G01X4138917Y-6601998D01*
G01X4141673Y-6603159D01*
G01X4144485Y-6604183D01*
G01X4147342Y-6605064D01*
G01X4150243Y-6605803D01*
G01X4153174Y-6606395D01*
G01X4156133Y-6606842D01*
G01X4159110Y-6607139D01*
G01X4162097Y-6607289D01*
G01X4165089Y-6607289D01*
G01X4168077Y-6607139D01*
G01X4171053Y-6606842D01*
G01X4174012Y-6606395D01*
G01X4176944Y-6605803D01*
G01X4179844Y-6605064D01*
G01X4182702Y-6604183D01*
G01X4185514Y-6603159D01*
G01X4188270Y-6601998D01*
G01X4190967Y-6600701D01*
G01X4193593Y-6599268D01*
G01X4196146Y-6597708D01*
G01X4198617Y-6596024D01*
G01X4201003Y-6594216D01*
G01X4203294Y-6592293D01*
G01X4205488Y-6590259D01*
G01X4207576Y-6588117D01*
G01X4209557Y-6585875D01*
G01X4211422Y-6583535D01*
G01X4213167Y-6581107D01*
G01X4214790Y-6578592D01*
G01X4216286Y-6576002D01*
G01X4217652Y-6573340D01*
G01X4218882Y-6570614D01*
G01X4219974Y-6567828D01*
G01X4220929Y-6564993D01*
G01X4221739Y-6562113D01*
G01X4222405Y-6559197D01*
G01X4222923Y-6556251D01*
G01X4223296Y-6553281D01*
G01X4223520Y-6550297D01*
G01X4223593Y-6547307D01*
G01X4223593Y-6477307D01*
G01X4223520Y-6474318D01*
G01X4223296Y-6471333D01*
G01X4222923Y-6468364D01*
G01X4222405Y-6465418D01*
G01X4221739Y-6462502D01*
G01X4220929Y-6459621D01*
G01X4219974Y-6456787D01*
G01X4218882Y-6454000D01*
G01X4217652Y-6451275D01*
G01X4216286Y-6448613D01*
G01X4214790Y-6446022D01*
G01X4213167Y-6443508D01*
G01X4211422Y-6441079D01*
G01X4209557Y-6438740D01*
G01X4207576Y-6436497D01*
G01X4205488Y-6434356D01*
G01X4203294Y-6432321D01*
G01X4201003Y-6430399D01*
G01X4198617Y-6428590D01*
G01X4196146Y-6426906D01*
G01X4193593Y-6425347D01*
G01X4192600Y-6424804D01*
G01X4193593Y-6424262D01*
G01X4196146Y-6422702D01*
G01X4198617Y-6421018D01*
G01X4201003Y-6419210D01*
G01X4203294Y-6417287D01*
G01X4205488Y-6415253D01*
G01X4207576Y-6413111D01*
G01X4209557Y-6410869D01*
G01X4211422Y-6408529D01*
G01X4213167Y-6406101D01*
G01X4214790Y-6403586D01*
G01X4216286Y-6400996D01*
G01X4217652Y-6398334D01*
G01X4218882Y-6395608D01*
G01X4219974Y-6392822D01*
G01X4220929Y-6389987D01*
G01X4221739Y-6387107D01*
G01X4222405Y-6384191D01*
G01X4222923Y-6381245D01*
G01X4223296Y-6378275D01*
G01X4223520Y-6375291D01*
G01X4223593Y-6372301D01*
G01X4223593Y-6302301D01*
G01X4223520Y-6299312D01*
G01X4223296Y-6296327D01*
G01X4222923Y-6293358D01*
G01X4222405Y-6290412D01*
G01X4221739Y-6287496D01*
G01X4220929Y-6284615D01*
G01X4219974Y-6281781D01*
G01X4218882Y-6278994D01*
G01X4217652Y-6276269D01*
G01X4216286Y-6273607D01*
G01X4214790Y-6271016D01*
G01X4213167Y-6268502D01*
G01X4211422Y-6266073D01*
G01X4209557Y-6263734D01*
G01X4207576Y-6261491D01*
G01X4205488Y-6259350D01*
G01X4203294Y-6257315D01*
G01X4201003Y-6255393D01*
G01X4198617Y-6253584D01*
G01X4196146Y-6251900D01*
G01X4193593Y-6250341D01*
G01X4190967Y-6248908D01*
G01X4188270Y-6247610D01*
G01X4185514Y-6246449D01*
G01X4182702Y-6245426D01*
G01X4179844Y-6244544D01*
G01X4176944Y-6243805D01*
G01X4174012Y-6243213D01*
G01X4171053Y-6242766D01*
G01X4168077Y-6242469D01*
G01X4165089Y-6242319D01*
G01X4162097Y-6242319D01*
G37*

G04 Pad Start*
G54D10*
G01X4318828Y535357D03*
G54D11*
G01X4064000Y-5251298D03*
G01X4064000Y-5391302D03*
G01X3073400Y-4921098D03*
G01X3073400Y-5061102D03*
G54D12*
G01X3340100Y-5937402D03*
G01X3340100Y-5797398D03*
G54D10*
G01X3688582Y535357D03*
G01X3383477Y535357D03*
G01X3995635Y535357D03*
G01X3069998Y535357D03*
G54D13*
G01X3765804Y-417500D03*
G01X3955796Y-417500D03*
G01X3860800Y-217500D03*
G01X3740404Y-1230300D03*
G01X3930396Y-1230300D03*
G01X3835400Y-1030300D03*
G01X3740404Y-2055800D03*
G01X3930396Y-2055800D03*
G01X3835400Y-1855800D03*
G54D14*
G01X4255364Y-5588000D03*
G01X4406036Y-5588000D03*
G54D15*
G01X2882036Y-4902200D03*
G01X2731364Y-4902200D03*
G01X2882036Y-5199273D03*
G01X2731364Y-5199273D03*
G54D14*
G01X3442564Y-419100D03*
G01X3593236Y-419100D03*
G01X3417164Y-1231900D03*
G01X3567836Y-1231900D03*
G01X3404464Y-2057400D03*
G01X3555136Y-2057400D03*
G54D16*
G01X4098181Y60801D03*
G01X3298182Y60801D03*
G01X4108399Y-2387600D03*
G01X3308401Y-2387600D03*
G01X4097875Y-751999D03*
G01X3297877Y-751999D03*
G01X4101896Y-1577499D03*
G01X3301898Y-1577499D03*
G54D18*
G01X4217581Y-5052200D03*
G01X4267594Y-5052200D03*
G01X4317581Y-5052200D03*
G01X4367594Y-5052200D03*
G54D19*
G01X4442600Y-4977193D03*
G01X4442600Y-4927181D03*
G01X4442600Y-4877194D03*
G01X4442600Y-4827181D03*
G54D18*
G01X4367594Y-4752200D03*
G01X4317581Y-4752200D03*
G01X4267594Y-4752200D03*
G01X4217581Y-4752200D03*
G54D19*
G01X4142600Y-4827181D03*
G01X4142600Y-4877194D03*
G01X4142600Y-4927181D03*
G01X4142600Y-4977193D03*
G54D20*
G01X4292587Y-4902187D03*
G54D21*
G01X4432297Y-2738702D03*
G01X4178300Y-2738702D03*
G01X3924300Y-2738702D03*
G01X3670300Y-2738702D03*
G01X3416300Y-2738702D03*
G01X3162300Y-2738702D03*
G01X2908303Y-2738702D03*
G01X2908303Y-4398696D03*
G01X3162300Y-4398696D03*
G01X3416300Y-4398696D03*
G01X3670300Y-4398696D03*
G01X3924300Y-4398696D03*
G01X4178300Y-4398696D03*
G01X4432297Y-4398696D03*
G54D22*
G01X3223751Y-5422490D03*
G54D23*
G01X3098834Y-5217588D03*
G01X3148821Y-5217588D03*
G01X3198834Y-5217588D03*
G01X3248821Y-5217588D03*
G01X3298834Y-5217588D03*
G01X3348821Y-5217588D03*
G54D24*
G01X3428018Y-5297395D03*
G01X3428018Y-5347408D03*
G01X3428018Y-5397395D03*
G01X3428018Y-5447407D03*
G01X3428018Y-5497395D03*
G01X3428018Y-5547407D03*
G54D23*
G01X3348821Y-5627214D03*
G01X3298834Y-5627214D03*
G01X3248821Y-5627214D03*
G01X3198834Y-5627214D03*
G01X3148821Y-5627214D03*
G01X3098834Y-5627214D03*
G54D24*
G01X3019688Y-5547382D03*
G01X3019688Y-5497395D03*
G01X3019688Y-5447382D03*
G01X3019688Y-5397395D03*
G01X3019688Y-5347382D03*
G01X3019688Y-5297395D03*
G54D25*
G01X2731691Y-5054600D03*
G01X2856309Y-5054600D03*
G01X2731691Y-5346700D03*
G01X2856309Y-5346700D03*
G54D26*
G01X3591103Y-6232296D03*
G54D27*
G01X3656101Y-6232296D03*
G01X3721100Y-6232296D03*
G01X3786099Y-6232296D03*
G54D26*
G01X3851097Y-6232296D03*
G54D28*
G01X3361106Y-6162294D03*
G01X4081094Y-6162294D03*
G54D29*
G01X4163593Y-6512306D03*
G01X3278607Y-6512306D03*
G01X3278607Y-6337300D03*
G01X4163593Y-6337300D03*
G54D30*
G01X4435704Y-5321300D03*
G01X4225696Y-5321300D03*
G54D31*
G01X3411995Y-4711700D03*
G01X3192005Y-4711700D03*
G54D32*
G01X3594100Y-5497500D03*
G01X3594100Y-5297500D03*
G54D11*
G01X4572000Y-4768698D03*
G01X4572000Y-4908702D03*
G54D33*
G01X3384702Y-4914900D03*
G01X3244698Y-4914900D03*
G54D12*
G01X3568700Y-5099202D03*
G01X3568700Y-4959198D03*
G54D11*
G01X3670300Y-5797398D03*
G01X3670300Y-5937402D03*
G54D33*
G01X3384702Y-5092700D03*
G01X3244698Y-5092700D03*
G54D34*
G01X3022600Y-5942736D03*
G01X3022600Y-5792064D03*
G01X3175000Y-5942736D03*
G01X3175000Y-5792064D03*
G54D14*
G01X2731364Y-5499100D03*
G01X2882036Y-5499100D03*
G01X2731364Y-5664200D03*
G01X2882036Y-5664200D03*
G54D34*
G01X3505200Y-5942736D03*
G01X3505200Y-5792064D03*
G04 Pad End*

M02*

