G04 Layer: DrillDrawingLayer*
G04 EasyEDA Pro v2.2.38.8, 2025-05-13 16:51:06*
G04 Gerber Generator version 0.3*
G04 Scale: 100 percent, Rotated: No, Reflected: No*
G04 Dimensions in millimeters*
G04 Leading zeros omitted, absolute positions, 4 integers and 5 decimals*
%FSLAX45Y45*%
%MOMM*%
%AMIconRect*4,1,4,0.2,-0.2,-0.2,-0.2,-0.2,0.2,0.2,0.2,0.2,-0.2,0*4,0,4,0.166667,-0.166667,0.166667,0.166667,-0.166667,0.166667,-0.166667,-0.166667,0.166667,-0.166667,0*%
%AMIconTriangle*4,1,3,-0.242567,0.171767,0.242567,0.171767,0,-0.2706,-0.242567,0.171767,0*4,0,3,-0.189767,0.1386,0,-0.1953,0.190167,0.1386,-0.189767,0.1386,0*%
%AMIconStar6*4,1,12,0.0862,0.1492,0.213233,0.123367,0.172367,0,0.213233,-0.1229,0.0862,-0.148733,0,-0.245767,-0.085767,-0.148733,-0.213267,-0.1229,-0.171933,0,-0.213267,0.1229,-0.085767,0.1492,0,0.245767,0.0862,0.1492,0*4,0,12,-0.000333,0.195333,-0.064333,0.122667,-0.169667,0.097667,-0.138333,-0.005333,-0.169667,-0.098,-0.064333,-0.122667,-0.000333,-0.195667,0.064333,-0.122667,0.169667,-0.098,0.138667,0.005,0.169667,0.098,0.064333,0.122333,-0.000333,0.195333,0*%
%AMIconStar4*4,1,8,-0.222667,0.222667,0,0.144667,0.222667,0.222667,0.144667,0,0.222667,-0.222667,0,-0.144667,-0.217433,-0.222667,-0.144667,0,-0.222667,0.222667,0*4,0,8,0.166667,-0.166667,0.108,0,0.166667,0.166667,0,0.108,-0.166667,0.166667,-0.108,0,-0.166667,-0.166667,0,-0.108,0.166667,-0.166667,0*%
%ADD10IconRect*%
%ADD11C,0.44X0.373333*%
%ADD12IconTriangle*%
%ADD13IconStar6*%
%ADD14IconStar4*%
G75*


G04 Drill Drawing Start*
G54D10*
G01X3361106Y-6162294D03*
G01X4081094Y-6162294D03*
G54D11*
G01X3278607Y-6512306D03*
G01X3278607Y-6337300D03*
G01X4163593Y-6512306D03*
G01X4163604Y-6337292D03*
G54D12*
G01X2781300Y-6451600D03*
G01X2781300Y1206500D03*
G01X4546600Y-6451600D03*
G01X4572000Y1206500D03*
G54D13*
G01X3069998Y535357D03*
G01X3383477Y535357D03*
G01X3688582Y535357D03*
G01X3995635Y535357D03*
G01X4318828Y535357D03*
G54D14*
G01X2727199Y-5664199D03*
G01X2731364Y-5499100D03*
G01X2855429Y-5059420D03*
G01X2867914Y-2469397D03*
G01X2867914Y-2215397D03*
G01X2867914Y-1961397D03*
G01X2867914Y-1707397D03*
G01X2867914Y-1453397D03*
G01X2867914Y-1199397D03*
G01X2867914Y-945397D03*
G01X2867914Y-691397D03*
G01X2867914Y-437397D03*
G01X2867914Y-183397D03*
G01X2867914Y70603D03*
G01X2867914Y324603D03*
G01X2867914Y578603D03*
G01X2867914Y-6279397D03*
G01X2867914Y-6025397D03*
G01X2867914Y-4755397D03*
G01X2867914Y-3993397D03*
G01X2867914Y-3739397D03*
G01X2867914Y-3485397D03*
G01X2867914Y-3231397D03*
G01X2867914Y-2977397D03*
G01X2882036Y-5199273D03*
G01X3073400Y-5061102D03*
G01X3121914Y-2469397D03*
G01X3121914Y-2215397D03*
G01X3121914Y-1961397D03*
G01X3121914Y-1707397D03*
G01X3121914Y-6279397D03*
G01X3121914Y-3993397D03*
G01X3121914Y-3739397D03*
G01X3121914Y-3485397D03*
G01X3121914Y-3231397D03*
G01X3121914Y-2977397D03*
G01X3184734Y-5710986D03*
G01X3212049Y-5347408D03*
G01X3219052Y-5422484D03*
G01X3222867Y-5213306D03*
G01X3255725Y-5723239D03*
G01X3314705Y-5347408D03*
G01X3315481Y-5499997D03*
G01X3315481Y-5422490D03*
G01X3325543Y-5793057D03*
G01X3375052Y-1061317D03*
G01X3375914Y-2215397D03*
G01X3375914Y-183397D03*
G01X3375914Y-3993397D03*
G01X3375914Y-3739397D03*
G01X3375914Y-3485397D03*
G01X3375914Y-3231397D03*
G01X3375914Y-2977397D03*
G01X3384702Y-5092700D03*
G01X3384702Y-4914900D03*
G01X3442877Y-5673369D03*
G01X3540269Y-5505246D03*
G01X3568700Y-5105400D03*
G01X3581400Y-6223000D03*
G01X3594100Y-5555203D03*
G01X3594100Y-5461729D03*
G01X3629052Y-1569317D03*
G01X3629052Y-807317D03*
G01X3629914Y-2469397D03*
G01X3629914Y70603D03*
G01X3629914Y324603D03*
G01X3629914Y-4755397D03*
G01X3629914Y-3993397D03*
G01X3629914Y-3739397D03*
G01X3629914Y-3485397D03*
G01X3629914Y-3231397D03*
G01X3629914Y-2977397D03*
G01X3883052Y-1569317D03*
G01X3883914Y-2215397D03*
G01X3883914Y-691397D03*
G01X3883914Y70603D03*
G01X3883914Y324603D03*
G01X3883914Y-6025397D03*
G01X3883914Y-5517397D03*
G01X3883914Y-5263397D03*
G01X3883914Y-4755397D03*
G01X3883914Y-3993397D03*
G01X3883914Y-3739397D03*
G01X3883914Y-3485397D03*
G01X3883914Y-3231397D03*
G01X3883914Y-2977397D03*
G01X3924300Y-4411396D03*
G01X4013200Y-4978400D03*
G01X4076700Y-5727700D03*
G01X4137914Y-6025397D03*
G01X4267594Y-4882474D03*
G01X4343400Y-4933324D03*
G01X4343400Y-4851400D03*
G01X4391914Y-1199397D03*
G01X4391914Y-945397D03*
G01X4391914Y-691397D03*
G01X4391914Y-437397D03*
G01X4391914Y-183397D03*
G01X4391914Y70603D03*
G01X4391914Y324603D03*
G01X4391914Y-6279397D03*
G01X4391914Y-6025397D03*
G01X4391914Y-5771397D03*
G01X4391914Y-3993397D03*
G01X4391914Y-3739397D03*
G01X4391914Y-3485397D03*
G01X4391914Y-3231397D03*
G01X4391914Y-2977397D03*
G01X4645914Y-2723397D03*
G01X4645914Y-2469397D03*
G01X4645914Y-2215397D03*
G01X4645914Y-1961397D03*
G01X4645914Y-1707397D03*
G01X4645914Y-1453397D03*
G01X4645914Y-1199397D03*
G01X4645914Y-945397D03*
G01X4645914Y-691397D03*
G01X4645914Y-437397D03*
G01X4645914Y-183397D03*
G01X4645914Y70603D03*
G01X4645914Y324603D03*
G01X4645914Y578603D03*
G01X4645914Y-6279397D03*
G01X4645914Y-6025397D03*
G01X4645914Y-5771397D03*
G01X4645914Y-5517397D03*
G01X4645914Y-5263397D03*
G01X4645914Y-5009397D03*
G01X4645914Y-4501397D03*
G01X4645914Y-4247397D03*
G01X4645914Y-3993397D03*
G01X4645914Y-3739397D03*
G01X4645914Y-3485397D03*
G01X4645914Y-3231397D03*
G01X4645914Y-2977397D03*
G04 Drill Drawing End*

M02*

