G04 Layer: TopPasteMaskLayer*
G04 EasyEDA Pro v2.2.38.8, 2025-05-13 16:51:06*
G04 Gerber Generator version 0.3*
G04 Scale: 100 percent, Rotated: No, Reflected: No*
G04 Dimensions in millimeters*
G04 Leading zeros omitted, absolute positions, 4 integers and 5 decimals*
%FSLAX45Y45*%
%MOMM*%
%ADD10R,0.9X0.8*%
%ADD11R,0.9X0.8*%
%ADD12R,0.7X1.25001*%
%ADD13R,1.9X1.5*%
%ADD14R,1.9X2.99999*%
%ADD15R,0.75001X0.6*%
%ADD16R,1.3002X2.99999*%
%ADD17R,1.3X2.99999*%
%ADD18R,1.0X2.2*%
%ADD19R,0.8X0.9*%
G75*


G04 PolygonModel Start*
G36*
G01X4211198Y-5632999D02*
G01X4291198Y-5632999D01*
G01X4296199Y-5627997D01*
G01X4296199Y-5605201D01*
G01X4259199Y-5605201D01*
G01X4259199Y-5572201D01*
G01X4296199Y-5572201D01*
G01X4296199Y-5547998D01*
G01X4291198Y-5542999D01*
G01X4211198Y-5542999D01*
G01X4206199Y-5547998D01*
G01X4206199Y-5627997D01*
G01X4211198Y-5632999D01*
G37*
G36*
G01X4450202Y-5543001D02*
G01X4370202Y-5543001D01*
G01X4365201Y-5548003D01*
G01X4365201Y-5570799D01*
G01X4402201Y-5570799D01*
G01X4402201Y-5603799D01*
G01X4365201Y-5603799D01*
G01X4365201Y-5628002D01*
G01X4370202Y-5633001D01*
G01X4450202Y-5633001D01*
G01X4455201Y-5628002D01*
G01X4455201Y-5548003D01*
G01X4450202Y-5543001D01*
G37*
G36*
G01X2926202Y-4857201D02*
G01X2846202Y-4857201D01*
G01X2841201Y-4862203D01*
G01X2841201Y-4884999D01*
G01X2878201Y-4884999D01*
G01X2878201Y-4917999D01*
G01X2841201Y-4917999D01*
G01X2841201Y-4942202D01*
G01X2846202Y-4947201D01*
G01X2926202Y-4947201D01*
G01X2931201Y-4942202D01*
G01X2931201Y-4862203D01*
G01X2926202Y-4857201D01*
G37*
G36*
G01X2687198Y-4947199D02*
G01X2767198Y-4947199D01*
G01X2772199Y-4942197D01*
G01X2772199Y-4919401D01*
G01X2735199Y-4919401D01*
G01X2735199Y-4886401D01*
G01X2772199Y-4886401D01*
G01X2772199Y-4862198D01*
G01X2767198Y-4857199D01*
G01X2687198Y-4857199D01*
G01X2682199Y-4862198D01*
G01X2682199Y-4942197D01*
G01X2687198Y-4947199D01*
G37*
G36*
G01X2926202Y-5154275D02*
G01X2846202Y-5154275D01*
G01X2841201Y-5159276D01*
G01X2841201Y-5182072D01*
G01X2878201Y-5182072D01*
G01X2878201Y-5215072D01*
G01X2841201Y-5215072D01*
G01X2841201Y-5239276D01*
G01X2846202Y-5244274D01*
G01X2926202Y-5244274D01*
G01X2931201Y-5239276D01*
G01X2931201Y-5159276D01*
G01X2926202Y-5154275D01*
G37*
G36*
G01X2687198Y-5244272D02*
G01X2767198Y-5244272D01*
G01X2772199Y-5239271D01*
G01X2772199Y-5216474D01*
G01X2735199Y-5216474D01*
G01X2735199Y-5183475D01*
G01X2772199Y-5183475D01*
G01X2772199Y-5159271D01*
G01X2767198Y-5154272D01*
G01X2687198Y-5154272D01*
G01X2682199Y-5159271D01*
G01X2682199Y-5239271D01*
G01X2687198Y-5244272D01*
G37*
G36*
G01X3398398Y-464099D02*
G01X3478398Y-464099D01*
G01X3483399Y-459097D01*
G01X3483399Y-436301D01*
G01X3446399Y-436301D01*
G01X3446399Y-403301D01*
G01X3483399Y-403301D01*
G01X3483399Y-379098D01*
G01X3478398Y-374099D01*
G01X3398398Y-374099D01*
G01X3393399Y-379098D01*
G01X3393399Y-459097D01*
G01X3398398Y-464099D01*
G37*
G36*
G01X3637402Y-374101D02*
G01X3557402Y-374101D01*
G01X3552401Y-379103D01*
G01X3552401Y-401899D01*
G01X3589401Y-401899D01*
G01X3589401Y-434899D01*
G01X3552401Y-434899D01*
G01X3552401Y-459102D01*
G01X3557402Y-464101D01*
G01X3637402Y-464101D01*
G01X3642401Y-459102D01*
G01X3642401Y-379103D01*
G01X3637402Y-374101D01*
G37*
G36*
G01X3372998Y-1276899D02*
G01X3452998Y-1276899D01*
G01X3457999Y-1271897D01*
G01X3457999Y-1249101D01*
G01X3420999Y-1249101D01*
G01X3420999Y-1216101D01*
G01X3457999Y-1216101D01*
G01X3457999Y-1191898D01*
G01X3452998Y-1186899D01*
G01X3372998Y-1186899D01*
G01X3367999Y-1191898D01*
G01X3367999Y-1271897D01*
G01X3372998Y-1276899D01*
G37*
G36*
G01X3612002Y-1186901D02*
G01X3532002Y-1186901D01*
G01X3527001Y-1191903D01*
G01X3527001Y-1214699D01*
G01X3564001Y-1214699D01*
G01X3564001Y-1247699D01*
G01X3527001Y-1247699D01*
G01X3527001Y-1271902D01*
G01X3532002Y-1276901D01*
G01X3612002Y-1276901D01*
G01X3617001Y-1271902D01*
G01X3617001Y-1191903D01*
G01X3612002Y-1186901D01*
G37*
G36*
G01X3360298Y-2102399D02*
G01X3440298Y-2102399D01*
G01X3445299Y-2097397D01*
G01X3445299Y-2074601D01*
G01X3408299Y-2074601D01*
G01X3408299Y-2041601D01*
G01X3445299Y-2041601D01*
G01X3445299Y-2017398D01*
G01X3440298Y-2012399D01*
G01X3360298Y-2012399D01*
G01X3355299Y-2017398D01*
G01X3355299Y-2097397D01*
G01X3360298Y-2102399D01*
G37*
G36*
G01X3599302Y-2012401D02*
G01X3519302Y-2012401D01*
G01X3514301Y-2017403D01*
G01X3514301Y-2040199D01*
G01X3551301Y-2040199D01*
G01X3551301Y-2073199D01*
G01X3514301Y-2073199D01*
G01X3514301Y-2097402D01*
G01X3519302Y-2102401D01*
G01X3599302Y-2102401D01*
G01X3604301Y-2097402D01*
G01X3604301Y-2017403D01*
G01X3599302Y-2012401D01*
G37*
G36*
G01X4224592Y-4970186D02*
G01X4224592Y-4834181D01*
G01X4360596Y-4834181D01*
G01X4360596Y-4970186D01*
G01X4224592Y-4970186D01*
G37*
G36*
G01X4231582Y-5078199D02*
G02X4203586Y-5078199I-13998J267D01*
G01X4203586Y-5026198D01*
G02X4231582Y-5026198I13998J-267D01*
G01X4231582Y-5078199D01*
G37*
G36*
G01X4281594Y-5078199D02*
G02X4253601Y-5078199I-13997J327D01*
G01X4253601Y-5026198D01*
G02X4281594Y-5026198I13997J-327D01*
G01X4281594Y-5078199D01*
G37*
G36*
G01X4331586Y-5078199D02*
G02X4303578Y-5078199I-14004J0D01*
G01X4303578Y-5026198D01*
G02X4331586Y-5026198I14004J0D01*
G01X4331586Y-5078199D01*
G37*
G36*
G01X4381602Y-5078199D02*
G02X4353593Y-5078199I-14004J0D01*
G01X4353593Y-5026198D01*
G02X4381602Y-5026198I14004J0D01*
G01X4381602Y-5078199D01*
G37*
G36*
G01X4416600Y-4991191D02*
G02X4416600Y-4963183I0J14004D01*
G01X4468604Y-4963183D01*
G02X4468604Y-4991191I0J-14004D01*
G01X4416600Y-4991191D01*
G37*
G36*
G01X4416600Y-4941176D02*
G02X4416600Y-4913180I267J13998D01*
G01X4468604Y-4913180D01*
G02X4468604Y-4941176I-267J-13998D01*
G01X4416600Y-4941176D01*
G37*
G36*
G01X4416600Y-4891179D02*
G02X4416600Y-4863188I377J13995D01*
G01X4468604Y-4863188D01*
G02X4468604Y-4891179I-377J-13995D01*
G01X4416600Y-4891179D01*
G37*
G36*
G01X4416600Y-4841166D02*
G02X4416600Y-4813181I462J13993D01*
G01X4468604Y-4813181D01*
G02X4468604Y-4841166I-462J-13993D01*
G01X4416600Y-4841166D01*
G37*
G36*
G01X4381602Y-4778187D02*
G02X4353593Y-4778187I-14004J0D01*
G01X4353593Y-4726191D01*
G02X4381602Y-4726191I14004J0D01*
G01X4381602Y-4778187D01*
G37*
G36*
G01X4331586Y-4778187D02*
G02X4303578Y-4778187I-14004J0D01*
G01X4303578Y-4726191D01*
G02X4331586Y-4726191I14004J0D01*
G01X4331586Y-4778187D01*
G37*
G36*
G01X4281594Y-4778187D02*
G02X4253601Y-4778187I-13997J327D01*
G01X4253601Y-4726191D01*
G02X4281594Y-4726191I13997J-327D01*
G01X4281594Y-4778187D01*
G37*
G36*
G01X4231582Y-4778187D02*
G02X4203586Y-4778187I-13998J267D01*
G01X4203586Y-4726191D01*
G02X4231582Y-4726191I13998J-267D01*
G01X4231582Y-4778187D01*
G37*
G36*
G01X4116601Y-4841166D02*
G02X4116601Y-4813181I462J13993D01*
G01X4168600Y-4813181D01*
G02X4168600Y-4841166I-462J-13993D01*
G01X4116601Y-4841166D01*
G37*
G36*
G01X4116601Y-4891179D02*
G02X4116601Y-4863188I377J13995D01*
G01X4168600Y-4863188D01*
G02X4168600Y-4891179I-377J-13995D01*
G01X4116601Y-4891179D01*
G37*
G36*
G01X4116601Y-4941176D02*
G02X4116601Y-4913180I267J13998D01*
G01X4168600Y-4913180D01*
G02X4168600Y-4941176I-267J-13998D01*
G01X4116601Y-4941176D01*
G37*
G36*
G01X4116601Y-4991191D02*
G02X4116601Y-4963183I0J14004D01*
G01X4168600Y-4963183D01*
G02X4168600Y-4991191I0J-14004D01*
G01X4116601Y-4991191D01*
G37*
G36*
G01X3111753Y-5310484D02*
G01X3335753Y-5310484D01*
G01X3335753Y-5534484D01*
G01X3111753Y-5534484D01*
G01X3111753Y-5310484D01*
G37*
G36*
G01X3083836Y-5177583D02*
G01X3083836Y-5257586D01*
G01X3113833Y-5257586D01*
G01X3113833Y-5177583D01*
G01X3083836Y-5177583D01*
G37*
G36*
G01X3133823Y-5177583D02*
G01X3133823Y-5257586D01*
G01X3163820Y-5257586D01*
G01X3163820Y-5177583D01*
G01X3133823Y-5177583D01*
G37*
G36*
G01X3183835Y-5177583D02*
G01X3183835Y-5257586D01*
G01X3213833Y-5257586D01*
G01X3213833Y-5177583D01*
G01X3183835Y-5177583D01*
G37*
G36*
G01X3233823Y-5177583D02*
G01X3233823Y-5257586D01*
G01X3263820Y-5257586D01*
G01X3263820Y-5177583D01*
G01X3233823Y-5177583D01*
G37*
G36*
G01X3283835Y-5177583D02*
G01X3283835Y-5257586D01*
G01X3313833Y-5257586D01*
G01X3313833Y-5177583D01*
G01X3283835Y-5177583D01*
G37*
G36*
G01X3333822Y-5177583D02*
G01X3333822Y-5257586D01*
G01X3363820Y-5257586D01*
G01X3363820Y-5177583D01*
G01X3333822Y-5177583D01*
G37*
G36*
G01X3388021Y-5282394D02*
G01X3388021Y-5312396D01*
G01X3468023Y-5312396D01*
G01X3468023Y-5282394D01*
G01X3388021Y-5282394D01*
G37*
G36*
G01X3059685Y-5312396D02*
G01X3059685Y-5282394D01*
G01X2979683Y-5282394D01*
G01X2979683Y-5312396D01*
G01X3059685Y-5312396D01*
G37*
G36*
G01X3059685Y-5362383D02*
G01X3059685Y-5332381D01*
G01X2979683Y-5332381D01*
G01X2979683Y-5362383D01*
G01X3059685Y-5362383D01*
G37*
G36*
G01X3468023Y-5362409D02*
G01X3468023Y-5332406D01*
G01X3388021Y-5332406D01*
G01X3388021Y-5362409D01*
G01X3468023Y-5362409D01*
G37*
G36*
G01X3059685Y-5412396D02*
G01X3059685Y-5382394D01*
G01X2979683Y-5382394D01*
G01X2979683Y-5412396D01*
G01X3059685Y-5412396D01*
G37*
G36*
G01X3468023Y-5412396D02*
G01X3468023Y-5382394D01*
G01X3388021Y-5382394D01*
G01X3388021Y-5412396D01*
G01X3468023Y-5412396D01*
G37*
G36*
G01X3059685Y-5462383D02*
G01X3059685Y-5432381D01*
G01X2979683Y-5432381D01*
G01X2979683Y-5462383D01*
G01X3059685Y-5462383D01*
G37*
G36*
G01X3468023Y-5462409D02*
G01X3468023Y-5432406D01*
G01X3388021Y-5432406D01*
G01X3388021Y-5462409D01*
G01X3468023Y-5462409D01*
G37*
G36*
G01X3059685Y-5512396D02*
G01X3059685Y-5482393D01*
G01X2979683Y-5482393D01*
G01X2979683Y-5512396D01*
G01X3059685Y-5512396D01*
G37*
G36*
G01X3468023Y-5512396D02*
G01X3468023Y-5482393D01*
G01X3388021Y-5482393D01*
G01X3388021Y-5512396D01*
G01X3468023Y-5512396D01*
G37*
G36*
G01X3059685Y-5562383D02*
G01X3059685Y-5532381D01*
G01X2979683Y-5532381D01*
G01X2979683Y-5562383D01*
G01X3059685Y-5562383D01*
G37*
G36*
G01X3388021Y-5532406D02*
G01X3388021Y-5562408D01*
G01X3468023Y-5562408D01*
G01X3468023Y-5532406D01*
G01X3388021Y-5532406D01*
G37*
G36*
G01X3113833Y-5667219D02*
G01X3113833Y-5587217D01*
G01X3083836Y-5587217D01*
G01X3083836Y-5667219D01*
G01X3113833Y-5667219D01*
G37*
G36*
G01X3333822Y-5587217D02*
G01X3333822Y-5667219D01*
G01X3363820Y-5667219D01*
G01X3363820Y-5587217D01*
G01X3333822Y-5587217D01*
G37*
G36*
G01X3163820Y-5667219D02*
G01X3163820Y-5587217D01*
G01X3133823Y-5587217D01*
G01X3133823Y-5667219D01*
G01X3163820Y-5667219D01*
G37*
G36*
G01X3213833Y-5667219D02*
G01X3213833Y-5587217D01*
G01X3183835Y-5587217D01*
G01X3183835Y-5667219D01*
G01X3213833Y-5667219D01*
G37*
G36*
G01X3263820Y-5667219D02*
G01X3263820Y-5587217D01*
G01X3233823Y-5587217D01*
G01X3233823Y-5667219D01*
G01X3263820Y-5667219D01*
G37*
G36*
G01X3283835Y-5587217D02*
G01X3283835Y-5667219D01*
G01X3313833Y-5667219D01*
G01X3313833Y-5587217D01*
G01X3283835Y-5587217D01*
G37*
G36*
G01X4163593Y-6237300D02*
G01X4133593Y-6237300D01*
G01X4103594Y-6267300D01*
G01X4103594Y-6582298D01*
G01X4128595Y-6607299D01*
G01X4198592Y-6607299D01*
G01X4223593Y-6582298D01*
G01X4223593Y-6267300D01*
G01X4193593Y-6237300D01*
G01X4163593Y-6237300D01*
G37*
G36*
G01X3278629Y-6237308D02*
G01X3248632Y-6237308D01*
G01X3218630Y-6267303D01*
G01X3218630Y-6582298D01*
G01X3243631Y-6607310D01*
G01X3313628Y-6607310D01*
G01X3338629Y-6582298D01*
G01X3338629Y-6267303D01*
G01X3308632Y-6237308D01*
G01X3278629Y-6237308D01*
G37*
G36*
G01X3530100Y-5227002D02*
G01X3658098Y-5227002D01*
G01X3663099Y-5232004D01*
G01X3663099Y-5347005D01*
G01X3658098Y-5352004D01*
G01X3617095Y-5352506D01*
G01X3617095Y-5307505D01*
G01X3572096Y-5307505D01*
G01X3572096Y-5351506D01*
G01X3530100Y-5352004D01*
G01X3525098Y-5347005D01*
G01X3525098Y-5232004D01*
G01X3530100Y-5227002D01*
G37*
G36*
G01X3658100Y-5567997D02*
G01X3530102Y-5567997D01*
G01X3525101Y-5562996D01*
G01X3525101Y-5447995D01*
G01X3530102Y-5442996D01*
G01X3571105Y-5442494D01*
G01X3571105Y-5487495D01*
G01X3616104Y-5487495D01*
G01X3616104Y-5443494D01*
G01X3658100Y-5442996D01*
G01X3663102Y-5447995D01*
G01X3663102Y-5562996D01*
G01X3658100Y-5567997D01*
G37*
G36*
G01X3067599Y-5986902D02*
G01X3067599Y-5906902D01*
G01X3062597Y-5901901D01*
G01X3039801Y-5901901D01*
G01X3039801Y-5938901D01*
G01X3006801Y-5938901D01*
G01X3006801Y-5901901D01*
G01X2982598Y-5901901D01*
G01X2977599Y-5906902D01*
G01X2977599Y-5986902D01*
G01X2982598Y-5991901D01*
G01X3062597Y-5991901D01*
G01X3067599Y-5986902D01*
G37*
G36*
G01X2977601Y-5747898D02*
G01X2977601Y-5827898D01*
G01X2982603Y-5832899D01*
G01X3005399Y-5832899D01*
G01X3005399Y-5795899D01*
G01X3038399Y-5795899D01*
G01X3038399Y-5832899D01*
G01X3062602Y-5832899D01*
G01X3067601Y-5827898D01*
G01X3067601Y-5747898D01*
G01X3062602Y-5742899D01*
G01X2982603Y-5742899D01*
G01X2977601Y-5747898D01*
G37*
G36*
G01X3219999Y-5986902D02*
G01X3219999Y-5906902D01*
G01X3214997Y-5901901D01*
G01X3192201Y-5901901D01*
G01X3192201Y-5938901D01*
G01X3159201Y-5938901D01*
G01X3159201Y-5901901D01*
G01X3134998Y-5901901D01*
G01X3129999Y-5906902D01*
G01X3129999Y-5986902D01*
G01X3134998Y-5991901D01*
G01X3214997Y-5991901D01*
G01X3219999Y-5986902D01*
G37*
G36*
G01X3130001Y-5747898D02*
G01X3130001Y-5827898D01*
G01X3135003Y-5832899D01*
G01X3157799Y-5832899D01*
G01X3157799Y-5795899D01*
G01X3190799Y-5795899D01*
G01X3190799Y-5832899D01*
G01X3215002Y-5832899D01*
G01X3220001Y-5827898D01*
G01X3220001Y-5747898D01*
G01X3215002Y-5742899D01*
G01X3135003Y-5742899D01*
G01X3130001Y-5747898D01*
G37*
G36*
G01X2687198Y-5544099D02*
G01X2767198Y-5544099D01*
G01X2772199Y-5539097D01*
G01X2772199Y-5516301D01*
G01X2735199Y-5516301D01*
G01X2735199Y-5483301D01*
G01X2772199Y-5483301D01*
G01X2772199Y-5459098D01*
G01X2767198Y-5454099D01*
G01X2687198Y-5454099D01*
G01X2682199Y-5459098D01*
G01X2682199Y-5539097D01*
G01X2687198Y-5544099D01*
G37*
G36*
G01X2926202Y-5454101D02*
G01X2846202Y-5454101D01*
G01X2841201Y-5459103D01*
G01X2841201Y-5481899D01*
G01X2878201Y-5481899D01*
G01X2878201Y-5514899D01*
G01X2841201Y-5514899D01*
G01X2841201Y-5539102D01*
G01X2846202Y-5544101D01*
G01X2926202Y-5544101D01*
G01X2931201Y-5539102D01*
G01X2931201Y-5459103D01*
G01X2926202Y-5454101D01*
G37*
G36*
G01X2687198Y-5709199D02*
G01X2767198Y-5709199D01*
G01X2772199Y-5704197D01*
G01X2772199Y-5681401D01*
G01X2735199Y-5681401D01*
G01X2735199Y-5648401D01*
G01X2772199Y-5648401D01*
G01X2772199Y-5624198D01*
G01X2767198Y-5619199D01*
G01X2687198Y-5619199D01*
G01X2682199Y-5624198D01*
G01X2682199Y-5704197D01*
G01X2687198Y-5709199D01*
G37*
G36*
G01X2926202Y-5619201D02*
G01X2846202Y-5619201D01*
G01X2841201Y-5624203D01*
G01X2841201Y-5646999D01*
G01X2878201Y-5646999D01*
G01X2878201Y-5679999D01*
G01X2841201Y-5679999D01*
G01X2841201Y-5704202D01*
G01X2846202Y-5709201D01*
G01X2926202Y-5709201D01*
G01X2931201Y-5704202D01*
G01X2931201Y-5624203D01*
G01X2926202Y-5619201D01*
G37*
G36*
G01X3550199Y-5986902D02*
G01X3550199Y-5906902D01*
G01X3545197Y-5901901D01*
G01X3522401Y-5901901D01*
G01X3522401Y-5938901D01*
G01X3489401Y-5938901D01*
G01X3489401Y-5901901D01*
G01X3465198Y-5901901D01*
G01X3460199Y-5906902D01*
G01X3460199Y-5986902D01*
G01X3465198Y-5991901D01*
G01X3545197Y-5991901D01*
G01X3550199Y-5986902D01*
G37*
G36*
G01X3460201Y-5747898D02*
G01X3460201Y-5827898D01*
G01X3465203Y-5832899D01*
G01X3487999Y-5832899D01*
G01X3487999Y-5795899D01*
G01X3520999Y-5795899D01*
G01X3520999Y-5832899D01*
G01X3545202Y-5832899D01*
G01X3550201Y-5827898D01*
G01X3550201Y-5747898D01*
G01X3545202Y-5742899D01*
G01X3465203Y-5742899D01*
G01X3460201Y-5747898D01*
G37*

G04 Pad Start*
G54D10*
G01X4064000Y-5251298D03*
G01X4064000Y-5391302D03*
G01X3073400Y-4921098D03*
G01X3073400Y-5061102D03*
G54D11*
G01X3340100Y-5937402D03*
G01X3340100Y-5797398D03*
G54D12*
G01X3765804Y-417500D03*
G01X3955796Y-417500D03*
G01X3860800Y-217500D03*
G01X3740404Y-1230300D03*
G01X3930396Y-1230300D03*
G01X3835400Y-1030300D03*
G01X3740404Y-2055800D03*
G01X3930396Y-2055800D03*
G01X3835400Y-1855800D03*
G54D13*
G01X4098181Y60801D03*
G01X3298182Y60801D03*
G01X4108399Y-2387600D03*
G01X3308401Y-2387600D03*
G01X4097875Y-751999D03*
G01X3297877Y-751999D03*
G01X4101896Y-1577499D03*
G01X3301898Y-1577499D03*
G54D14*
G01X4432297Y-2738702D03*
G01X4178300Y-2738702D03*
G01X3924300Y-2738702D03*
G01X3670300Y-2738702D03*
G01X3416300Y-2738702D03*
G01X3162300Y-2738702D03*
G01X2908303Y-2738702D03*
G01X2908303Y-4398696D03*
G01X3162300Y-4398696D03*
G01X3416300Y-4398696D03*
G01X3670300Y-4398696D03*
G01X3924300Y-4398696D03*
G01X4178300Y-4398696D03*
G01X4432297Y-4398696D03*
G54D15*
G01X2731691Y-5054600D03*
G01X2856309Y-5054600D03*
G01X2731691Y-5346700D03*
G01X2856309Y-5346700D03*
G54D17*
G01X4435704Y-5321300D03*
G01X4225696Y-5321300D03*
G54D18*
G01X3411995Y-4711700D03*
G01X3192005Y-4711700D03*
G54D10*
G01X4572000Y-4768698D03*
G01X4572000Y-4908702D03*
G54D19*
G01X3384702Y-4914900D03*
G01X3244698Y-4914900D03*
G54D11*
G01X3568700Y-5099202D03*
G01X3568700Y-4959198D03*
G54D10*
G01X3670300Y-5797398D03*
G01X3670300Y-5937402D03*
G54D19*
G01X3384702Y-5092700D03*
G01X3244698Y-5092700D03*
G04 Pad End*

M02*

